<svg width="82" height="9" viewBox="0 0 82 9" fill="none" xmlns="http://www.w3.org/2000/svg">
<path d="M5.43253 9L4.80853 6.828H2.10853L1.49653 9H0.0445297L2.61253 0.48H4.31653L6.88453 9H5.43253ZM3.44053 1.704C3.24853 2.748 2.92453 4.02 2.44453 5.64H4.47253C3.99253 4.02 3.68053 2.748 3.48853 1.704H3.44053ZM8.25394 9V0.48H10.9779C13.2219 0.48 14.4939 2.184 14.4939 4.68C14.4939 7.224 13.1139 9 10.9539 9H8.25394ZM9.72994 7.824H10.8579C12.2379 7.824 12.9819 6.492 12.9819 4.68C12.9819 2.904 12.2859 1.656 10.8819 1.656H9.72994V7.824ZM20.5193 9L18.8033 5.508H17.4953V9H16.0193V0.48H18.9233C20.7953 0.48 21.8633 1.404 21.8633 3.024C21.8633 4.104 21.2753 4.908 20.2433 5.256L22.1393 9H20.5193ZM17.4953 1.62V4.452H18.7913C19.7873 4.452 20.3153 3.948 20.3153 3.036C20.3153 2.124 19.7873 1.62 18.7913 1.62H17.4953ZM29.2327 1.632H27.2407V7.848H29.2327V9H23.7847V7.848H25.7647V1.632H23.7847V0.48H29.2327V1.632ZM36.1582 9L35.5342 6.828H32.8342L32.2222 9H30.7702L33.3382 0.48H35.0422L37.6102 9H36.1582ZM34.1662 1.704C33.9742 2.748 33.6502 4.02 33.1702 5.64H35.1982C34.7182 4.02 34.4062 2.748 34.2142 1.704H34.1662ZM42.9636 5.7C43.1676 6.204 43.3116 6.66 43.3716 6.9H43.4196C43.3716 6.564 43.3476 6.096 43.3476 5.748V0.48H44.7276V9H43.1436L40.7676 3.528C40.5756 3.072 40.4196 2.52 40.3836 2.412H40.3236C40.3716 2.688 40.3956 3.072 40.3956 3.384V9H39.0156V0.48H40.7436L42.9636 5.7ZM58.9264 9L57.2104 5.508H55.9024V9H54.4264V0.48H57.3304C59.2024 0.48 60.2704 1.404 60.2704 3.024C60.2704 4.104 59.6824 4.908 58.6504 5.256L60.5464 9H58.9264ZM55.9024 1.62V4.452H57.1984C58.1944 4.452 58.7224 3.948 58.7224 3.036C58.7224 2.124 58.1944 1.62 57.1984 1.62H55.9024ZM65.8398 7.2V9H63.9798V7.2H65.8398ZM73.7852 3.9L73.1732 6.924H72.0212L71.4092 3.9C71.3012 3.408 71.1572 2.52 71.0852 1.98H71.0012C71.0372 2.676 71.0612 3.72 71.0612 4.392V9H69.7412V0.48H71.6012L72.4052 4.332C72.4652 4.692 72.5372 5.16 72.5612 5.412H72.6332C72.6572 5.16 72.7292 4.692 72.7892 4.332L73.5932 0.48H75.4532V9H74.1332V4.392C74.1332 3.72 74.1572 2.676 74.1932 1.98H74.1092C74.0492 2.52 73.8932 3.408 73.7852 3.9ZM81.2026 7.2V9H79.3426V7.2H81.2026Z" fill="white"/>
</svg>
