<svg width="1392" height="1392" viewBox="0 0 1392 1392" fill="none" xmlns="http://www.w3.org/2000/svg">
<mask id="mask0_204_2944" style="mask-type:luminance" maskUnits="userSpaceOnUse" x="0" y="0" width="1392" height="1392">
<circle cx="696" cy="696" r="696" fill="white"/>
</mask>
<g mask="url(#mask0_204_2944)">
<path d="M908.906 1012.72C809.844 1309.63 545.203 1401.32 405.271 1032.54C386.028 981.826 436.342 962.951 471.529 940.635C495.631 925.348 508.292 912.092 506.824 898.426C499.896 833.951 469.903 654.572 469.903 654.572L466.852 648.793C466.852 648.793 467.583 647.173 464.712 650.038C461.72 653.025 454.819 684.214 427.622 684.214C403.238 684.214 378.483 673.314 366.636 597.886C362.349 570.589 364.782 499.025 394.989 486.102C407.472 480.763 418.988 478.854 430.222 485.263C441.456 491.671 417.26 463.357 542.209 359.232C623.427 291.549 751.717 281.629 803.484 293.057C855.25 304.484 907.016 329.824 929.912 383.483C957.694 448.593 904.029 497.759 915.816 646.042C913.668 699.617 916.743 817.198 769.314 856.607C741.313 864.093 750 905 792 915C859 936 908.959 987.268 908.959 1012.86" fill="white"/>
<path fill-rule="evenodd" clip-rule="evenodd" d="M908.943 551.2L909.102 549.806C913.243 513.399 917.256 478.118 936.243 446.429C942.702 450.85 941.948 456.452 939.929 461.643C920.013 512.845 921.842 566.04 923.669 619.206C923.83 623.863 923.99 628.519 924.135 633.174C926.216 699.601 909.648 759.988 865.354 810.736C849.981 828.348 829.632 840.464 808.854 851.045C787.515 861.912 783.03 871.132 789.687 894.599C789.93 895.455 790.229 896.315 790.529 897.178C791.892 901.1 793.273 905.073 789.487 908.95C784.965 913.58 780.026 912.259 774.683 910.829C774.48 910.775 774.277 910.721 774.074 910.667C723.733 897.241 678.697 873.154 637.056 842.393C631.139 838.022 626.272 832.06 621.561 826.29L621.561 826.289L621.256 825.916C618.776 822.879 618.338 818.141 621.807 815.462C625.054 812.955 627.609 815.011 630.452 817.298C630.815 817.59 631.182 817.886 631.556 818.176C654.027 835.614 678.773 847.063 707.768 849.943C721.176 851.275 734.448 850.784 747.708 850.293H747.708H747.709C755.17 850.017 762.626 849.741 770.101 849.79C780.34 849.857 788.752 845.107 796.761 840.584C797.712 840.047 798.658 839.513 799.601 838.99C827.446 823.545 853.883 806.229 871.836 778.331C887.922 753.331 897.665 726.1 903.402 697.443C910.645 661.27 909.989 624.7 909.324 587.621C909.107 575.536 908.889 563.397 908.943 551.2ZM405.684 475.824C427.577 474.064 439.771 487.033 450.037 502.053C462.664 520.526 469.39 541.465 472.37 563.572C472.87 567.28 473.389 571.223 471.152 574.856C466.737 575.45 466.319 571.946 466.252 569.317C465.696 548.644 456.526 530.61 447.308 513.156C440.73 500.704 431.059 488.64 415.943 485.577C398.71 482.084 382.858 497.566 375.067 517.842C360.636 555.398 363.029 592.36 376.455 628.759C382.33 644.687 389.648 660.913 404.303 672.026C419.142 683.28 437.008 681.295 447.903 666.349C448.526 665.494 449.184 664.649 449.845 663.801L449.845 663.801L449.845 663.801C451.841 661.238 453.853 658.656 454.928 655.749C457.035 650.049 460.256 644.629 466.155 645.423C472.978 646.342 474.271 653.729 474.909 659.499C480.707 711.928 488.758 764.024 496.81 816.126L496.81 816.126C498.808 829.053 500.806 841.98 502.769 854.913C505.369 872.023 508.381 896.598 506.361 907.05C506.219 907.792 506.136 908.523 506.058 909.222C505.749 911.958 505.496 914.21 501.906 914.75C497.034 915.484 494.831 912.66 494.233 908.28C491.913 891.274 491.273 884.747 490.275 858.735C489.308 833.519 484.569 808.665 479.83 783.816L479.83 783.815C478.111 774.799 476.392 765.784 474.853 756.753C469.613 725.996 464.483 694.802 464.022 659.777C463.326 660.808 462.644 661.825 461.974 662.826C454.426 674.095 448.264 683.295 437.48 686.877C419.58 692.827 403.917 688.422 391.371 674.277C377.071 658.155 367.783 639.808 362.558 618.498C354.244 584.587 352.704 551.368 363.487 517.853C368.655 501.774 387.189 473.208 405.684 475.824ZM440.346 603.326C444.717 606.467 448.679 609.316 452.334 597.948C451.158 555.652 437.6 528.654 416.472 527.632C427.747 542.197 438.559 556.413 439.472 576.132C434.742 573.978 431.7 570.59 428.784 567.342C426.753 565.08 424.784 562.886 422.348 561.226C421.31 560.518 420.295 559.735 419.271 558.946C414.544 555.301 409.636 551.516 401.471 554.357C405.301 560.187 410.575 564.301 415.799 568.377C421.832 573.083 427.798 577.737 431.392 584.919C420.777 592.561 416.209 602.62 421.718 614.761C426.497 625.296 433.565 634 447.565 634.635C447.043 628.31 442.868 623.708 438.812 619.235C433.879 613.796 429.121 608.55 431.316 600.635C434.515 599.133 437.516 601.291 440.346 603.326Z" fill="black"/>
<path d="M1293.64 1544H85.233L93.8453 1480.73C93.8453 1480.73 16.2365 1454.29 8.46542 1438.97C0.694364 1423.65 92.6352 1224.83 105.244 1193.36C117.853 1161.89 182.22 1050.6 220.347 1029.34C262.731 1005.71 401.998 942.56 409.903 936.183C436.023 915.114 492.579 893.383 492.579 893.383V924.11L664.004 1205.01L674.339 1242.93C674.339 1242.93 777.866 961.887 787.654 904.967C795.9 857.012 907.521 915.114 907.521 915.114C907.521 915.114 1021.65 985.678 1050.45 1008.41C1108.94 1054.55 1190.46 1146.96 1231.24 1247.56C1254.36 1304.55 1303.67 1415.82 1311.78 1428.88C1319.9 1441.94 1284.8 1464.93 1284.8 1464.93L1293.64 1544Z" fill="white"/>
<path fill-rule="evenodd" clip-rule="evenodd" d="M1046.53 1015.09L1046.51 1015.07C1022.37 995.143 998.246 975.219 971.423 959.794C967.524 957.551 963.661 955.223 959.792 952.891C946.629 944.958 933.392 936.981 918.386 932.168C916.585 942.409 917.041 952.176 917.859 961.757C921.882 1008.87 923.598 1055.87 918.074 1103.07C916.726 1114.59 916.994 1126.37 917.261 1138.12C917.354 1142.21 917.447 1146.3 917.471 1150.37C917.451 1157.19 916.548 1163.96 914.791 1170.48C912.444 1179.65 908.106 1183.68 898.8 1184.36C890.499 1184.97 882.249 1186.27 873.995 1187.57C860.66 1189.68 847.314 1191.78 833.729 1190.99C830.908 1190.82 828.076 1190.89 826.363 1190.93L826.361 1190.93C825.833 1190.94 825.412 1190.95 825.13 1190.95C826.178 1192.3 827.349 1193.78 828.6 1195.36L828.603 1195.36C831.801 1199.39 835.519 1204.07 839.006 1208.97C844.543 1216.74 845.689 1223.43 840.5 1233.89C814.491 1286.35 779.583 1331.23 741.947 1372.16C729.844 1385.32 718.543 1399.36 707.245 1413.4L707.245 1413.4C688.51 1436.69 669.784 1459.96 647.425 1479.16C636.099 1488.89 625.871 1500.05 615.567 1511.29L615.566 1511.29L615.565 1511.29C605.462 1522.31 595.287 1533.41 583.935 1543.32C570.566 1543.98 557.671 1543.98 543.719 1543.98H543.715C550.132 1531.17 555.313 1517.52 560.52 1503.79C565.177 1491.52 569.856 1479.2 575.459 1467.36C585.342 1446.48 594.008 1424.8 602.23 1403C608.258 1387.01 608.525 1370.79 598.022 1356.22C594.195 1350.92 590.388 1345.59 586.581 1340.27C566.154 1311.7 545.728 1283.13 522.35 1257.45C511.813 1245.88 509.345 1227.49 516.093 1210.52C517.78 1206.28 519.336 1201.98 520.9 1197.65L520.902 1197.64C521.599 1195.71 522.297 1193.78 523.009 1191.85C509.089 1185.77 494.92 1185.46 480.863 1185.15C474.229 1185 467.62 1184.86 461.075 1184.11C460.604 1184.05 460.144 1184 459.692 1183.95C438.139 1181.49 437.795 1181.45 430.085 1157.74C413.666 1107.15 403.06 1054.39 398.526 1000.76C397.286 986.374 394.89 971.401 388.618 957.267C365.757 966.619 344.037 977.088 322.286 987.572L322.286 987.573L321.393 988.003C296.554 999.974 272.117 1012.86 247.84 1026.15C211.803 1045.86 183.685 1075.95 160.826 1112.69L160.318 1113.51L160.317 1113.51C143.633 1140.33 126.958 1167.14 113.861 1196.54C105.997 1214.19 98.0054 1231.77 90.0136 1249.36L90.0115 1249.36L90.0071 1249.37C85.5587 1259.16 81.1103 1268.94 76.6839 1278.74C73.2001 1286.45 69.689 1294.15 66.178 1301.85L66.1745 1301.86L66.1738 1301.86C56.9953 1321.98 47.8166 1342.1 39.1224 1362.49C31.8043 1379.64 24.9369 1397.07 18.7823 1414.89C14.728 1426.63 18.6894 1431.84 27.1416 1434.98C32.1414 1436.83 37.1297 1438.84 42.1221 1440.84C56.4037 1446.58 70.7196 1452.33 85.4381 1454.69C105.413 1457.88 123.349 1466.16 141.361 1474.47L141.363 1474.47L142.671 1475.07C143.155 1475.3 143.639 1475.52 144.123 1475.74C174.379 1489.67 204.147 1505 233.87 1520.35C245.614 1526.42 256.786 1533.9 268.317 1541.62L268.317 1541.62C269.036 1542.1 269.756 1542.58 270.477 1543.06C260.895 1543.94 251.27 1544.04 241.675 1543.38C215.277 1528.09 188.065 1517.12 160.815 1506.13L160.815 1506.13C141.41 1498.31 121.986 1490.48 102.825 1481.07C101.412 1488.67 99.7945 1495.82 98.2331 1502.72C95.0088 1516.97 92.0247 1530.16 91.5803 1543.98H78.9541C76.8176 1536.77 78.3547 1530.01 79.8946 1523.24L79.8948 1523.24C80.3141 1521.39 80.7336 1519.55 81.0792 1517.69C83.1776 1506.42 82.3258 1498.02 69.7138 1495.55C51.2303 1491.94 35.6105 1480.79 20.0936 1469.72C18.4496 1468.55 16.8068 1467.38 15.1618 1466.22C3.05982 1457.67 -0.707665 1440.02 3.90541 1419.13C9.07222 1395.72 18.3089 1374.25 27.5582 1352.74C27.9902 1351.74 28.4223 1350.73 28.8541 1349.73C45.1604 1311.77 62.1392 1274.18 79.11 1236.61L79.1118 1236.61C83.5885 1226.69 88.0646 1216.78 92.5277 1206.87C118.241 1149.75 148.009 1094.85 190.033 1050.46C210.958 1028.35 235.083 1011.62 261.72 998.735C269.536 994.955 277.317 991.068 285.1 987.18L285.1 987.18C305.079 977.2 325.061 967.217 345.622 959.045C364.873 951.392 373.548 941.951 382.028 932.723C391.001 922.958 399.755 913.431 420.593 906.515C425.239 904.973 429.858 903.347 434.471 901.722C451.32 895.79 468.099 889.882 485.886 888.193C486.211 888.163 486.556 888.146 486.907 888.129C488.165 888.07 489.495 888.006 490.261 887.266C490.386 887.145 490.511 887.024 490.636 886.903C494.682 882.984 498.883 878.914 503.543 885.273C507.755 891.022 508.036 899.079 504.517 904.523C497.52 915.347 501.358 925.501 504.9 934.87L504.92 934.921C505.025 935.2 505.13 935.478 505.235 935.755C513.567 957.866 565.448 1045.34 583.935 1070.42C585.439 1072.46 587.433 1075.11 589.82 1078.29L589.821 1078.29C610.829 1106.24 662.263 1174.67 677.775 1221.96C684.031 1209.88 688.373 1197.05 692.689 1184.31L692.69 1184.3C694.393 1179.27 696.092 1174.25 697.903 1169.3C708.352 1140.72 717.857 1111.68 727.14 1082.58C730.791 1071.13 734.055 1059.53 737.318 1047.93L737.319 1047.93L737.321 1047.92C739.964 1038.52 742.608 1029.12 745.458 1019.81C749.767 1005.72 754.288 991.721 758.809 977.718L758.811 977.712L758.813 977.705C761.845 968.312 764.878 958.919 767.847 949.501C769.86 943.113 771.774 936.685 773.688 930.258L773.691 930.249C775.823 923.092 777.954 915.935 780.222 908.833C788.472 883.002 790.59 878.32 814.172 879.074C843.432 880.013 877.784 890.431 897.803 898.849C993.881 939.243 1146.34 1039.39 1217.46 1189.03C1241.28 1239.15 1260.78 1288.29 1277.05 1329.3C1294.5 1373.27 1308.24 1407.9 1319.62 1424.38C1329.18 1438.23 1328.12 1446.35 1315.62 1456.4C1314.01 1457.7 1312.47 1459.12 1310.93 1460.54C1306.96 1464.19 1302.99 1467.86 1297.73 1469.46C1292.14 1471.17 1290.43 1476.05 1291.18 1482.45C1293.51 1502.24 1295.67 1522.05 1297.68 1542.91C1293.58 1543.98 1289.69 1543.98 1284.41 1543.01C1280.36 1533.78 1280.61 1525.07 1280.85 1516.49L1280.85 1516.47C1280.86 1516.13 1280.87 1515.79 1280.88 1515.46C1281.3 1500.01 1277.31 1485.8 1273.14 1470.91C1272.13 1467.33 1271.12 1463.72 1270.15 1460.03C1266.79 1461.42 1263.46 1462.66 1260.18 1463.88C1253.16 1466.49 1246.41 1469 1240.17 1472.65C1216 1486.82 1190.79 1497.68 1164.12 1503.22C1143.2 1507.56 1133.61 1520.34 1136.53 1543.97C1131.47 1544.12 1126.4 1543.72 1121.4 1542.8C1119.39 1501.13 1144.63 1491.19 1177.18 1478.39C1180.98 1476.89 1184.89 1475.35 1188.86 1473.72C1236.32 1454.23 1296.9 1426.52 1296.9 1426.52C1296.9 1426.52 1235.76 1282.61 1214.35 1228.31C1172.31 1121.72 1066.66 1031.58 1063.19 1028.77C1057.61 1024.24 1052.07 1019.67 1046.53 1015.09ZM731.261 1116.23C715.633 1163.77 697.922 1210.36 679.741 1256.7C665.775 1292.28 650.538 1327.25 635.314 1362.19L633.754 1365.77C628.346 1378.18 623.21 1390.74 618.073 1403.3L618.072 1403.3C610.615 1421.53 603.157 1439.76 594.864 1457.56C588.153 1471.97 582.373 1486.92 576.593 1501.88L576.592 1501.88C573.96 1508.69 571.329 1515.5 568.609 1522.26C568.447 1522.66 568.271 1523.07 568.095 1523.47C566.923 1526.17 565.734 1528.9 568.483 1531.46C570.608 1533.43 572.85 1531.96 574.695 1530.47C577.136 1528.51 579.472 1526.39 581.69 1524.11C586.057 1519.63 590.401 1515.11 594.745 1510.6L594.76 1510.58L594.768 1510.57C600.858 1504.24 606.947 1497.91 613.1 1491.66C619.575 1485.08 626.094 1478.56 632.614 1472.04L632.618 1472.03C643.197 1461.45 653.776 1450.86 664.166 1440.04C671.678 1432.22 678.208 1423.3 684.722 1414.41C691.677 1404.91 698.614 1395.43 706.706 1387.35C727.839 1366.24 747.718 1344.11 765.541 1319.48C771.741 1310.91 778.203 1302.58 784.665 1294.26C799.006 1275.78 813.349 1257.29 824.84 1236.16C829.969 1226.72 831.215 1220.06 822.428 1212.37C815.718 1206.49 810.113 1198.85 804.625 1191.37C804.379 1191.04 804.133 1190.7 803.887 1190.37C803.772 1190.21 803.656 1190.05 803.539 1189.9C800.431 1185.68 796.858 1180.84 800.338 1174.19C807.749 1173.29 815.199 1172.88 822.651 1172.95C843.659 1173.04 864.676 1172.22 885.681 1171.4C886.908 1171.35 888.136 1171.3 889.363 1171.25C896.599 1170.97 901.278 1166.91 901.621 1157.88C901.954 1149.13 902.447 1140.4 902.94 1131.66C903.095 1128.92 903.25 1126.18 903.399 1123.44C903.856 1115.08 904.388 1106.73 904.92 1098.38C906.732 1069.93 908.544 1041.49 907.369 1012.86C906.375 988.592 905.964 964.175 907.288 939.966C907.951 927.844 904.006 922.283 895.625 917.017C872.005 902.177 846.127 898.657 820.193 895.13C816.341 894.606 812.487 894.082 808.639 893.52C801.963 892.546 799.791 896.879 798.131 902.255C796.502 907.533 794.639 912.7 792.776 917.871L792.775 917.871C789.98 925.627 787.182 933.389 785.165 941.543C781.866 954.875 777.181 967.678 772.498 980.478L772.497 980.481C769.695 988.138 766.894 995.794 764.39 1003.56C759.759 1017.94 755.695 1032.54 751.593 1047.27L751.593 1047.27C745.716 1068.38 739.763 1089.77 731.953 1111.18C731.876 1112.88 731.644 1114.58 731.261 1116.23ZM490.602 944.229C490.783 944.631 490.963 945.031 491.141 945.43C507.641 982.271 587.347 1102.07 618.879 1145.88C620.219 1147.74 621.746 1149.81 623.408 1152.07C639.913 1174.44 669.684 1214.81 661.38 1247.65C653.049 1280.6 642.389 1313.43 627.468 1343.63C626.516 1345.56 625.87 1347.67 625.213 1349.81C623.927 1354.01 622.602 1358.33 618.879 1361.61C605.905 1339.55 590.622 1319.65 575.339 1299.74C568.415 1290.72 561.49 1281.7 554.781 1272.48C549.976 1265.88 544.621 1259.86 539.259 1253.82C534.802 1248.81 530.34 1243.79 526.182 1238.43C521.061 1231.82 521.59 1227.52 524.829 1222.09C528.339 1216.21 530.539 1209.72 532.734 1203.24C533.351 1201.42 533.967 1199.6 534.611 1197.8C539.27 1184.77 536.081 1177.98 523.837 1174.15C515.334 1171.48 506.632 1171.44 497.925 1171.39C492.333 1171.36 486.738 1171.33 481.194 1170.6C480.574 1170.52 479.937 1170.66 479.295 1170.79C478.807 1170.89 478.316 1171 477.829 1171C450.031 1171.47 447.601 1168.98 438.685 1140.17C426.424 1100.48 418.138 1059.37 413.982 1017.59C413.099 1008.85 411.431 1000.21 409.759 991.551C408.306 984.027 406.85 976.486 405.903 968.841C403.945 953.025 406.435 947.314 419.226 941.783C433.815 935.474 438.309 929.114 442.421 923.296C447.002 916.813 451.11 911.001 468.179 906.678L468.379 906.627C481.685 903.258 482.641 903.015 483.18 919.055C483.494 928.406 487.173 936.595 490.602 944.229Z" fill="black"/>
<path d="M1017.04 345.941C1030.75 379.281 1031.53 411.641 1017.66 444.274C1005.05 473.947 992.405 503.643 981.088 533.821C967.733 569.436 973.424 603.37 991.088 636.745C1012.04 676.331 1035.89 714.561 1049.26 757.921C1062.37 800.447 1067.57 843.354 1049.81 885.113C1034.55 920.99 1016.18 955.566 978.711 974.864C948.498 990.422 917.735 993.206 884.839 985.436C848.839 976.936 822.483 954.089 796.206 930.404C780.806 916.521 765.292 902.641 748.776 890.152C736.169 880.618 728.419 867.416 718.404 855.94C716.823 854.127 716.504 852.04 717.856 850.112C719.237 848.14 721.225 848.259 723.523 848.832C775.648 861.812 809.833 834.844 839.732 797.227C870.425 758.612 888.854 714.279 901.613 667.314C916.76 611.554 924.296 554.575 920.563 496.934C918.63 467.083 914.222 437.192 906.154 407.882C897.628 376.911 886.423 347.676 867.98 321.215C861.633 312.108 853.318 305.07 846.11 295.56C828.738 315.034 808.749 330.307 788.476 344.951C746.824 375.039 701.131 397.598 653.265 416.38C610.731 433.07 565.313 438.113 522.102 451.77C507.296 456.325 494.755 466.3 486.983 479.701C473.338 503.021 468.131 528.729 473.135 555.824C474.09 560.994 475.969 567.272 468.928 568.155C462.403 568.973 463.688 561.955 462.52 557.747C457.66 540.233 454.289 522.352 447.486 505.318C439.886 486.286 415.724 471.88 398.473 477.271C386.806 480.916 379.901 490.334 376.158 500.403C365.436 529.242 360.422 559.069 364.558 590.158C367.312 610.887 378.75 626.885 390.268 643.037C406.068 665.187 416.313 668.098 442.107 660.469C450.622 657.951 454.492 652.249 458.358 645.557C460.044 642.638 461.971 639.116 465.958 639.857C469.897 640.536 473.056 643.491 473.995 647.377C482.044 683.755 494.286 719.248 495.484 757.058C497.248 812.74 448.534 863.412 395.971 864.34C363.071 864.92 330.963 860.215 298.663 855.375C276.318 851.961 253.532 852.741 231.472 857.675C207.641 863.005 184.558 869.315 164.914 884.835C159.606 889.028 155.343 886.935 151.676 880.76C131.885 847.414 113.285 813.63 103.076 775.809C89.9521 727.194 84.1471 678.93 97.8961 628.875C103.404 608.822 108.096 588.775 117.304 570.154C134.061 536.286 156.325 506.779 187.904 485.19C222.904 461.259 258.088 437.603 293.112 413.711C322.068 393.958 344.04 367.639 363.094 338.623C397.562 286.137 436.907 237.792 486.805 199.174C521.547 172.285 559.305 149.807 602.418 139.367C633.023 131.841 664.814 130.448 695.96 135.267C719.641 138.929 742.46 143.683 763.268 155.627C775.677 162.751 788.468 169.748 799.326 178.894C811.634 189.262 825.798 195.172 840.372 200.026C880.239 213.305 917.03 232.113 949.665 258.583C978.672 282.111 1003.67 308.96 1017.04 345.941Z" fill="black"/>
<path d="M768.626 756.092C776.032 755.221 784.377 757.976 791.184 750.431C773.241 747.965 756.39 744.861 737.012 750.709C747.718 757.981 756.907 758.14 768.626 756.092Z" fill="white"/>
<path d="M801.718 548.419C796.848 576.086 799.318 602.227 804.959 628.644C809.746 651.049 789.782 683.018 758.177 678.325C747.229 676.699 740.75 670.183 736.93 660.476C735.25 656.205 735.357 651.676 740.23 649.541C744.223 647.79 747.643 649.297 749.63 653.514C754.404 663.63 763.014 662.94 771.492 660.397C781.127 657.507 787.938 650.797 788.625 640.54C789.344 630.373 788.795 620.156 786.989 610.125C781.437 579.614 784.089 549.585 795.77 520.569C798.034 514.946 801.183 509.709 807.676 512.292C815.158 515.269 809.452 521.057 808.424 525.421C806.675 532.844 804.221 540.101 801.718 548.419Z" fill="black"/>
<path d="M853.622 588.952C849.436 579.521 843.739 573.786 833.764 573.304C827.832 573.018 826.764 568.198 824.902 563.485C826.887 561.985 828.436 559.819 830.161 559.669C851.31 557.977 872.558 557.941 893.712 559.562C899.744 559.985 903.012 567.636 896.928 570.029C886.842 573.997 884.411 583.24 878.371 589.844C870.224 598.751 863.191 598.941 853.622 588.952Z" fill="black"/>
<path d="M662.644 559.44C674.781 560.089 685.744 560.369 696.633 561.379C700.215 561.711 704.623 563.202 704.648 568.079C704.678 573.733 700.027 573.289 696.296 573.234C689.979 573.142 686.566 575.914 683.83 581.808C680.402 589.195 676.905 597.118 665.799 596.569C655.327 596.051 650.687 589.424 647.655 581.377C645.521 575.714 642.755 572.977 636.713 573.194C633.337 573.314 629.596 573.045 629.206 568.323C628.79 563.29 632.206 562.285 636.244 561.145C644.579 558.788 652.933 558.411 662.644 559.44Z" fill="black"/>
<path fill-rule="evenodd" clip-rule="evenodd" d="M806.147 503.062C854.011 468.003 912.508 487.497 930.347 540.062C941.781 573.743 927.205 618.304 886.21 633.149C844.625 648.207 808.382 634.69 787.969 596.814C783.255 588.066 781.241 578.179 780.393 568.766C779.355 557.254 774.711 551.666 763.739 550.24C751.291 548.62 743.197 553.808 739.221 565.551C737.916 569.406 737.177 573.361 736.434 577.337L736.434 577.338C735.559 582.018 734.678 586.729 732.863 591.344C711.697 645.121 643.583 656.095 603.894 613.974C595.404 604.964 590.706 593.156 587.05 581.414C582.138 565.631 572.54 555.865 556.624 550.506C536.856 543.851 517.276 536.635 497.696 529.419L497.696 529.419L497.696 529.419C486.601 525.33 475.506 521.241 464.376 517.253C458.729 515.23 452.694 512.885 455.704 506.043C457.93 500.977 461.653 502.604 465.396 504.24L465.396 504.24C466.529 504.736 467.663 505.232 468.759 505.543C485.953 510.416 502.54 516.982 519.123 523.546C535.654 530.09 552.181 536.633 569.304 541.495C579.759 544.464 588.26 539.168 591.804 530.36C603.378 501.58 626.931 487.515 654.813 485.818C689.36 483.718 717.531 498.67 731.85 532.985C732.726 535.084 733.86 537.076 735.008 539.094C735.551 540.047 736.096 541.006 736.62 541.985C751.792 535.752 766.544 536.185 782.18 542.612C785.849 526.826 794.618 514.584 806.147 503.062ZM682.839 622.438C707.086 612.425 722.87 594.944 725.839 568.645C731.421 519.245 683.722 485.385 636.59 503.406C600.258 517.297 584.69 565.421 608.915 598.539C627.264 623.619 651.724 629.821 682.839 622.438ZM867.598 498.076C887.089 499.739 901.248 513.213 912.317 529.145C926.456 552.796 923.634 584.408 901.209 608.191C886.507 623.784 853.34 631.394 831.019 621.11C806.128 609.642 789.5 585.396 793.419 555.401C799.32 510.242 833.35 495.154 867.598 498.076Z" fill="black"/>
<path d="M651.48 492.562C661.909 488.017 671.236 481.279 678.828 472.807C681.547 469.76 684.904 467.069 688.659 467.723C695.425 468.902 704.886 466.897 707.459 475.264C709.628 482.308 702.282 485.764 697.177 489.664C683.363 500.208 668.998 508.671 650.595 506.435C645.961 505.871 640.909 506.649 639.504 500.209C641.18 494.698 646.894 495.345 651.48 492.562Z" fill="black"/>
<path d="M849.415 470.056C857.884 468.349 861.996 474.131 866.528 478.228C874.643 485.565 881.241 494.618 892.503 497.972C895.803 498.955 898.214 501.972 896.459 506.057C894.977 509.503 892.415 511.699 888.412 510.622C874.191 506.793 859.325 504.746 847.907 493.816C837.809 484.15 837.679 479.796 849.415 470.056Z" fill="black"/>
<path d="M758.944 756.05C763.831 741.766 763.093 739.809 749.18 737.339C738.994 735.532 729.852 731.044 720.186 727.939C709.3 724.444 702.168 714.145 690.713 711.425C684.705 741.199 724.446 767.928 758.944 756.05Z" fill="white"/>
<path fill-rule="evenodd" clip-rule="evenodd" d="M687.64 751.643C706.092 768.8 728.301 777.148 755.061 772.828C757.277 771.912 759.426 771.083 761.509 770.279C766.254 768.449 770.655 766.751 774.718 764.457C779.861 761.557 784.023 755.328 779.518 750.682C769.587 740.44 774.567 734.533 783.512 728.549C787.408 725.942 789.92 722.304 787.842 717.772C785.111 711.808 779.838 713.975 775.711 715.732C770.871 717.792 765.929 718.308 760.875 718.836C760.045 718.923 759.212 719.01 758.376 719.104C733.618 721.894 713.536 710.198 693.572 698.571C693.392 698.466 693.211 698.36 693.03 698.255C681.226 691.381 674.02 693.697 672.487 707.475C670.619 724.274 675.28 740.149 687.64 751.643ZM749.179 737.343C763.092 739.813 763.83 741.77 758.943 756.054L758.944 756.05C724.446 767.928 684.705 741.199 690.712 711.429C696.776 712.869 701.629 716.433 706.468 719.987C710.77 723.146 715.062 726.298 720.185 727.943C723.467 728.997 726.689 730.211 729.911 731.425C736.18 733.787 742.452 736.15 749.179 737.343Z" fill="black"/>
</g>
</svg>
