<svg width="1392" height="1392" viewBox="0 0 1392 1392" fill="none" xmlns="http://www.w3.org/2000/svg">
<mask id="mask0_206_3580" style="mask-type:luminance" maskUnits="userSpaceOnUse" x="0" y="0" width="1392" height="1392">
<circle cx="696" cy="696" r="696" fill="white"/>
</mask>
<g mask="url(#mask0_206_3580)">
<path d="M989.906 1184.21C890.844 1481.12 626.203 1572.81 486.271 1204.03C467.028 1153.32 517.342 1134.44 552.529 1112.12C576.631 1096.84 589.292 1083.58 587.824 1069.92C580.896 1005.44 550.903 826.062 550.903 826.062L547.852 820.283C547.852 820.283 548.583 818.663 545.712 821.528C542.72 824.515 535.819 855.705 508.622 855.705C484.238 855.705 459.483 844.805 447.636 769.376C443.349 742.079 445.782 670.516 475.989 657.593C488.472 652.253 499.988 650.345 511.222 656.753C522.456 663.161 498.26 634.847 623.209 530.722C704.427 463.039 832.717 453.119 884.484 464.547C936.25 475.974 988.016 501.314 1010.91 554.974C1038.69 620.083 985.029 669.249 996.816 817.533C994.668 871.107 997.743 988.688 850.314 1028.1C822.313 1035.58 831 1076.49 873 1086.49C940 1107.49 989.959 1158.76 989.959 1184.35" fill="white"/>
<path fill-rule="evenodd" clip-rule="evenodd" d="M989.943 722.69L990.102 721.296C994.243 684.889 998.256 649.608 1017.24 617.919C1023.7 622.34 1022.95 627.942 1020.93 633.133C1001.01 684.336 1002.84 737.53 1004.67 790.696C1004.83 795.353 1004.99 800.009 1005.14 804.664C1007.22 871.091 990.648 931.478 946.354 982.226C930.981 999.838 910.632 1011.95 889.854 1022.54C868.515 1033.4 864.03 1042.62 870.687 1066.09C870.93 1066.95 871.229 1067.81 871.529 1068.67C872.892 1072.59 874.273 1076.56 870.487 1080.44C865.965 1085.07 861.026 1083.75 855.683 1082.32C855.48 1082.27 855.277 1082.21 855.074 1082.16C804.733 1068.73 759.697 1044.64 718.056 1013.88C712.139 1009.51 707.272 1003.55 702.561 997.78L702.561 997.78L702.256 997.406C699.776 994.369 699.338 989.631 702.807 986.952C706.054 984.445 708.609 986.501 711.452 988.788C711.815 989.08 712.182 989.376 712.556 989.666C735.027 1007.1 759.773 1018.55 788.768 1021.43C802.176 1022.77 815.448 1022.27 828.708 1021.78H828.708H828.709C836.17 1021.51 843.626 1021.23 851.101 1021.28C861.34 1021.35 869.752 1016.6 877.761 1012.07C878.712 1011.54 879.658 1011 880.601 1010.48C908.446 995.035 934.883 977.719 952.836 949.821C968.922 924.821 978.665 897.59 984.402 868.933C991.645 832.76 990.989 796.191 990.324 759.111C990.107 747.026 989.889 734.887 989.943 722.69ZM486.684 647.314C508.577 645.554 520.771 658.523 531.037 673.543C543.664 692.016 550.39 712.955 553.37 735.062C553.87 738.77 554.389 742.713 552.152 746.346C547.737 746.94 547.319 743.436 547.252 740.807C546.696 720.134 537.526 702.1 528.308 684.646C521.73 672.194 512.059 660.13 496.943 657.067C479.71 653.574 463.858 669.056 456.067 689.332C441.636 726.888 444.029 763.85 457.455 800.249C463.33 816.177 470.648 832.403 485.303 843.516C500.142 854.77 518.008 852.785 528.903 837.839C529.526 836.985 530.184 836.139 530.845 835.291L530.845 835.291L530.845 835.291C532.841 832.728 534.853 830.146 535.928 827.239C538.035 821.539 541.256 816.119 547.155 816.913C553.978 817.832 555.271 825.219 555.909 830.989C561.707 883.418 569.758 935.514 577.81 987.616L577.81 987.616C579.808 1000.54 581.806 1013.47 583.769 1026.4C586.369 1043.51 589.381 1068.09 587.361 1078.54C587.219 1079.28 587.136 1080.01 587.058 1080.71C586.749 1083.45 586.496 1085.7 582.906 1086.24C578.034 1086.97 575.831 1084.15 575.233 1079.77C572.913 1062.76 572.273 1056.24 571.275 1030.23C570.308 1005.01 565.569 980.155 560.83 955.306L560.83 955.305C559.111 946.29 557.392 937.275 555.853 928.243C550.613 897.486 545.483 866.292 545.022 831.267C544.326 832.298 543.644 833.315 542.974 834.316C535.426 845.586 529.264 854.785 518.48 858.367C500.58 864.317 484.917 859.912 472.371 845.767C458.071 829.645 448.783 811.298 443.558 789.988C435.244 756.077 433.704 722.858 444.487 689.343C449.655 673.264 468.189 644.698 486.684 647.314ZM521.346 774.816C525.717 777.957 529.679 780.806 533.334 769.438C532.158 727.142 518.6 700.144 497.472 699.122C508.747 713.687 519.559 727.903 520.472 747.622C515.742 745.468 512.7 742.08 509.784 738.832C507.753 736.57 505.784 734.376 503.348 732.716C502.31 732.009 501.295 731.226 500.271 730.436C495.544 726.791 490.636 723.006 482.471 725.847C486.301 731.677 491.575 735.792 496.799 739.867C502.832 744.574 508.798 749.228 512.392 756.409C501.777 764.051 497.209 774.11 502.718 786.251C507.497 796.786 514.565 805.49 528.565 806.125C528.043 799.801 523.868 795.198 519.812 790.725C514.879 785.286 510.121 780.04 512.316 772.125C515.515 770.624 518.516 772.781 521.346 774.816Z" fill="black"/>
<path d="M1374.64 1715.49H166.233L174.845 1652.22C174.845 1652.22 97.2365 1625.78 89.4654 1610.46C81.6944 1595.14 173.635 1396.32 186.244 1364.85C198.853 1333.38 263.22 1222.09 301.347 1200.83C343.731 1177.2 482.998 1114.05 490.903 1107.67C517.023 1086.6 573.579 1064.87 573.579 1064.87V1095.6L745.004 1376.5L755.339 1414.42C755.339 1414.42 858.866 1133.38 868.654 1076.46C876.9 1028.5 988.521 1086.6 988.521 1086.6C988.521 1086.6 1102.65 1157.17 1131.45 1179.9C1189.94 1226.04 1271.46 1318.45 1312.24 1419.05C1335.36 1476.04 1384.67 1587.31 1392.78 1600.37C1400.9 1613.43 1365.8 1636.42 1365.8 1636.42L1374.64 1715.49Z" fill="white"/>
<path fill-rule="evenodd" clip-rule="evenodd" d="M1127.53 1186.58L1127.51 1186.56C1103.37 1166.63 1079.25 1146.71 1052.42 1131.28C1048.52 1129.04 1044.66 1126.71 1040.79 1124.38C1027.63 1116.45 1014.39 1108.47 999.386 1103.66C997.585 1113.9 998.041 1123.67 998.859 1133.25C1002.88 1180.36 1004.6 1227.36 999.074 1274.56C997.726 1286.08 997.994 1297.86 998.261 1309.61C998.354 1313.7 998.447 1317.79 998.471 1321.87C998.451 1328.68 997.548 1335.45 995.791 1341.97C993.444 1351.14 989.106 1355.17 979.8 1355.85C971.499 1356.46 963.249 1357.76 954.995 1359.06C941.66 1361.17 928.314 1363.27 914.729 1362.48C911.908 1362.31 909.076 1362.38 907.363 1362.42L907.361 1362.42C906.833 1362.43 906.412 1362.44 906.13 1362.44C907.178 1363.79 908.349 1365.27 909.6 1366.85L909.603 1366.85C912.801 1370.88 916.519 1375.56 920.006 1380.46C925.543 1388.23 926.689 1394.92 921.5 1405.38C895.491 1457.84 860.583 1502.72 822.947 1543.65C810.844 1556.81 799.543 1570.85 788.245 1584.89L788.245 1584.89C769.51 1608.18 750.784 1631.46 728.425 1650.66C717.099 1660.38 706.871 1671.54 696.567 1682.78L696.566 1682.78L696.565 1682.78C686.462 1693.8 676.287 1704.9 664.935 1714.81C651.566 1715.47 638.671 1715.47 624.719 1715.47H624.715C631.132 1702.66 636.313 1689.01 641.52 1675.29C646.177 1663.01 650.856 1650.69 656.459 1638.85C666.342 1617.97 675.008 1596.29 683.23 1574.49C689.258 1558.5 689.525 1542.28 679.022 1527.71C675.195 1522.41 671.388 1517.08 667.581 1511.76C647.154 1483.19 626.728 1454.62 603.35 1428.94C592.813 1417.37 590.345 1398.98 597.093 1382.01C598.78 1377.77 600.336 1373.47 601.9 1369.14L601.902 1369.13C602.599 1367.2 603.297 1365.27 604.009 1363.34C590.089 1357.26 575.92 1356.95 561.863 1356.64C555.229 1356.49 548.62 1356.35 542.075 1355.6C541.604 1355.54 541.144 1355.49 540.692 1355.44C519.139 1352.98 518.795 1352.94 511.085 1329.23C494.666 1278.64 484.06 1225.88 479.526 1172.25C478.286 1157.86 475.89 1142.89 469.618 1128.76C446.757 1138.11 425.037 1148.58 403.286 1159.06L403.286 1159.06L402.393 1159.49C377.554 1171.46 353.117 1184.35 328.84 1197.64C292.803 1217.35 264.685 1247.44 241.826 1284.19L241.318 1285L241.317 1285C224.633 1311.82 207.958 1338.63 194.861 1368.03C186.997 1385.68 179.005 1403.26 171.014 1420.85L171.011 1420.85L171.007 1420.86C166.559 1430.65 162.11 1440.43 157.684 1450.23C154.2 1457.94 150.689 1465.64 147.178 1473.34L147.174 1473.35L147.174 1473.35C137.995 1493.47 128.817 1513.59 120.122 1533.98C112.804 1551.13 105.937 1568.56 99.7823 1586.38C95.728 1598.12 99.6894 1603.33 108.142 1606.47C113.141 1608.32 118.13 1610.33 123.122 1612.33C137.404 1618.07 151.72 1623.82 166.438 1626.18C186.413 1629.37 204.349 1637.65 222.361 1645.96L222.363 1645.96L223.671 1646.56C224.155 1646.79 224.639 1647.01 225.123 1647.23C255.379 1661.17 285.147 1676.49 314.87 1691.84C326.614 1697.91 337.786 1705.39 349.317 1713.11L349.317 1713.11C350.036 1713.59 350.756 1714.07 351.477 1714.55C341.895 1715.43 332.27 1715.53 322.675 1714.87C296.277 1699.58 269.065 1688.61 241.815 1677.62L241.815 1677.62C222.41 1669.8 202.986 1661.97 183.825 1652.56C182.412 1660.16 180.795 1667.31 179.233 1674.21C176.009 1688.46 173.025 1701.65 172.58 1715.47H159.954C157.818 1708.26 159.355 1701.5 160.895 1694.73L160.895 1694.73C161.314 1692.88 161.734 1691.04 162.079 1689.18C164.178 1677.91 163.326 1669.51 150.714 1667.04C132.23 1663.43 116.61 1652.28 101.094 1641.21C99.4496 1640.04 97.8068 1638.87 96.1618 1637.71C84.0598 1629.16 80.2923 1611.51 84.9054 1590.62C90.0722 1567.21 99.3089 1545.74 108.558 1524.23C108.99 1523.23 109.422 1522.22 109.854 1521.22C126.16 1483.26 143.139 1445.67 160.11 1408.1L160.112 1408.1C164.589 1398.18 169.065 1388.27 173.528 1378.36C199.241 1321.24 229.009 1266.34 271.033 1221.95C291.958 1199.84 316.083 1183.11 342.72 1170.23C350.536 1166.45 358.317 1162.56 366.1 1158.67L366.1 1158.67C386.079 1148.69 406.061 1138.71 426.622 1130.53C445.873 1122.88 454.548 1113.44 463.028 1104.21C472.001 1094.45 480.755 1084.92 501.593 1078C506.239 1076.46 510.858 1074.84 515.471 1073.21C532.32 1067.28 549.099 1061.37 566.886 1059.68C567.211 1059.65 567.556 1059.64 567.907 1059.62C569.165 1059.56 570.495 1059.5 571.261 1058.76C571.386 1058.64 571.511 1058.51 571.636 1058.39C575.682 1054.47 579.883 1050.4 584.543 1056.76C588.755 1062.51 589.036 1070.57 585.517 1076.01C578.52 1086.84 582.358 1096.99 585.9 1106.36L585.92 1106.41C586.025 1106.69 586.13 1106.97 586.235 1107.25C594.567 1129.36 646.448 1216.83 664.935 1241.91C666.439 1243.95 668.433 1246.6 670.82 1249.78L670.821 1249.78C691.829 1277.73 743.263 1346.16 758.775 1393.45C765.031 1381.37 769.373 1368.54 773.689 1355.8L773.69 1355.79C775.393 1350.76 777.092 1345.74 778.903 1340.79C789.352 1312.21 798.857 1283.17 808.14 1254.07C811.791 1242.62 815.055 1231.02 818.318 1219.42L818.319 1219.42L818.321 1219.41C820.964 1210.01 823.608 1200.62 826.458 1191.3C830.767 1177.21 835.288 1163.21 839.809 1149.21L839.811 1149.2L839.813 1149.2C842.845 1139.8 845.878 1130.41 848.847 1120.99C850.86 1114.6 852.774 1108.18 854.688 1101.75L854.691 1101.74C856.823 1094.58 858.954 1087.42 861.222 1080.32C869.472 1054.49 871.59 1049.81 895.172 1050.56C924.432 1051.5 958.784 1061.92 978.803 1070.34C1074.88 1110.73 1227.34 1210.88 1298.46 1360.52C1322.28 1410.64 1341.78 1459.78 1358.05 1500.79C1375.5 1544.76 1389.24 1579.39 1400.62 1595.87C1410.18 1609.72 1409.12 1617.84 1396.62 1627.89C1395.01 1629.19 1393.47 1630.61 1391.93 1632.03C1387.96 1635.68 1383.99 1639.35 1378.73 1640.95C1373.14 1642.66 1371.43 1647.54 1372.18 1653.94C1374.51 1673.73 1376.67 1693.54 1378.68 1714.4C1374.58 1715.47 1370.69 1715.47 1365.41 1714.5C1361.36 1705.27 1361.61 1696.56 1361.85 1687.98L1361.85 1687.96C1361.86 1687.62 1361.87 1687.28 1361.88 1686.95C1362.3 1671.5 1358.31 1657.29 1354.14 1642.4C1353.13 1638.82 1352.12 1635.21 1351.15 1631.52C1347.79 1632.91 1344.46 1634.15 1341.18 1635.37C1334.16 1637.98 1327.41 1640.49 1321.17 1644.14C1297 1658.31 1271.79 1669.17 1245.12 1674.71C1224.2 1679.05 1214.61 1691.83 1217.53 1715.46C1212.47 1715.61 1207.4 1715.22 1202.4 1714.29C1200.39 1672.62 1225.63 1662.68 1258.18 1649.88C1261.98 1648.38 1265.89 1646.84 1269.86 1645.21C1317.32 1625.72 1377.9 1598.01 1377.9 1598.01C1377.9 1598.01 1316.76 1454.1 1295.35 1399.8C1253.31 1293.21 1147.66 1203.07 1144.19 1200.26C1138.61 1195.73 1133.07 1191.16 1127.53 1186.58ZM812.261 1287.72C796.633 1335.26 778.922 1381.85 760.741 1428.19C746.775 1463.77 731.538 1498.74 716.314 1533.68L714.754 1537.26C709.346 1549.67 704.21 1562.23 699.073 1574.79L699.072 1574.79C691.615 1593.02 684.157 1611.25 675.864 1629.05C669.153 1643.46 663.373 1658.41 657.593 1673.37L657.592 1673.37C654.96 1680.18 652.329 1686.99 649.609 1693.75C649.447 1694.15 649.271 1694.56 649.095 1694.96C647.923 1697.66 646.734 1700.39 649.483 1702.95C651.608 1704.92 653.85 1703.45 655.695 1701.96C658.136 1700 660.472 1697.88 662.69 1695.6C667.057 1691.12 671.401 1686.6 675.745 1682.09L675.76 1682.07L675.768 1682.06C681.858 1675.73 687.947 1669.4 694.1 1663.15C700.575 1656.57 707.094 1650.05 713.614 1643.53L713.618 1643.52C724.197 1632.94 734.776 1622.35 745.166 1611.53C752.678 1603.71 759.208 1594.79 765.722 1585.9C772.677 1576.4 779.614 1566.92 787.706 1558.84C808.839 1537.73 828.718 1515.6 846.541 1490.97C852.741 1482.4 859.203 1474.07 865.665 1465.75C880.006 1447.27 894.349 1428.78 905.84 1407.65C910.969 1398.21 912.215 1391.55 903.428 1383.86C896.718 1377.98 891.113 1370.34 885.625 1362.86C885.379 1362.53 885.133 1362.19 884.887 1361.86C884.772 1361.7 884.656 1361.54 884.539 1361.39C881.431 1357.17 877.858 1352.33 881.338 1345.68C888.749 1344.78 896.199 1344.37 903.651 1344.45C924.659 1344.53 945.676 1343.71 966.681 1342.89C967.908 1342.84 969.136 1342.79 970.363 1342.74C977.599 1342.46 982.278 1338.4 982.621 1329.37C982.954 1320.62 983.447 1311.89 983.94 1303.15C984.095 1300.41 984.25 1297.67 984.399 1294.93C984.856 1286.57 985.388 1278.22 985.92 1269.87C987.732 1241.42 989.544 1212.98 988.369 1184.35C987.375 1160.08 986.964 1135.66 988.288 1111.46C988.951 1099.33 985.006 1093.77 976.625 1088.51C953.005 1073.67 927.127 1070.15 901.193 1066.62C897.341 1066.1 893.487 1065.57 889.639 1065.01C882.963 1064.04 880.791 1068.37 879.131 1073.75C877.502 1079.02 875.639 1084.19 873.776 1089.36L873.775 1089.36C870.98 1097.12 868.182 1104.88 866.165 1113.03C862.866 1126.36 858.181 1139.17 853.498 1151.97L853.497 1151.97C850.695 1159.63 847.894 1167.28 845.39 1175.05C840.759 1189.43 836.695 1204.03 832.593 1218.76L832.593 1218.76C826.716 1239.87 820.763 1261.26 812.953 1282.67C812.876 1284.37 812.644 1286.07 812.261 1287.72ZM571.602 1115.72C571.783 1116.12 571.963 1116.52 572.141 1116.92C588.641 1153.76 668.347 1273.56 699.879 1317.37C701.219 1319.23 702.746 1321.3 704.408 1323.56C720.913 1345.93 750.684 1386.3 742.38 1419.14C734.049 1452.09 723.389 1484.92 708.468 1515.13C707.516 1517.05 706.87 1519.16 706.213 1521.3C704.927 1525.5 703.602 1529.82 699.879 1533.1C686.905 1511.04 671.622 1491.14 656.339 1471.23C649.415 1462.21 642.49 1453.19 635.781 1443.97C630.976 1437.37 625.621 1431.35 620.259 1425.31C615.802 1420.3 611.34 1415.28 607.182 1409.92C602.061 1403.31 602.59 1399.01 605.829 1393.58C609.339 1387.7 611.539 1381.21 613.734 1374.73C614.351 1372.91 614.967 1371.09 615.611 1369.29C620.27 1356.26 617.081 1349.47 604.837 1345.64C596.334 1342.97 587.632 1342.93 578.925 1342.88C573.333 1342.85 567.738 1342.82 562.194 1342.09C561.574 1342.01 560.937 1342.15 560.295 1342.28C559.807 1342.38 559.316 1342.49 558.829 1342.49C531.031 1342.96 528.601 1340.47 519.685 1311.66C507.424 1271.97 499.138 1230.86 494.982 1189.08C494.099 1180.34 492.431 1171.7 490.759 1163.04C489.306 1155.52 487.85 1147.98 486.903 1140.33C484.945 1124.52 487.435 1118.8 500.226 1113.27C514.815 1106.96 519.309 1100.6 523.421 1094.79C528.002 1088.3 532.11 1082.49 549.179 1078.17L549.379 1078.12C562.685 1074.75 563.641 1074.51 564.18 1090.54C564.494 1099.9 568.173 1108.09 571.602 1115.72Z" fill="black"/>
<path d="M864.944 941.54C869.831 927.256 869.093 925.299 855.18 922.829C844.994 921.022 835.852 916.534 826.186 913.429C815.3 909.934 808.168 899.635 796.713 896.915C790.705 926.689 830.446 953.418 864.944 941.54Z" fill="white"/>
<path fill-rule="evenodd" clip-rule="evenodd" d="M793.64 937.133C812.092 954.29 834.301 962.638 861.061 958.318C863.277 957.402 865.426 956.573 867.509 955.769C872.254 953.939 876.655 952.241 880.718 949.947C885.861 947.047 890.023 940.818 885.518 936.172C875.587 925.93 880.567 920.023 889.512 914.039C893.408 911.432 895.92 907.794 893.842 903.262C891.111 897.298 885.838 899.465 881.711 901.222C876.871 903.282 871.929 903.798 866.875 904.326C866.045 904.413 865.212 904.5 864.376 904.594C839.618 907.384 819.536 895.688 799.572 884.061C799.392 883.956 799.211 883.851 799.03 883.745C787.226 876.871 780.02 879.187 778.487 892.965C776.619 909.764 781.28 925.639 793.64 937.133ZM855.179 922.833C869.092 925.303 869.83 927.26 864.943 941.544L864.944 941.54C830.446 953.418 790.705 926.689 796.712 896.919C802.776 898.359 807.629 901.923 812.468 905.477C816.77 908.636 821.062 911.788 826.185 913.433C829.467 914.488 832.689 915.701 835.911 916.915C842.18 919.277 848.452 921.64 855.179 922.833Z" fill="black"/>
<path d="M813.371 822.449C818.823 813.773 836.03 810.285 845.53 815.19C852.056 818.559 858.493 822.814 865.511 816.85C872.017 811.321 870.111 804.696 866.979 798.217C865.398 794.947 866.169 792.517 869.213 790.654C872.188 788.832 874.732 789.567 877.44 791.472C885.082 796.848 886.993 805.194 885.369 812.972C883.837 820.305 881.641 828.994 872.736 832.017C868.747 833.371 863.942 835.51 860.394 834.417C845.013 829.677 826.607 837.743 813.371 822.449Z" fill="black"/>
<path d="M924.248 725.156C937.302 725.485 949.615 726.277 961.859 727.672C964.812 728.009 966.779 730.995 966.847 734.323C966.915 737.651 965.091 739.964 962.122 741.264C950.953 746.155 940.101 749.564 928.413 741.525C921.937 737.07 919.505 732.858 924.248 725.156Z" fill="black"/>
<path d="M769.747 727.869C775.886 731.221 774.86 734.942 771.81 738.702C765.318 746.702 743.604 748.78 735.362 742.168C730.674 738.408 728.085 733.561 731.011 727.768C734.035 721.783 739.211 722.858 744.09 725.305C752.072 729.316 760.41 728.388 769.747 727.869Z" fill="black"/>
<path fill-rule="evenodd" clip-rule="evenodd" d="M965.205 684.291C969.927 685.272 974.431 685.273 978.823 685.275C983.574 685.276 988.194 685.278 992.817 686.518C1005.8 690.005 1010.62 698.833 1013.6 710.663C1018.69 730.856 1019.79 750.713 1013.74 770.982C1010.31 782.47 1006.65 789.368 991.772 789.3C964.224 789.174 936.597 789.788 909.028 790.554C874.321 791.518 866.161 777.205 861.293 744.444C858.98 728.882 854.193 722.744 839.961 723.224C828.455 723.612 821.429 731.519 821.613 746.004C821.805 761.104 815.232 773.404 806.424 784.333C797.362 795.58 784.822 794.246 772.718 792.957L772.718 792.957C770.382 792.709 768.062 792.462 765.786 792.307C752.91 791.435 740.065 790.108 727.22 788.782C717.261 787.753 707.301 786.725 697.325 785.907C684.772 784.876 675.484 777.947 674.305 765.256C673.881 760.674 672.719 756.316 671.562 751.983C670.537 748.141 669.517 744.318 669.021 740.373C668.338 734.942 665.702 731.928 660.921 730.073C622.615 715.239 584.313 700.394 546.013 685.539C539.907 683.18 535.475 678.814 529.765 673.187C529.345 672.774 528.919 672.354 528.484 671.927C542.184 669.179 553.137 673.7 563.236 678.602C594.536 693.794 627.182 705.234 660.242 715.735C667.122 717.92 669.609 713.604 671.919 708.949C672.824 707.127 673.514 705.188 674.204 703.252L674.204 703.252L674.204 703.252C675.084 700.782 675.961 698.317 677.279 696.106C687.645 678.716 701.267 674.042 724.472 677.245C729.276 677.909 734.074 678.638 738.872 679.368C754.632 681.764 770.404 684.162 786.472 684.217C810.807 684.303 816.661 688.938 823.96 712.635C824.868 712.478 825.777 712.315 826.689 712.153L826.692 712.152C837.103 710.292 847.8 708.38 858.393 713.449C863.148 715.722 864.572 711.003 865.67 707.067C870.818 688.605 876.633 684.09 895.009 684.106C918.03 684.126 941.05 684.197 965.205 684.291ZM704.847 686.776C699.133 686.72 693.996 687.476 690.77 693.276C677.87 716.468 675.13 740.554 683.829 765.776C685.291 770.016 687.287 773.261 692.569 773.683C723.047 776.115 753.514 778.682 783.969 781.383C790.525 781.958 794.759 779.31 799.288 774.492C810.318 762.76 810.862 748.265 811.391 734.175L811.391 734.173C811.475 731.943 811.558 729.724 811.682 727.527C813.175 701.178 810.899 699.375 782.596 694.871C764.722 692.025 746.641 690.466 727.906 688.851C720.337 688.198 712.661 687.536 704.849 686.776H704.847ZM876.488 764.863C872.628 755.513 868.702 746.003 870.484 735.361H870.486C871.715 731.064 872.533 726.876 873.325 722.823C874.782 715.363 876.149 708.363 879.823 701.991C883.139 696.239 887.341 693.641 894.149 693.461C925.642 692.629 956.946 695.078 988.266 697.785C994.754 698.346 999.022 701.337 1000.54 707.055C1006.03 727.705 1010.22 748.388 1002.63 769.679C1000.46 775.784 998.034 778.929 991.203 778.862C988.271 778.834 985.338 778.803 982.406 778.773C952.242 778.458 922.079 778.143 891.92 779.998C884.174 780.474 880.011 773.48 877.474 767.261C877.149 766.463 876.819 765.664 876.488 764.863Z" fill="black"/>
<path d="M735.764 657.385C745.315 646.83 757.6 641.172 767.419 632.38C772.041 628.242 776.889 629.619 780.841 634.019C784.636 638.246 788.122 642.319 783.541 648.496C772.692 663.146 757.241 671.36 740.825 676.756C726.425 681.489 710.964 683.027 695.949 685.851C691.533 686.682 685.774 689.059 684.499 682.175C683.272 675.549 687.662 672.175 693.958 670.964C708.148 668.237 722.436 665.779 735.764 657.385Z" fill="black"/>
<path d="M968.856 655.513C980.166 657.573 986.897 666.535 996.721 669.669C1000.47 670.863 1005.09 674.346 1003.3 679.214C1001.16 685.014 995.204 683.479 991.072 682.114C977.85 677.735 964.606 673.231 951.864 667.65C939.074 662.05 926.793 655.25 914.453 648.666C908.525 645.503 902.94 640.842 907.131 633.487C911.261 626.239 918.189 623.975 925.438 629.793C938.46 640.241 954.04 646.279 968.856 655.513Z" fill="black"/>
<path d="M569.586 664.27C572.825 674.686 568.518 684.382 566.079 694.198C561.85 711.234 557.383 728.211 555.857 747.69C548.892 742.889 549.921 737.454 548.951 732.876C543.551 707.409 536.333 682.84 517.632 663.731C503.681 649.477 488.951 650.394 477.195 667.27C455.992 697.706 448.71 731.209 455.336 768.474C458.841 788.186 462.706 807.754 470.933 825.721C476.244 837.324 480.271 852.017 496.009 854.376C511.663 856.724 529.466 841.874 533.796 823.082C534.954 818.054 534.808 812.097 541.959 812.779C550.436 813.586 548.009 820.481 547.71 825.594C546.247 850.64 547.117 875.625 548.266 900.667C550.137 941.451 533.193 973.154 498.969 992.459C473.973 1006.56 435.835 1003.84 415.69 979.511C412.768 975.983 410.825 972.82 411.939 968.233C428.439 961.814 435.969 954.037 450.575 926.977C432.059 946.833 413.021 958.516 389.212 961.521C375.167 963.294 363.149 958.557 351.279 952.548C347.299 950.536 343.87 946.774 345.136 941.113C346.374 935.567 350.758 937.268 354.226 937.101C375.339 936.085 391.507 924.936 405.973 910.329C412.305 903.936 410.632 895.707 411.699 884.771C397.785 897.558 385.59 908.306 371.096 915.138C346.238 926.855 320.827 934.343 293.769 921.866C288.893 919.547 284.5 916.277 280.831 912.236C272.85 903.795 273.819 898.858 284.542 893.907C268.618 885.612 253.028 876.998 240.345 863.949C234.744 858.187 229.086 851.66 231.625 842.905C234.196 834.056 242.616 834.679 249.903 832.985C286.344 824.513 316.839 806.063 340.355 775.486C369.555 737.518 387.676 693.535 402.01 648.445C414.739 608.109 424.547 566.856 431.353 525.025C435.75 498.328 443.272 472.133 450.183 445.935C457.623 417.746 465.368 389.61 474.092 361.822C487.71 318.45 513.186 282.821 548.344 256.055C586.489 227.014 629.972 208.003 677.086 201.222C698.939 198.077 721.759 201.194 743.223 208.359C775.94 219.279 807.038 233.464 831.526 259.584C848.335 277.511 859.348 298.1 860.094 323.723C860.367 333.138 854.785 334.177 848.058 333.876C840.467 333.536 832.884 331.867 825.222 334.366C840.475 335.507 854.832 340.827 869.737 343.312C901.67 348.634 929.874 362.696 955.855 382.107C984.994 403.878 1011.84 427.663 1030.51 460.319C1039.08 475.292 1042.3 491.92 1048.19 507.65C1055.31 526.663 1057.54 547.376 1056.89 567.663C1055.96 596.898 1049.5 624.427 1029.38 647.416C1021.03 656.961 1001.73 665.334 993.821 686.379C992.182 690.74 989.763 651.35 990.612 644.27C994.457 612.217 987.894 612.695 966.962 591.129C951.357 575.051 931.728 565.354 912.693 554.272C890.693 541.47 866.457 534.635 844.305 522.666C832.572 516.325 825.013 505.669 817.459 495.385C791.987 460.702 787.523 463.106 778.474 457.796C805.738 494.536 794.81 490.459 807.528 511.454C812.393 519.485 810.004 525.13 800.779 525.009C783.252 524.781 766.88 531.494 749.619 532.911C740.883 533.629 734.905 531.899 729.333 524.647C712.663 502.953 707.04 500.754 689.97 479.388C688.238 477.221 699.037 509.095 712.803 535.867C717.98 545.936 715.618 551.538 704.996 554.749C686.003 560.568 667.904 569.127 651.238 580.172C645.11 584.195 641.71 583.663 637.566 578.972C625.628 565.469 616.961 550.243 603.277 537.671C609.617 551.148 612.098 566.662 619.263 579.657C627.951 595.419 627.371 600.737 614.423 613.298C606.037 621.432 598.461 630.476 590.766 639.336C582.985 648.293 579.36 648.378 572.391 638.922C565.302 629.602 558.809 619.816 552.953 609.627C552.767 609.325 564.182 646.894 569.586 664.27Z" fill="black"/>
</g>
</svg>
