<svg width="1392" height="1392" viewBox="0 0 1392 1392" fill="none" xmlns="http://www.w3.org/2000/svg">
<mask id="mask0_205_3407" style="mask-type:luminance" maskUnits="userSpaceOnUse" x="0" y="0" width="1392" height="1392">
<circle cx="696" cy="696" r="696" fill="white"/>
</mask>
<g mask="url(#mask0_205_3407)">
<path d="M929.141 1058.43C839.337 1339.93 599.431 1426.87 472.577 1077.22C455.133 1029.14 500.745 1011.24 532.643 990.085C554.492 975.592 565.97 963.024 564.639 950.066C558.359 888.937 531.168 718.866 531.168 718.866L528.403 713.387C528.403 713.387 529.066 711.851 526.463 714.567C523.75 717.399 517.494 746.97 492.839 746.97C470.734 746.97 448.293 736.636 437.554 665.121C433.667 639.24 435.872 571.391 463.256 559.138C474.572 554.076 485.012 552.266 495.196 558.342C505.381 564.418 483.446 537.573 596.717 438.851C670.344 374.68 786.644 365.275 833.572 376.11C880.5 386.944 927.428 410.969 948.184 461.844C973.37 523.575 924.72 570.19 935.405 710.779C933.458 761.573 936.246 873.053 802.596 910.418C777.212 917.515 785.087 956.299 823.162 965.78C883.899 985.691 929.189 1034.3 929.189 1058.56" fill="white"/>
<path fill-rule="evenodd" clip-rule="evenodd" d="M929.176 620.858L929.32 619.536C933.074 585.018 936.712 551.568 953.924 521.523C959.78 525.715 959.096 531.026 957.266 535.948C939.212 584.493 940.869 634.927 942.526 685.335C942.671 689.75 942.816 694.165 942.948 698.578C944.834 761.558 929.815 818.812 889.661 866.927C875.725 883.625 857.278 895.112 838.441 905.144C819.097 915.447 815.031 924.189 821.066 946.438C821.286 947.249 821.557 948.065 821.829 948.882L821.829 948.883C823.065 952.601 824.317 956.368 820.885 960.044C816.785 964.434 812.307 963.181 807.464 961.826C807.28 961.775 807.097 961.723 806.912 961.672C761.276 948.943 720.449 926.106 682.7 896.941C677.336 892.797 672.924 887.144 668.653 881.673L668.377 881.319C666.129 878.439 665.732 873.947 668.877 871.407C671.82 869.03 674.136 870.98 676.713 873.148C677.042 873.425 677.375 873.705 677.714 873.98C698.085 890.514 720.518 901.369 746.803 904.099C758.958 905.362 770.99 904.897 783.011 904.431H783.011C789.774 904.169 796.534 903.908 803.31 903.954C812.593 904.018 820.218 899.514 827.478 895.226C828.341 894.716 829.199 894.21 830.053 893.714C855.296 879.071 879.262 862.653 895.537 836.203C910.12 812.5 918.952 786.682 924.153 759.512C930.719 725.217 930.124 690.545 929.521 655.389V655.389V655.388C929.324 643.931 929.127 632.422 929.176 620.858ZM472.953 549.393C492.8 547.724 503.854 560.02 513.161 574.261C524.608 591.775 530.705 611.628 533.406 632.588C533.86 636.103 534.33 639.842 532.302 643.286C528.3 643.849 527.921 640.527 527.86 638.035C527.356 618.434 519.043 601.336 510.687 584.788C504.724 572.982 495.956 561.544 482.253 558.64C466.631 555.328 452.26 570.007 445.198 589.231C432.115 624.838 434.285 659.882 446.456 694.392C451.782 709.494 458.416 724.878 471.701 735.414C485.153 746.084 501.349 744.202 511.226 730.032C511.791 729.222 512.388 728.42 512.986 727.616L512.987 727.616C514.796 725.186 516.62 722.738 517.595 719.982C519.505 714.578 522.425 709.439 527.772 710.192C533.958 711.063 535.13 718.067 535.708 723.537C540.965 773.246 548.263 822.639 555.562 872.037L555.564 872.047C557.374 884.3 559.185 896.553 560.964 908.811C563.321 925.033 566.052 948.333 564.22 958.243C564.091 958.946 564.017 959.639 563.945 960.302L563.945 960.302C563.666 962.896 563.436 965.031 560.182 965.543C555.765 966.239 553.768 963.562 553.226 959.409C551.123 943.285 550.543 937.097 549.638 912.435C548.761 888.527 544.465 864.963 540.169 841.403C538.611 832.855 537.052 824.308 535.657 815.745C530.907 786.584 526.257 757.008 525.839 723.801C525.207 724.778 524.59 725.743 523.982 726.692L523.982 726.692C517.139 737.376 511.554 746.099 501.777 749.495C485.55 755.136 471.351 750.959 459.978 737.548C447.014 722.263 438.594 704.868 433.858 684.664C426.321 652.512 424.925 621.017 434.7 589.241C439.385 573.997 456.187 546.913 472.953 549.393ZM504.376 670.279C508.337 673.257 511.93 675.958 515.243 665.18C514.177 625.079 501.886 599.482 482.733 598.513C492.954 612.322 502.755 625.8 503.583 644.496C499.295 642.454 496.537 639.241 493.894 636.162C492.053 634.017 490.267 631.938 488.06 630.364C487.119 629.693 486.198 628.95 485.27 628.202C480.985 624.746 476.535 621.158 469.134 623.851C472.605 629.378 477.387 633.279 482.123 637.143C487.592 641.606 493 646.018 496.258 652.827C486.635 660.073 482.494 669.61 487.488 681.121C491.821 691.109 498.228 699.361 510.92 699.963C510.446 693.967 506.662 689.603 502.984 685.362C498.513 680.206 494.2 675.232 496.189 667.728C499.09 666.304 501.81 668.35 504.376 670.279Z" fill="black"/>
<path d="M1299.73 1563.23L113.348 1564.04C113.348 1564.04 179.466 1301.51 197.083 1271.39C214.7 1241.28 285.513 1139.86 284.731 1122.65C283.949 1105.43 286.082 1044.21 298.035 1019.98C309.988 995.745 348.119 962.58 362.988 960.154C377.857 957.729 427.941 955.304 459.245 947.22C490.548 939.137 519.459 929.157 551.269 929.157C556.436 929.157 551.436 940.852 551.436 940.852C551.436 940.852 553.086 1055.46 700.837 1062.65C810.994 1068 847.484 952.481 847.484 952.481C847.484 952.481 823.277 930.235 830.626 929.584C917.271 921.912 962.755 941.964 989.043 947.22C1013.3 952.071 1033.65 952.071 1057.91 969.855C1085.73 990.248 1100.1 1036.39 1131.22 1107.11C1166.89 1188.18 1307.28 1434.23 1299.71 1563.76" fill="white"/>
<path fill-rule="evenodd" clip-rule="evenodd" d="M1017.38 1519.12L1017.38 1519.11C1016.64 1484.25 1015.91 1449.41 1011.56 1414.54C1007.57 1382.59 1002.98 1350.67 997.962 1318.96C989.71 1266.82 978.634 1215.12 967.501 1163.53C963.667 1145.76 957.086 1128.41 950.016 1111.66C944.859 1099.43 940.535 1086.89 936.21 1074.34L936.209 1074.34C931.256 1059.98 926.303 1045.61 920.101 1031.73C919.013 1029.29 917.646 1027.07 916.237 1024.79C913.606 1020.52 910.828 1016.02 909.442 1009.41C866.407 1096.99 800.254 1142.41 707.042 1142.82C615.306 1143.23 547.426 1099.55 498.032 1020.71C490.215 1027.21 486.66 1036.52 483.419 1045.01L483.419 1045.01C483.013 1046.07 482.613 1047.12 482.21 1048.15C465.344 1091.18 449.522 1134.46 444.606 1181.46C441.764 1208.64 437.721 1235.79 433.684 1262.89C433.153 1266.46 432.621 1270.03 432.093 1273.59C425.818 1315.97 420.355 1358.58 417.339 1401.44C413.505 1455.88 409.428 1510.31 405.188 1565.79C400.938 1566.85 396.958 1566.85 391.984 1566.85C395.178 1543.66 395.974 1520.04 396.699 1496.67C398.146 1450.06 403.306 1403.91 408.471 1357.72L408.471 1357.72C409.888 1345.04 411.306 1332.35 412.648 1319.66C415.429 1293.34 419.086 1267.17 422.744 1240.99C426.348 1215.2 429.952 1189.41 432.717 1163.49C437.117 1122.22 452.557 1083.59 468.896 1045.66L469.652 1043.9L469.652 1043.9C479.103 1021.95 488.523 1000.07 503.664 981.505C515.373 967.158 528.609 954.372 544.32 944.876C556.923 937.257 561.045 938.887 565.293 953.332C573.964 982.826 589.118 1008.16 613.605 1025.4C652.375 1052.7 694.355 1065.02 741.745 1050.67C774.784 1040.67 802.105 1023.37 821.777 994.206C829.394 982.915 836.275 970.827 838.569 956.645C836.857 955.967 835.17 955.322 833.507 954.687C829.584 953.186 825.793 951.737 822.11 950.035L822.063 950.014C819.392 948.78 815.967 947.198 817.395 943.058C818.499 939.854 821.129 937.526 824.541 938.015C854.563 942.298 883.026 949.058 902.892 976.596C921.469 1002.34 935.051 1030.09 945.79 1060.27C948.056 1066.63 950.345 1072.99 952.634 1079.34L952.634 1079.35C964.023 1110.97 975.402 1142.57 983.783 1175.21C987.09 1188.1 989.587 1201.22 992.085 1214.33L992.085 1214.33L992.086 1214.34C993.149 1219.92 994.212 1225.5 995.337 1231.06C996.839 1238.49 998.431 1245.9 1000.02 1253.31C1003.68 1270.35 1007.34 1287.38 1009.91 1304.59C1011.67 1316.43 1013.61 1328.25 1015.55 1340.06L1015.55 1340.06L1015.55 1340.06C1021.07 1373.68 1026.6 1407.3 1028.04 1441.54C1028.75 1458.4 1029.95 1475.24 1031.14 1492.09L1031.14 1492.09C1032.15 1506.26 1033.15 1520.43 1033.87 1534.62C1034.26 1542.33 1033.51 1550.1 1032.73 1558.16C1032.47 1560.79 1032.22 1563.46 1031.99 1566.16C1027.6 1566.75 1023.16 1566.98 1018.73 1566.85C1018.05 1550.93 1017.71 1535.02 1017.38 1519.12ZM852.974 961.138C852.27 962.83 851.571 964.523 850.872 966.217C843.726 983.537 836.588 1000.84 824.321 1015.31C793.228 1052.01 752.925 1068.79 707.004 1070.14C676.099 1071.05 645.758 1064.46 619.108 1046.75C593.175 1029.51 571.009 1008.55 560.15 977.26C559.758 976.13 559.387 974.973 559.013 973.808C557.256 968.336 555.441 962.682 551.174 958.825C539.216 961.645 536.031 969.383 537.982 980.342C538.301 982.126 538.54 983.938 538.78 985.75C539.275 989.494 539.769 993.237 540.96 996.727C552.299 1029.94 574.437 1054.33 602.867 1072.13C625.242 1086.14 649.479 1095.44 676.162 1098.88C730.891 1105.93 781.819 1098.39 826.974 1063.46C854.465 1042.2 871.293 1014.08 875.341 978.624C876.951 964.543 868.839 958.04 852.97 961.138H852.974ZM523.35 981.022C541.49 1057.93 593.121 1094.82 662.721 1110.96C698.099 1120.2 731.624 1118.62 765.307 1109.59C802.785 1099.53 835.696 1082.09 860.288 1050.45C875.394 1031.01 886.51 1009.52 886.903 983.352C900.496 990.687 901.893 995.674 892.797 1013.27C872.402 1052.73 843.427 1084.49 805.168 1105.03C763.08 1127.63 717.807 1133.55 670.446 1126.18C621.333 1118.55 580.914 1094.6 545.551 1060.18C532.823 1047.79 523.222 1032.7 513.643 1017.64C511.601 1014.43 509.561 1011.23 507.492 1008.05C505.028 1004.26 506.665 1001.24 509.042 998.347C512.226 994.469 515.425 990.603 518.754 986.579C520.256 984.764 521.784 982.917 523.35 981.022Z" fill="black"/>
<path fill-rule="evenodd" clip-rule="evenodd" d="M302.001 1566.85C306.089 1552.4 307.628 1537.44 309.169 1522.45L309.169 1522.45C309.943 1514.93 310.717 1507.4 311.815 1499.92C312.642 1494.29 313.444 1488.65 314.246 1483.01L314.246 1483.01C317.472 1460.34 320.696 1437.67 325.543 1415.2C326.935 1408.75 328.429 1402.32 329.924 1395.88L329.924 1395.88C332.82 1383.41 335.72 1370.92 337.891 1358.24C341.446 1336.62 347.639 1315.56 356.32 1295.56C369.83 1265.04 376.053 1232.97 376.514 1199.84C376.746 1183.29 378.752 1166.96 380.757 1150.63L380.757 1150.63C382.252 1138.46 383.746 1126.3 384.506 1114.04C385.939 1090.92 384.852 1068.04 383.502 1043.17C380.071 1046.03 376.767 1048.83 373.534 1051.58L373.529 1051.58L373.529 1051.58C366.724 1057.35 360.235 1062.86 353.545 1068.09C314.713 1098.46 284.367 1136.73 258.457 1178.79C248.345 1195.21 239.877 1212.64 231.412 1230.06L231.412 1230.06C227.997 1237.09 224.584 1244.12 221.064 1251.07C206.584 1279.69 195.413 1309.6 184.569 1339.45C182.626 1344.8 180.664 1350.15 178.701 1355.5C162.528 1399.58 146.272 1443.89 139.907 1490.92C138.081 1504.41 134.53 1517.36 130.947 1530.43C127.769 1542.03 124.567 1553.71 122.523 1565.93C117.494 1566.84 112.755 1566.84 107 1566.84C107.838 1563.8 108.681 1560.76 109.524 1557.72L109.529 1557.7C117.196 1530.04 124.898 1502.26 128.819 1473.31C130.8 1458.69 134.881 1444.33 138.945 1430.03L138.945 1430.03C139.88 1426.74 140.814 1423.46 141.721 1420.17C145.73 1405.65 150.947 1391.57 156.167 1377.48L156.167 1377.48C160.698 1365.25 165.233 1353.01 168.983 1340.47C173.432 1325.6 179.421 1311.21 185.407 1296.82C187.612 1291.53 189.816 1286.23 191.943 1280.91C207.052 1243.12 225.861 1207.2 245.491 1171.82L245.773 1171.32C252.457 1159.27 259.339 1146.87 269.395 1136.91C277.22 1129.16 277.674 1119.1 278.125 1109.12C278.296 1105.33 278.466 1101.55 279.039 1097.92C279.442 1095.36 279.839 1092.8 280.236 1090.23L280.237 1090.23C284.846 1060.48 289.476 1030.6 304.045 1004.15C319.245 976.55 344.438 961.273 373.936 953.871C395.281 948.483 417.045 945.063 438.974 943.649C448.006 943.073 456.873 940.106 465.763 937.131C470.542 935.533 475.327 933.931 480.149 932.698C484.71 931.531 489.254 930.261 493.798 928.991C511.102 924.156 528.416 919.317 546.73 920.142C547.051 920.156 547.374 920.167 547.698 920.179C551.392 920.308 555.173 920.439 555.774 925.286C556.373 930.119 553.175 930.734 549.845 931.374C549.247 931.489 548.645 931.605 548.059 931.746C535.368 934.795 522.694 937.92 510.02 941.046C486.05 946.956 462.081 952.866 438.004 958.259C427.521 960.608 416.673 961.332 405.867 962.053C403.188 962.232 400.511 962.411 397.843 962.614C390.13 963.202 382.766 964.238 376.324 968.569C399.718 983.636 413.475 1004 413.084 1033C412.853 1050.16 413.526 1067.31 414.2 1084.45V1084.46C415.088 1107.06 415.976 1129.66 414.79 1152.28C413.248 1181.73 410.007 1210.97 405.803 1240.23C403.363 1257.21 401.476 1274.32 399.59 1291.42C397.811 1307.55 396.032 1323.67 393.792 1339.68C391.552 1355.68 390.049 1371.72 388.547 1387.76C387.156 1402.61 385.766 1417.45 383.793 1432.24C381.48 1449.57 379.799 1466.99 378.117 1484.41L378.117 1484.42C376.663 1499.48 375.209 1514.54 373.347 1529.55C372.873 1533.37 372.647 1537.23 372.419 1541.12C371.944 1549.25 371.46 1557.52 368.687 1565.92C363.618 1566.82 358.443 1566.86 353.363 1566.04C361.174 1534.53 364.843 1502.68 368.463 1471.24C368.601 1470.04 368.74 1468.84 368.878 1467.64C370.661 1452.19 371.97 1436.66 373.279 1421.13L373.279 1421.13C375.414 1395.82 377.549 1370.49 381.74 1345.42C383.43 1335.31 384.185 1325.1 384.94 1314.9V1314.9C385.919 1301.68 386.898 1288.46 389.909 1275.44C397.454 1242.81 399.883 1209.22 401.648 1175.99C404.251 1127.02 404.895 1077.8 401.99 1028.75C401.068 1013.19 397.819 997.392 384.272 984.712C385.701 989.357 387.312 993.801 388.879 998.125C392.213 1007.32 395.35 1015.98 396.117 1024.85C398.341 1050.56 398.53 1076.55 398.099 1102.4C397.595 1132.6 394.396 1162.6 391.198 1192.6C390.092 1202.97 388.986 1213.34 387.991 1223.73C384.736 1257.69 380.084 1291.46 375.433 1325.22C373.36 1340.27 371.287 1355.31 369.339 1370.38C367.576 1383.99 366.215 1397.65 364.855 1411.29C363.216 1427.74 361.579 1444.17 359.242 1460.5C357.762 1470.85 356.865 1481.26 355.967 1491.68C354.474 1509.02 352.979 1526.37 348.796 1543.4C348.518 1544.53 348.203 1545.69 347.884 1546.86C346.149 1553.21 344.282 1560.05 347.392 1566.85C342.331 1566.97 337.269 1566.66 332.259 1565.91C332.919 1558.58 334.027 1551.56 335.122 1544.62L335.122 1544.62L335.122 1544.62C336.094 1538.46 337.056 1532.37 337.685 1526.17C338.982 1513.4 340.373 1500.63 341.764 1487.87L341.764 1487.86L341.765 1487.86C343.302 1473.75 344.839 1459.64 346.251 1445.51C348.965 1418.35 352.491 1391.27 356.017 1364.2L356.018 1364.19C357.521 1352.65 359.025 1341.1 360.466 1329.55C358.761 1337.14 356.557 1344.63 354.356 1352.1L354.356 1352.1C351.196 1362.83 348.042 1373.53 346.381 1384.53C344.008 1400.23 340.865 1415.77 337.721 1431.31C333.631 1451.53 329.54 1471.76 327.142 1492.35C326.316 1499.45 325.315 1506.53 324.314 1513.6C321.818 1531.25 319.324 1548.89 319.537 1566.85H302.001ZM356.639 1047.04C362.234 1040.98 368.19 1035.32 375.219 1031.11C381.303 1027.47 382.968 1021.76 380.815 1015.77C379.783 1012.89 379.352 1009.72 378.92 1006.54C377.92 999.167 376.915 991.762 368.402 987.989C363.868 985.979 359.489 987.768 356.385 990.137C350.551 994.592 344.478 999.543 340.547 1005.69C324.969 1030.02 316.368 1057.43 308.23 1088.5C318.158 1078.22 328.304 1070.14 338.424 1062.07L338.424 1062.07C344.523 1057.21 350.613 1052.36 356.639 1047.04ZM322.535 1009.53C313.62 1031.59 304.708 1053.65 302.552 1077.88C302.327 1090.27 297.498 1098.81 292.218 1107.22C293.394 1101.62 294.499 1096.01 295.605 1090.39C301.782 1059.02 307.958 1027.65 326.255 1000.27C325.027 1003.36 323.781 1006.44 322.535 1009.53Z" fill="black"/>
<path fill-rule="evenodd" clip-rule="evenodd" d="M1268.04 1430.64C1282.42 1474.74 1289.97 1520.69 1296.77 1566.85C1301.75 1566.85 1305.72 1566.85 1309.98 1565.83C1306.42 1528.96 1298.47 1493.91 1290.54 1458.89L1290.43 1458.4C1286.69 1441.92 1281.48 1425.87 1276.26 1409.81C1274.74 1405.12 1273.21 1400.43 1271.73 1395.73C1259.66 1357.59 1247.32 1319.63 1232.14 1282.67C1224.15 1263.22 1214.34 1244.83 1204.5 1226.37C1200.29 1218.47 1196.38 1210.39 1192.47 1202.31C1183.93 1184.67 1175.39 1167.04 1163.68 1151.2C1162.47 1149.56 1161.21 1147.92 1159.94 1146.28C1154.64 1139.4 1149.22 1132.36 1146.74 1124.46C1136.5 1091.96 1124.78 1060.05 1113.06 1028.15C1106.22 1009.55 1096.84 991.981 1083.35 977.616C1064.87 957.916 1039.94 950.805 1015.27 944.767C994.466 939.675 973.483 935.378 952.498 931.081C940.3 928.584 928.101 926.086 915.937 923.431C884.966 916.77 853.212 914.881 821.707 917.825C816.727 918.267 812.681 919.447 810.891 927.723C824.081 929.281 837.28 929.646 850.459 930.011C872.42 930.618 894.328 931.224 916.06 937.344C938.951 943.79 962.283 948.888 986.281 954.131C997.565 956.596 1009 959.093 1020.6 961.778C1012.33 970.884 1012.06 979.95 1011.79 988.938C1011.75 990.361 1011.7 991.781 1011.63 993.2C1010.94 1006.33 1012.9 1019.18 1014.85 1031.97C1016.19 1040.81 1017.53 1049.61 1017.99 1058.46C1020.19 1100.51 1026.7 1141.84 1033.21 1183.16C1033.63 1185.78 1034.04 1188.41 1034.45 1191.04C1037.59 1211.01 1039.88 1231.07 1042.17 1251.13C1044.21 1268.97 1046.25 1286.81 1048.88 1304.58C1053.19 1333.68 1054.75 1363.05 1056.3 1392.42C1057.36 1412.39 1058.41 1432.37 1060.34 1452.27C1062.25 1472.02 1063.62 1491.83 1065 1511.66C1066.28 1530.05 1067.56 1548.46 1069.26 1566.85H1079.9C1079.43 1520.77 1076.11 1474.85 1072.79 1428.93C1071.09 1405.37 1069.39 1381.81 1068.07 1358.22C1066.98 1338.65 1064.31 1319.08 1061.65 1299.52C1060.28 1289.46 1058.91 1279.4 1057.75 1269.34C1054.33 1239.61 1049.82 1210.06 1045.3 1180.52C1041.41 1155.05 1037.52 1129.58 1034.33 1104.01C1032.8 1091.69 1030.85 1079.42 1028.89 1067.16C1024.84 1041.7 1020.79 1016.25 1020.47 990.294C1020.34 980.031 1023.57 971.803 1031.83 964.99C1018.58 993.208 1024.38 1020.44 1030.16 1047.56C1031.67 1054.67 1033.19 1061.77 1034.35 1068.88C1035.38 1075.13 1036.63 1081.36 1037.89 1087.59C1040.41 1100.14 1042.93 1112.68 1043.6 1125.33C1044.16 1135.78 1046.07 1145.88 1047.97 1155.95C1049.31 1163.02 1050.65 1170.08 1051.51 1177.23C1053.74 1195.75 1056.64 1214.17 1059.54 1232.58C1064.07 1261.3 1068.59 1290.02 1070.58 1319.16C1072.28 1344 1076.88 1368.71 1081.45 1393.26C1081.68 1394.48 1081.91 1395.71 1082.14 1396.94C1084.38 1408.96 1084.81 1421.13 1085.24 1433.04C1085.26 1433.69 1085.28 1434.34 1085.31 1434.98C1085.93 1452.31 1087.51 1469.56 1089.08 1486.8C1091.14 1509.27 1093.19 1531.72 1093.13 1554.32C1093.13 1555.68 1093.04 1557.04 1092.94 1558.45C1092.78 1560.73 1092.62 1563.15 1092.8 1565.92C1096.19 1566.66 1099.66 1566.97 1103.12 1566.85C1105.61 1524.42 1102.74 1482.15 1099.12 1437.56C1111.86 1474.94 1118.13 1511.9 1124.5 1549.47C1125.42 1554.9 1126.34 1560.34 1127.29 1565.79C1132.2 1566.79 1137.25 1566.88 1142.19 1566.06C1138.64 1557.77 1138.05 1549.28 1137.47 1540.96C1137.1 1535.7 1136.74 1530.51 1135.63 1525.48C1134.63 1520.91 1133.64 1516.33 1132.65 1511.76C1125.55 1478.91 1118.45 1446.04 1105.44 1414.74C1104.55 1412.59 1103.57 1410.43 1102.59 1408.25C1099.19 1400.72 1095.68 1392.95 1095.07 1384.57C1094.06 1370.56 1091.36 1356.8 1088.67 1343.13C1087.92 1339.28 1087.16 1335.44 1086.45 1331.6C1083.21 1314.22 1081.29 1296.69 1079.37 1279.16C1077.41 1261.18 1075.44 1243.19 1072.05 1225.36C1068.69 1207.73 1065.78 1190.02 1062.86 1172.31C1058.31 1144.61 1053.74 1116.89 1047.51 1089.47C1046.92 1086.87 1046.29 1084.25 1045.65 1081.6C1043.04 1070.7 1040.33 1059.38 1039.58 1047.02C1041.08 1047.63 1042.4 1048.09 1043.58 1048.5C1045.74 1049.24 1047.4 1049.81 1048.71 1050.86L1049.64 1051.6C1077.97 1074.18 1106.39 1096.82 1128.65 1126.12C1148.04 1151.64 1165.39 1178.41 1179.35 1207.94C1184.68 1219.23 1190.23 1230.4 1195.77 1241.57C1207.68 1265.54 1219.58 1289.52 1229.42 1314.68C1240.02 1341.82 1248.73 1369.56 1257.43 1397.3C1260.93 1408.42 1264.42 1419.55 1268.04 1430.64ZM1047.24 1034.19C1041.66 1030.9 1037.81 1026.46 1036.84 1019.7C1032.77 1008.28 1032.87 998.323 1034.24 988.409C1036.22 974.094 1045.78 970.029 1058.25 976.125C1076.31 984.955 1084.22 1002 1091.92 1018.59C1092.73 1020.32 1093.53 1022.05 1094.34 1023.76C1101.83 1039.58 1107.94 1056.09 1114.46 1073.69C1117.38 1081.56 1120.38 1089.66 1123.62 1098.01C1120.06 1094.61 1116.59 1091.25 1113.18 1087.94C1096.22 1071.51 1080.69 1056.47 1062.98 1044.13C1057.89 1040.58 1052.58 1037.33 1047.24 1034.19Z" fill="black"/>
<path d="M495.632 919.619C536.628 899.49 549.534 910.119 549.534 910.119C549.534 910.119 548.389 921.632 556.719 950.986C574.16 1012.43 668.857 1013.49 700.798 1009.46C734.546 1005.2 814.87 980.845 819.569 960.458C828.762 920.589 804.31 917.609 818.924 916.351C833.539 915.093 896.082 915.62 939.439 986.865C941.634 990.474 984.102 1131.07 937.22 1131.07C912.573 1131.07 874.91 1055.1 849.706 1079.19C809.502 1117.62 750.124 1150.99 676.497 1154.83C629.167 1157.31 548.91 1113.5 548.91 1113.5L503.523 1084.86C503.523 1084.86 453.258 1124 435.881 1114.14C413.067 1101.19 437.712 958.722 437.712 958.722C437.712 958.722 460.01 937.108 495.632 919.619Z" fill="white"/>
<path fill-rule="evenodd" clip-rule="evenodd" d="M435.638 948.48C435.638 948.48 490.123 910.696 523.085 903.827C540.775 900.14 548.759 898.801 558.109 912.016C561.535 916.856 561.987 921.925 562.421 926.784L562.421 926.786C562.483 927.485 562.545 928.18 562.616 928.869C565.049 952.684 575.897 971.317 594.539 984.525C604.988 991.929 618.011 995.613 630.343 996.942C674.999 1001.76 719.749 1002.38 763.1 987.621C780.609 981.661 797.522 973.655 811.394 960.374C819.894 952.238 820 946.269 811.403 938.441C808.032 935.371 809.048 932.735 810.169 929.828C810.533 928.884 810.908 927.91 811.147 926.884C815.024 910.267 815.925 908.657 833.203 910.815C859.477 914.096 886.149 920.242 906.075 938.453C960.149 987.874 960.283 1015.3 960.62 1084.4C960.669 1094.44 960.722 1105.36 960.946 1117.36C961.158 1128.74 954.765 1134.34 944.101 1136.01C922.963 1139.33 908.669 1130.46 898.388 1111.88C894.221 1104.35 889.343 1097.05 882.336 1091.63C867.911 1080.48 859.174 1079.83 845.631 1091.58C813.563 1119.4 777.637 1139.49 737.252 1150.83C679.916 1166.92 624.054 1162.33 570.494 1135.7C554.062 1127.53 537.858 1118.11 525.283 1103.71C521.062 1098.88 515.536 1096.15 509.738 1097.57C508.29 1097.93 506.839 1098.28 505.387 1098.63L505.382 1098.63L505.382 1098.63C491.915 1101.88 478.375 1105.14 466.692 1113.63C455.523 1121.74 442.538 1123.53 430.777 1118.1C419.81 1113.04 420.078 1100.42 421.151 1089.53C422.361 1077.26 423.18 1064.95 424.001 1052.62C425.874 1024.48 427.755 996.228 434.287 968.137C423.678 969.338 435.638 948.48 435.638 948.48ZM554.743 1056.41C592.075 1082.35 633.331 1091.58 678.104 1091.65C722.779 1091.73 764.288 1083.39 804.083 1059.08C776.037 1042.27 780.042 1018.95 789.099 993.35C785.713 994.305 782.55 995.126 779.554 995.903L779.553 995.903C773.46 997.483 768.054 998.885 762.862 1000.88C741.39 1009.12 718.629 1011.97 696.39 1014.66C666.607 1018.25 636.558 1012.8 607.467 1005.36C592.736 1001.59 578.599 995.367 567.878 982.1C565.617 979.301 564.001 976.098 562.381 972.886C560.116 968.397 557.843 963.89 553.785 960.448C551.393 964.765 551.705 968.708 553.643 972.13C555.872 976.062 558.044 980.042 560.218 984.023L560.218 984.023L560.218 984.023L560.219 984.024C566.587 995.688 572.962 1007.36 580.756 1017.91C586.596 1025.81 587.544 1032.89 587.268 1043.26C573.69 1040 560.687 1037.08 548.912 1045.66C548.811 1049.34 550.753 1051.65 553.268 1054.63C553.742 1055.2 554.237 1055.79 554.743 1056.41ZM803.074 1000.64L803.076 1000.63L803.078 1000.63C803.706 999.625 804.335 998.618 804.955 997.606C807.712 992.31 811.376 988.111 814.953 984.012C820.092 978.122 825.051 972.44 826.88 964.008C829.963 949.795 832.742 936.447 826.417 924.04C828.323 920.508 830.282 919.808 832.152 920.327C834.429 920.961 836.71 921.584 838.991 922.207L838.995 922.208C867.16 929.899 895.239 937.568 914.053 964.287C931.171 988.599 942.55 1015.06 945.289 1045.13C947.092 1064.94 948.848 1084.77 949.974 1104.62C950.043 1105.83 950.2 1107.09 950.359 1108.37C951.116 1114.47 951.928 1121.01 943.581 1123.96C933.437 1127.54 920.257 1123.28 914.798 1114.36C913.272 1111.86 911.968 1109.22 910.664 1106.58C909.694 1104.62 908.723 1102.66 907.66 1100.75C890.603 1070.16 863.108 1053.25 832.354 1041.68C824.549 1038.74 814.893 1039.9 806.127 1040.96L805.705 1041.01L805.278 1041.06L804.842 1041.11C795.93 1042.18 794.647 1037.77 793.605 1030.46C791.901 1018.53 797.46 1009.62 803.074 1000.64ZM435.88 1094.75C436.668 1107.99 439.509 1111.25 447.599 1106.35C449.863 1104.98 452.14 1103.64 454.414 1102.3C469.293 1093.52 484.039 1084.83 494.063 1068.43C504.966 1050.6 520.725 1036.85 541.713 1030.92C547.226 1029.37 552.789 1029.4 558.368 1029.43H558.368C562.628 1029.46 566.898 1029.48 571.162 1028.8C570.442 1024.39 568.242 1021.59 566.121 1018.9L566.121 1018.9C565.571 1018.2 565.027 1017.51 564.515 1016.8C545.742 990.703 531.184 963.025 534.947 928.922C535.672 922.361 531.817 920.793 527.588 921.001C519.242 921.411 511.077 922.478 502.883 925.56C493.158 929.22 484.154 934.265 475.156 939.308L475.156 939.308C469.689 942.372 464.224 945.434 458.6 948.184C452.478 951.177 446.007 955.85 446.04 964.1C446.077 973.184 444.272 981.916 442.468 990.643C441.617 994.761 440.765 998.879 440.108 1003.03C436.184 1027.82 436.082 1052.77 435.974 1079.01V1079.01C435.953 1084.2 435.931 1089.45 435.88 1094.75ZM650.043 1104.82C680.811 1109.44 710.73 1104.94 740.812 1099.99V1099.99C766.332 1093.63 788.689 1084.94 809.644 1071.65C817.714 1066.54 827.066 1067.36 837.089 1068.24C841.196 1068.6 845.416 1068.97 849.706 1068.95C835.807 1084.72 820.164 1094.95 804.717 1105.04C803.476 1105.85 802.236 1106.66 800.999 1107.47C777.75 1122.73 752.386 1133.85 725.362 1138.61C697.873 1143.46 670.413 1146.84 641.751 1142.64C610.453 1138.06 582.131 1127.86 556.195 1110.47C539.972 1099.59 524.175 1087.43 512.944 1070.3C529.909 1058.64 537.328 1059.24 552.771 1070.44C581.903 1091.57 615.37 1099.6 650.043 1104.82Z" fill="black"/>
<path d="M473.504 392.159C483.059 381.149 492.101 370.818 501.964 359.55C490.931 349.112 482.334 334.942 486.509 316.556C490.698 298.112 502.947 288.112 520.519 285.152C521.746 257.219 528.91 249.628 555.66 249.693C564.091 249.712 565.36 245.101 565.541 238.505C566.368 207.826 585.827 192.629 609.807 182.811C638 171.267 676.579 187.708 692.211 215.702C698.382 226.756 702.357 238.354 703.211 251.024C703.801 259.782 706.202 263.982 716.083 262.307C758.648 255.109 798.071 267.405 836.982 284.045C880.363 302.596 914.937 333.663 945.541 369.106C964.362 390.903 979.551 416.634 982.903 447.506C984.861 465.52 981.012 480.838 965.8 491.768C945.822 506.123 922.883 510.486 899.656 513.174C887.432 514.588 874.908 512.881 862.567 513.565C831.831 515.271 803.577 504.487 774.696 496.064C746.769 487.919 720.325 476.785 695.787 460.628C693.687 459.244 690.733 459.276 688.702 458.779C682.511 463.935 684.929 471.294 682.502 477.238C670.535 506.553 647.6 523.389 622.187 537.597C609.314 544.792 595.776 550.784 582.929 557.855C565.53 567.43 556.79 585.809 550.591 604.443C547.11 614.909 542.885 625.406 541.934 636.918C541.557 641.493 538.755 647.927 532.18 646.648C526.661 645.575 525.844 640.062 525.863 635.058C525.967 607.456 512.965 584.764 499.424 562.981C488.406 545.251 465.15 544.17 451.396 565.325C447.031 572.041 445.078 580.078 441.41 587.001C437.934 593.561 434.792 600.339 431.474 607.899C422.953 603.917 420.708 596.465 418.791 588.784C414.383 571.116 417.474 553.439 419.711 536.008C424.492 498.747 433.624 462.769 450.428 429.095C456.885 416.153 465.393 404.867 473.504 392.159Z" fill="black"/>
<path d="M827.204 715.513C831.801 700.655 821.784 690.578 817.792 678.988C810.036 656.477 803.101 634.041 804.206 609.74C804.402 605.409 803.571 599.595 809.634 599.749C814.291 599.868 816.796 604.654 816.977 609.241C818.327 642.899 830.054 673.355 843.201 703.379C845.679 709.036 845.113 713.889 842.185 719.358C834.506 733.7 821.941 738.363 807.564 738.824C799.662 739.078 794.027 734.532 791.09 724.386C803.784 722.647 817.691 728.929 827.204 715.513Z" fill="black"/>
<path d="M867.965 667.606C879.799 667.917 890.961 668.668 902.061 669.992C904.738 670.311 906.52 673.142 906.581 676.297C906.643 679.452 904.99 681.645 902.299 682.878C892.174 687.515 882.336 690.747 871.74 683.125C865.867 678.901 863.661 674.908 867.965 667.606Z" fill="black"/>
<path d="M723.039 662.401C729.38 662.401 730.18 665.963 729.385 670.477C727.697 680.088 711.323 691.681 701.892 689.925C696.529 688.927 692.362 686.07 692.174 679.922C691.98 673.57 696.564 672.111 701.511 671.93C709.603 671.634 715.834 667.076 723.039 662.401Z" fill="black"/>
<path d="M693.645 624.115C698.166 612.701 701.704 596.24 715.479 602.768C734.226 611.655 728.042 631.9 724.251 647.672C722.82 653.623 711.088 662.758 707.703 661.283C692.937 654.844 690.239 640.669 693.645 624.115Z" fill="black"/>
<path d="M899.276 658.997C891.502 666.066 883.893 666.202 879.204 657.575C870.944 642.368 871.396 626.453 882.218 612.786C884.478 609.931 894.685 609.344 896.971 611.893C909.611 625.983 910.156 641.963 899.276 658.997Z" fill="black"/>
<path fill-rule="evenodd" clip-rule="evenodd" d="M771 564.834C778.769 564.888 786.514 564.942 794.239 564.996C841.401 565.323 887.83 565.645 934.258 566.037C938.497 566.184 942.724 566.575 946.922 567.207C953.373 568.011 956.35 571.177 957.781 578.615C963.426 607.863 960.32 636.463 952.091 664.314C947.143 681.071 933.969 690.927 918.053 696.114C897.266 702.888 875.947 707.848 854.776 699.812C835.976 692.673 821.075 680.854 815.927 658.156C815.283 655.316 814.477 652.532 813.675 649.759C811.396 641.879 809.145 634.095 810.708 625.417C811.378 621.696 807.932 619.86 805.224 618.416L805.197 618.401C791.608 611.152 778.273 618.22 775.818 634.024C773.125 651.363 767.659 667.975 758.266 682.179C743.269 704.852 720.509 710.038 695.707 706.969C676.174 704.551 659.297 695.982 644.76 681.761C631.751 669.035 625.163 653.752 626.56 635.498C627.376 624.873 621.646 620.044 614.141 618.707C601.163 616.393 589.134 611.267 577.169 606.169C572.863 604.334 568.565 602.503 564.235 600.807C557.716 598.256 551.092 596.081 544.473 593.909C537.186 591.517 529.906 589.128 522.779 586.239C522.457 586.108 522.138 585.983 521.823 585.86L521.822 585.859C518.362 584.503 515.457 583.365 516.023 577.834C521.193 575.311 525.941 576.93 530.859 578.606C534.113 579.716 537.441 580.851 541.015 580.828C538.581 572.313 533.511 569.097 525.367 568.72C515.6 568.266 506.874 564.759 500.41 556.228C504.738 551.818 508.593 552.132 512.359 553.201C531.73 558.698 551.52 561.815 571.315 564.934C587.627 567.503 603.943 570.073 620.031 573.976C629.356 576.237 639.376 576.278 648.17 567.887C653.805 562.509 662.207 562.687 669.899 562.851L669.899 562.851C670.851 562.871 671.791 562.891 672.715 562.9C695.608 563.124 718.497 563.65 741.795 564.185C751.45 564.407 761.176 564.63 771 564.834ZM634.929 627.278C637.978 666.824 659.176 686.994 691.842 694.588C713.211 699.556 739.229 694.719 752.407 669.197C759.826 654.831 764.031 639.673 767.83 624.083C771.34 609.678 780.735 605.077 800.14 606.769C813.098 607.899 819.065 614.206 820.809 628.068C822.117 638.459 823.598 648.832 825.361 659.151C827.587 672.186 842.978 687.902 855.559 690.542C874.904 694.727 894.982 693.181 913.533 686.079C924.393 681.965 934.297 676.246 939.529 664.278C948.669 643.373 951.4 621.342 951.114 598.653C950.851 577.87 949.65 576.468 929.085 576.382C916.311 576.329 903.537 576.345 890.762 576.36C873.051 576.382 855.34 576.404 837.63 576.242C814.991 576.035 792.352 575.731 769.714 575.427L769.713 575.427C743.372 575.073 717.031 574.719 690.689 574.519C687.532 574.495 684.274 574.175 681.001 573.854C671.263 572.897 661.381 571.927 653.587 578.691C645.481 585.724 637.419 585.702 628.745 585.678C627.704 585.676 626.654 585.673 625.594 585.682C623.328 585.702 621.094 585.215 618.836 584.722C615.025 583.89 611.144 583.044 606.919 584.596C608.117 598.643 611.173 610.921 626.809 614.2C632.564 615.405 635.625 618.781 634.926 627.278H634.929ZM566.205 576.638C574.223 575.549 581.629 574.543 584.239 586.645H584.236C585.612 591.14 586.646 593.973 587.917 597.454L587.934 597.498C576.143 594.873 566.926 590.178 562.434 577.104C563.696 576.979 564.958 576.808 566.205 576.638Z" fill="black"/>
<path d="M758.715 593.888C758.104 588.199 761.551 586.935 765.076 586.923C782.366 586.868 799.663 586.938 816.945 587.411C820.887 587.43 824.597 589.364 826.986 592.644C820.729 600.284 778.419 601.541 758.715 593.888Z" fill="black"/>
<path d="M674.754 560.127C699.865 539.127 728.705 542.003 757.068 542.932C762.268 543.102 768.175 544.208 770.004 550.935C771.987 558.229 765.869 560.232 762.026 563.943C747.893 577.59 732.213 580.143 714.705 572.158C704.897 567.685 695.284 569.269 685.855 573.675C684.097 574.497 682.375 575.416 680.584 576.146C674.832 578.49 667.633 581.872 663.747 575.717C659.738 569.371 668.806 567.262 671.271 562.719C671.783 561.761 673.053 561.243 674.754 560.127Z" fill="black"/>
<path d="M914.219 552.235C921.155 556.329 927.284 561.764 932.28 568.251C934.564 571.17 936.871 574.319 934.964 578.03C932.901 582.044 928.925 580.571 925.594 580.128C914.284 578.624 904.078 571.405 892.052 573.302C887.54 574.015 883.094 573.919 878.545 575.629C866.69 580.085 850.339 569.542 848.461 556.85C847.705 551.744 849.373 548.791 854.717 547.356C874.848 541.945 894.665 538.821 914.219 552.235Z" fill="black"/>
<path d="M724.32 812.656C723.232 808.071 721.544 803.82 726.368 801.856C730.388 800.221 733.682 802.327 736.612 805.217C746.448 814.917 757.807 823.03 771.06 826.285C798.105 832.929 822.084 825.801 842.253 806.393C845.604 803.168 848.931 799.908 852.447 796.87C854.818 794.82 857.58 793.62 860.447 796.164C863.46 798.838 861.921 801.554 860.293 804.134C846.756 825.584 828.67 839.934 802.227 841.099C794.187 841.455 786.133 842.122 778.103 841.927C755.688 841.383 740.133 827.639 724.32 812.656Z" fill="black"/>
</g>
</svg>
