<svg width="1392" height="1392" viewBox="0 0 1392 1392" fill="none" xmlns="http://www.w3.org/2000/svg">
<mask id="mask0_204_2943" style="mask-type:luminance" maskUnits="userSpaceOnUse" x="0" y="0" width="1392" height="1392">
<circle cx="696" cy="696" r="696" fill="white"/>
</mask>
<g mask="url(#mask0_204_2943)">
<path d="M908.906 1184.21C809.844 1481.12 545.203 1572.81 405.271 1204.03C386.028 1153.32 436.342 1134.44 471.529 1112.12C495.631 1096.84 508.292 1083.58 506.824 1069.92C499.896 1005.44 469.903 826.062 469.903 826.062L466.852 820.283C466.852 820.283 467.583 818.663 464.712 821.528C461.72 824.515 454.819 855.705 427.622 855.705C403.238 855.705 378.483 844.805 366.636 769.376C362.349 742.079 364.782 670.516 394.989 657.593C407.472 652.253 418.988 650.345 430.222 656.753C441.456 663.161 417.26 634.847 542.209 530.722C623.427 463.039 751.717 453.119 803.484 464.547C855.25 475.974 907.016 501.314 929.912 554.974C957.694 620.083 904.029 669.249 915.816 817.533C913.668 871.107 916.743 988.688 769.314 1028.1C741.313 1035.58 750 1076.49 792 1086.49C859 1107.49 908.959 1158.76 908.959 1184.35" fill="white"/>
<path fill-rule="evenodd" clip-rule="evenodd" d="M908.943 722.69L909.102 721.296C913.243 684.889 917.256 649.608 936.243 617.919C942.702 622.34 941.948 627.942 939.929 633.133C920.013 684.336 921.842 737.53 923.669 790.696C923.83 795.353 923.99 800.009 924.135 804.664C926.216 871.091 909.648 931.478 865.354 982.226C849.981 999.838 829.632 1011.95 808.854 1022.54C787.515 1033.4 783.03 1042.62 789.687 1066.09C789.93 1066.95 790.229 1067.81 790.529 1068.67C791.892 1072.59 793.273 1076.56 789.487 1080.44C784.965 1085.07 780.026 1083.75 774.683 1082.32C774.48 1082.27 774.277 1082.21 774.074 1082.16C723.733 1068.73 678.697 1044.64 637.056 1013.88C631.139 1009.51 626.272 1003.55 621.561 997.78L621.561 997.78L621.256 997.406C618.776 994.369 618.338 989.631 621.807 986.952C625.054 984.445 627.609 986.501 630.452 988.788C630.815 989.08 631.182 989.376 631.556 989.666C654.027 1007.1 678.773 1018.55 707.768 1021.43C721.176 1022.77 734.448 1022.27 747.708 1021.78H747.708H747.709C755.17 1021.51 762.626 1021.23 770.101 1021.28C780.34 1021.35 788.752 1016.6 796.761 1012.07C797.712 1011.54 798.658 1011 799.601 1010.48C827.446 995.035 853.883 977.719 871.836 949.821C887.922 924.821 897.665 897.59 903.402 868.933C910.645 832.76 909.989 796.191 909.324 759.111C909.107 747.026 908.889 734.887 908.943 722.69ZM405.684 647.314C427.577 645.554 439.771 658.523 450.037 673.543C462.664 692.016 469.39 712.955 472.37 735.062C472.87 738.77 473.389 742.713 471.152 746.346C466.737 746.94 466.319 743.436 466.252 740.807C465.696 720.134 456.526 702.1 447.308 684.646C440.73 672.194 431.059 660.13 415.943 657.067C398.71 653.574 382.858 669.056 375.067 689.332C360.636 726.888 363.029 763.85 376.455 800.249C382.33 816.177 389.648 832.403 404.303 843.516C419.142 854.77 437.008 852.785 447.903 837.839C448.526 836.985 449.184 836.139 449.845 835.291L449.845 835.291L449.845 835.291C451.841 832.728 453.853 830.146 454.928 827.239C457.035 821.539 460.256 816.119 466.155 816.913C472.978 817.832 474.271 825.219 474.909 830.989C480.707 883.418 488.758 935.514 496.81 987.616L496.81 987.616C498.808 1000.54 500.806 1013.47 502.769 1026.4C505.369 1043.51 508.381 1068.09 506.361 1078.54C506.219 1079.28 506.136 1080.01 506.058 1080.71C505.749 1083.45 505.496 1085.7 501.906 1086.24C497.034 1086.97 494.831 1084.15 494.233 1079.77C491.913 1062.76 491.273 1056.24 490.275 1030.23C489.308 1005.01 484.569 980.155 479.83 955.306L479.83 955.305C478.111 946.29 476.392 937.275 474.853 928.243C469.613 897.486 464.483 866.292 464.022 831.267C463.326 832.298 462.644 833.315 461.974 834.316C454.426 845.586 448.264 854.785 437.48 858.367C419.58 864.317 403.917 859.912 391.371 845.767C377.071 829.645 367.783 811.298 362.558 789.988C354.244 756.077 352.704 722.858 363.487 689.343C368.655 673.264 387.189 644.698 405.684 647.314ZM440.346 774.816C444.717 777.957 448.679 780.806 452.334 769.438C451.158 727.142 437.6 700.144 416.472 699.122C427.747 713.687 438.559 727.903 439.472 747.622C434.742 745.468 431.7 742.08 428.784 738.832C426.753 736.57 424.784 734.376 422.348 732.716C421.31 732.009 420.295 731.226 419.271 730.436C414.544 726.791 409.636 723.006 401.471 725.847C405.301 731.677 410.575 735.792 415.799 739.867C421.832 744.574 427.798 749.228 431.392 756.409C420.777 764.051 416.209 774.11 421.718 786.251C426.497 796.786 433.565 805.49 447.565 806.125C447.043 799.801 442.868 795.198 438.812 790.725C433.879 785.286 429.121 780.04 431.316 772.125C434.515 770.624 437.516 772.781 440.346 774.816Z" fill="black"/>
<path d="M1293.64 1715.49H85.233L93.8453 1652.22C93.8453 1652.22 16.2365 1625.78 8.46542 1610.46C0.694364 1595.14 92.6352 1396.32 105.244 1364.85C117.853 1333.38 182.22 1222.09 220.347 1200.83C262.731 1177.2 401.998 1114.05 409.903 1107.67C436.023 1086.6 492.579 1064.87 492.579 1064.87V1095.6L664.004 1376.5L674.339 1414.42C674.339 1414.42 777.866 1133.38 787.654 1076.46C795.9 1028.5 907.521 1086.6 907.521 1086.6C907.521 1086.6 1021.65 1157.17 1050.45 1179.9C1108.94 1226.04 1190.46 1318.45 1231.24 1419.05C1254.36 1476.04 1303.67 1587.31 1311.78 1600.37C1319.9 1613.43 1284.8 1636.42 1284.8 1636.42L1293.64 1715.49Z" fill="white"/>
<path fill-rule="evenodd" clip-rule="evenodd" d="M1046.53 1186.58L1046.51 1186.56C1022.37 1166.63 998.246 1146.71 971.423 1131.28C967.524 1129.04 963.661 1126.71 959.792 1124.38C946.629 1116.45 933.392 1108.47 918.386 1103.66C916.585 1113.9 917.041 1123.67 917.859 1133.25C921.882 1180.36 923.598 1227.36 918.074 1274.56C916.726 1286.08 916.994 1297.86 917.261 1309.61C917.354 1313.7 917.447 1317.79 917.471 1321.87C917.451 1328.68 916.548 1335.45 914.791 1341.97C912.444 1351.14 908.106 1355.17 898.8 1355.85C890.499 1356.46 882.249 1357.76 873.995 1359.06C860.66 1361.17 847.314 1363.27 833.729 1362.48C830.908 1362.31 828.076 1362.38 826.363 1362.42L826.361 1362.42C825.833 1362.43 825.412 1362.44 825.13 1362.44C826.178 1363.79 827.349 1365.27 828.6 1366.85L828.603 1366.85C831.801 1370.88 835.519 1375.56 839.006 1380.46C844.543 1388.23 845.689 1394.92 840.5 1405.38C814.491 1457.84 779.583 1502.72 741.947 1543.65C729.844 1556.81 718.543 1570.85 707.245 1584.89L707.245 1584.89C688.51 1608.18 669.784 1631.46 647.425 1650.66C636.099 1660.38 625.871 1671.54 615.567 1682.78L615.566 1682.78L615.565 1682.78C605.462 1693.8 595.287 1704.9 583.935 1714.81C570.566 1715.47 557.671 1715.47 543.719 1715.47H543.715C550.132 1702.66 555.313 1689.01 560.52 1675.29C565.177 1663.01 569.856 1650.69 575.459 1638.85C585.342 1617.97 594.008 1596.29 602.23 1574.49C608.258 1558.5 608.525 1542.28 598.022 1527.71C594.195 1522.41 590.388 1517.08 586.581 1511.76C566.154 1483.19 545.728 1454.62 522.35 1428.94C511.813 1417.37 509.345 1398.98 516.093 1382.01C517.78 1377.77 519.336 1373.47 520.9 1369.14L520.902 1369.13C521.599 1367.2 522.297 1365.27 523.009 1363.34C509.089 1357.26 494.92 1356.95 480.863 1356.64C474.229 1356.49 467.62 1356.35 461.075 1355.6C460.604 1355.54 460.144 1355.49 459.692 1355.44C438.139 1352.98 437.795 1352.94 430.085 1329.23C413.666 1278.64 403.06 1225.88 398.526 1172.25C397.286 1157.86 394.89 1142.89 388.618 1128.76C365.757 1138.11 344.037 1148.58 322.286 1159.06L322.286 1159.06L321.393 1159.49C296.554 1171.46 272.117 1184.35 247.84 1197.64C211.803 1217.35 183.685 1247.44 160.826 1284.19L160.318 1285L160.317 1285C143.633 1311.82 126.958 1338.63 113.861 1368.03C105.997 1385.68 98.0054 1403.26 90.0136 1420.85L90.0115 1420.85L90.0071 1420.86C85.5587 1430.65 81.1103 1440.43 76.6839 1450.23C73.2001 1457.94 69.689 1465.64 66.178 1473.34L66.1745 1473.35L66.1738 1473.35C56.9953 1493.47 47.8166 1513.59 39.1224 1533.98C31.8043 1551.13 24.9369 1568.56 18.7823 1586.38C14.728 1598.12 18.6894 1603.33 27.1416 1606.47C32.1414 1608.32 37.1297 1610.33 42.1221 1612.33C56.4037 1618.07 70.7196 1623.82 85.4381 1626.18C105.413 1629.37 123.349 1637.65 141.361 1645.96L141.363 1645.96L142.671 1646.56C143.155 1646.79 143.639 1647.01 144.123 1647.23C174.379 1661.17 204.147 1676.49 233.87 1691.84C245.614 1697.91 256.786 1705.39 268.317 1713.11L268.317 1713.11C269.036 1713.59 269.756 1714.07 270.477 1714.55C260.895 1715.43 251.27 1715.53 241.675 1714.87C215.277 1699.58 188.065 1688.61 160.815 1677.62L160.815 1677.62C141.41 1669.8 121.986 1661.97 102.825 1652.56C101.412 1660.16 99.7945 1667.31 98.2331 1674.21C95.0088 1688.46 92.0247 1701.65 91.5803 1715.47H78.9541C76.8176 1708.26 78.3547 1701.5 79.8946 1694.73L79.8948 1694.73C80.3141 1692.88 80.7336 1691.04 81.0792 1689.18C83.1776 1677.91 82.3258 1669.51 69.7138 1667.04C51.2303 1663.43 35.6105 1652.28 20.0936 1641.21C18.4496 1640.04 16.8068 1638.87 15.1618 1637.71C3.05982 1629.16 -0.707665 1611.51 3.90541 1590.62C9.07222 1567.21 18.3089 1545.74 27.5582 1524.23C27.9902 1523.23 28.4223 1522.22 28.8541 1521.22C45.1604 1483.26 62.1392 1445.67 79.11 1408.1L79.1118 1408.1C83.5885 1398.18 88.0646 1388.27 92.5277 1378.36C118.241 1321.24 148.009 1266.34 190.033 1221.95C210.958 1199.84 235.083 1183.11 261.72 1170.23C269.536 1166.45 277.317 1162.56 285.1 1158.67L285.1 1158.67C305.079 1148.69 325.061 1138.71 345.622 1130.53C364.873 1122.88 373.548 1113.44 382.028 1104.21C391.001 1094.45 399.755 1084.92 420.593 1078C425.239 1076.46 429.858 1074.84 434.471 1073.21C451.32 1067.28 468.099 1061.37 485.886 1059.68C486.211 1059.65 486.556 1059.64 486.907 1059.62C488.165 1059.56 489.495 1059.5 490.261 1058.76C490.386 1058.64 490.511 1058.51 490.636 1058.39C494.682 1054.47 498.883 1050.4 503.543 1056.76C507.755 1062.51 508.036 1070.57 504.517 1076.01C497.52 1086.84 501.358 1096.99 504.9 1106.36L504.92 1106.41C505.025 1106.69 505.13 1106.97 505.235 1107.25C513.567 1129.36 565.448 1216.83 583.935 1241.91C585.439 1243.95 587.433 1246.6 589.82 1249.78L589.821 1249.78C610.829 1277.73 662.263 1346.16 677.775 1393.45C684.031 1381.37 688.373 1368.54 692.689 1355.8L692.69 1355.79C694.393 1350.76 696.092 1345.74 697.903 1340.79C708.352 1312.21 717.857 1283.17 727.14 1254.07C730.791 1242.62 734.055 1231.02 737.318 1219.42L737.319 1219.42L737.321 1219.41C739.964 1210.01 742.608 1200.62 745.458 1191.3C749.767 1177.21 754.288 1163.21 758.809 1149.21L758.811 1149.2L758.813 1149.2C761.845 1139.8 764.878 1130.41 767.847 1120.99C769.86 1114.6 771.774 1108.18 773.688 1101.75L773.691 1101.74C775.823 1094.58 777.954 1087.42 780.222 1080.32C788.472 1054.49 790.59 1049.81 814.172 1050.56C843.432 1051.5 877.784 1061.92 897.803 1070.34C993.881 1110.73 1146.34 1210.88 1217.46 1360.52C1241.28 1410.64 1260.78 1459.78 1277.05 1500.79C1294.5 1544.76 1308.24 1579.39 1319.62 1595.87C1329.18 1609.72 1328.12 1617.84 1315.62 1627.89C1314.01 1629.19 1312.47 1630.61 1310.93 1632.03C1306.96 1635.68 1302.99 1639.35 1297.73 1640.95C1292.14 1642.66 1290.43 1647.54 1291.18 1653.94C1293.51 1673.73 1295.67 1693.54 1297.68 1714.4C1293.58 1715.47 1289.69 1715.47 1284.41 1714.5C1280.36 1705.27 1280.61 1696.56 1280.85 1687.98L1280.85 1687.96C1280.86 1687.62 1280.87 1687.28 1280.88 1686.95C1281.3 1671.5 1277.31 1657.29 1273.14 1642.4C1272.13 1638.82 1271.12 1635.21 1270.15 1631.52C1266.79 1632.91 1263.46 1634.15 1260.18 1635.37C1253.16 1637.98 1246.41 1640.49 1240.17 1644.14C1216 1658.31 1190.79 1669.17 1164.12 1674.71C1143.2 1679.05 1133.61 1691.83 1136.53 1715.46C1131.47 1715.61 1126.4 1715.22 1121.4 1714.29C1119.39 1672.62 1144.63 1662.68 1177.18 1649.88C1180.98 1648.38 1184.89 1646.84 1188.86 1645.21C1236.32 1625.72 1296.9 1598.01 1296.9 1598.01C1296.9 1598.01 1235.76 1454.1 1214.35 1399.8C1172.31 1293.21 1066.66 1203.07 1063.19 1200.26C1057.61 1195.73 1052.07 1191.16 1046.53 1186.58ZM731.261 1287.72C715.633 1335.26 697.922 1381.85 679.741 1428.19C665.775 1463.77 650.538 1498.74 635.314 1533.68L633.754 1537.26C628.346 1549.67 623.21 1562.23 618.073 1574.79L618.072 1574.79C610.615 1593.02 603.157 1611.25 594.864 1629.05C588.153 1643.46 582.373 1658.41 576.593 1673.37L576.592 1673.37C573.96 1680.18 571.329 1686.99 568.609 1693.75C568.447 1694.15 568.271 1694.56 568.095 1694.96C566.923 1697.66 565.734 1700.39 568.483 1702.95C570.608 1704.92 572.85 1703.45 574.695 1701.96C577.136 1700 579.472 1697.88 581.69 1695.6C586.057 1691.12 590.401 1686.6 594.745 1682.09L594.76 1682.07L594.768 1682.06C600.858 1675.73 606.947 1669.4 613.1 1663.15C619.575 1656.57 626.094 1650.05 632.614 1643.53L632.618 1643.52C643.197 1632.94 653.776 1622.35 664.166 1611.53C671.678 1603.71 678.208 1594.79 684.722 1585.9C691.677 1576.4 698.614 1566.92 706.706 1558.84C727.839 1537.73 747.718 1515.6 765.541 1490.97C771.741 1482.4 778.203 1474.07 784.665 1465.75C799.006 1447.27 813.349 1428.78 824.84 1407.65C829.969 1398.21 831.215 1391.55 822.428 1383.86C815.718 1377.98 810.113 1370.34 804.625 1362.86C804.379 1362.53 804.133 1362.19 803.887 1361.86C803.772 1361.7 803.656 1361.54 803.539 1361.39C800.431 1357.17 796.858 1352.33 800.338 1345.68C807.749 1344.78 815.199 1344.37 822.651 1344.45C843.659 1344.53 864.676 1343.71 885.681 1342.89C886.908 1342.84 888.136 1342.79 889.363 1342.74C896.599 1342.46 901.278 1338.4 901.621 1329.37C901.954 1320.62 902.447 1311.89 902.94 1303.15C903.095 1300.41 903.25 1297.67 903.399 1294.93C903.856 1286.57 904.388 1278.22 904.92 1269.87C906.732 1241.42 908.544 1212.98 907.369 1184.35C906.375 1160.08 905.964 1135.66 907.288 1111.46C907.951 1099.33 904.006 1093.77 895.625 1088.51C872.005 1073.67 846.127 1070.15 820.193 1066.62C816.341 1066.1 812.487 1065.57 808.639 1065.01C801.963 1064.04 799.791 1068.37 798.131 1073.75C796.502 1079.02 794.639 1084.19 792.776 1089.36L792.775 1089.36C789.98 1097.12 787.182 1104.88 785.165 1113.03C781.866 1126.36 777.181 1139.17 772.498 1151.97L772.497 1151.97C769.695 1159.63 766.894 1167.28 764.39 1175.05C759.759 1189.43 755.695 1204.03 751.593 1218.76L751.593 1218.76C745.716 1239.87 739.763 1261.26 731.953 1282.67C731.876 1284.37 731.644 1286.07 731.261 1287.72ZM490.602 1115.72C490.783 1116.12 490.963 1116.52 491.141 1116.92C507.641 1153.76 587.347 1273.56 618.879 1317.37C620.219 1319.23 621.746 1321.3 623.408 1323.56C639.913 1345.93 669.684 1386.3 661.38 1419.14C653.049 1452.09 642.389 1484.92 627.468 1515.13C626.516 1517.05 625.87 1519.16 625.213 1521.3C623.927 1525.5 622.602 1529.82 618.879 1533.1C605.905 1511.04 590.622 1491.14 575.339 1471.23C568.415 1462.21 561.49 1453.19 554.781 1443.97C549.976 1437.37 544.621 1431.35 539.259 1425.31C534.802 1420.3 530.34 1415.28 526.182 1409.92C521.061 1403.31 521.59 1399.01 524.829 1393.58C528.339 1387.7 530.539 1381.21 532.734 1374.73C533.351 1372.91 533.967 1371.09 534.611 1369.29C539.27 1356.26 536.081 1349.47 523.837 1345.64C515.334 1342.97 506.632 1342.93 497.925 1342.88C492.333 1342.85 486.738 1342.82 481.194 1342.09C480.574 1342.01 479.937 1342.15 479.295 1342.28C478.807 1342.38 478.316 1342.49 477.829 1342.49C450.031 1342.96 447.601 1340.47 438.685 1311.66C426.424 1271.97 418.138 1230.86 413.982 1189.08C413.099 1180.34 411.431 1171.7 409.759 1163.04C408.306 1155.52 406.85 1147.98 405.903 1140.33C403.945 1124.52 406.435 1118.8 419.226 1113.27C433.815 1106.96 438.309 1100.6 442.421 1094.79C447.002 1088.3 451.11 1082.49 468.179 1078.17L468.379 1078.12C481.685 1074.75 482.641 1074.51 483.18 1090.54C483.494 1099.9 487.173 1108.09 490.602 1115.72Z" fill="black"/>
<path d="M1105.21 603.172C1103.87 646.797 1083.36 680.199 1052.37 706.279C1032.04 723.163 1014.24 742.893 999.535 764.861C983.48 788.93 959.955 805.415 933.116 816.689C924.835 820.168 919.152 817.443 915.661 809.445C914.982 807.889 914.027 806.326 913.853 804.697C909.715 765.73 894.672 728.597 909.053 687.031C918.801 658.859 919.534 626.601 913.245 595.017C899.013 523.545 857.524 475.288 857.253 474.827C855.751 472.294 853.023 470.742 850.078 470.745C847.132 470.748 844.408 472.306 842.911 474.842C825.711 504.327 806.534 514.842 776.139 530.054C742.782 546.754 707.69 555.277 669.504 548.989C641.147 544.318 612.194 540.009 584.18 552.742C519.821 581.995 487.847 633.021 483.139 702.399C482.439 712.641 482.215 722.846 477.925 732.399C475.985 736.719 473.853 741.639 468.445 741.487C463.098 741.337 462.688 735.744 461.436 731.934C455.336 712.961 447.063 694.757 436.781 677.685C431.214 668.55 423.167 662.365 414.639 656.911C403.356 649.696 392.262 651.821 382.562 662.321C369.143 676.833 364.496 695.572 363.362 713.993C361.72 740.557 360.226 767.605 371.962 793.193C375.301 800.47 373.328 806.293 363.362 810.499C340.821 820.008 319.403 823.09 297.529 810.009C295.339 808.7 291.946 807.857 291.179 805.962C285.205 791.201 272.268 791.88 259.904 791.329C222.061 789.641 210.197 754.888 221.126 727.229C224.009 719.929 225.508 711.881 231.451 705.566C236.224 700.495 233.751 695.966 227.442 692.63C191.415 673.545 188.76 623.663 221.942 598.205C230.856 591.366 234.033 595.588 244.514 590.743C247.729 589.279 249.658 585.933 249.314 582.417C247.992 570.061 247.785 547.758 248.332 535.13C250.011 496.39 264.824 466.73 302.016 450.338C311.799 446.025 320.938 441.28 331.891 440.338C340.03 439.638 345.058 435.349 346.679 425.813C349.219 410.866 351.786 395.725 358.605 381.772C372.943 352.43 396.449 336.35 428.415 330.828C449.352 327.211 470.24 323.563 491.432 322.016C504.815 321.039 509.252 309.677 515.337 301.021C541.597 263.662 576.186 238.335 619.117 222.564C657.251 208.556 696.096 207.772 734.746 214.3C760.806 218.7 785.474 230.16 808.839 243.544C831.601 256.582 850.309 274.031 867.287 293.628C873.047 300.277 880.477 300.397 888.325 299.962C914.525 298.509 940.625 300.409 963.712 313.51C998.512 333.256 1022.14 357.761 1017.84 394.65C1015.87 411.623 1006.34 439.344 995.79 454.574C994.415 456.543 993.954 459.009 994.526 461.342C995.097 463.674 996.645 465.648 998.775 466.759C1058.31 497.586 1108.03 527.883 1105.21 603.172Z" fill="black"/>
<path d="M415.188 873.121C399.48 871.575 390.888 862.276 391.91 849.435C392.519 841.753 395.583 839.658 402.699 843.256C430.585 857.356 446.328 850.834 455.477 821.363C456.635 817.631 457.134 813.915 461.677 812.604C469.049 815.191 469.128 822.534 468.918 827.487C467.957 850.087 472.81 871.973 475.418 894.132C476.718 905.17 473.047 909.045 461.946 908.477C442.074 907.461 430.716 898.957 425.226 879.712C423.686 874.309 420.986 872.939 415.188 873.121Z" fill="black"/>
<path d="M783.942 941.541C788.829 927.257 788.091 925.3 774.178 922.83C763.992 921.023 754.85 916.535 745.184 913.43C734.298 909.935 727.166 899.636 715.711 896.916C709.703 926.69 749.444 953.419 783.942 941.541Z" fill="white"/>
<path fill-rule="evenodd" clip-rule="evenodd" d="M712.638 937.133C731.09 954.29 753.299 962.638 780.059 958.318C782.275 957.402 784.424 956.573 786.507 955.769C791.252 953.939 795.653 952.241 799.716 949.947C804.859 947.047 809.021 940.818 804.516 936.172C794.585 925.93 799.565 920.023 808.51 914.039C812.406 911.432 814.918 907.794 812.84 903.262C810.109 897.298 804.836 899.465 800.709 901.222C795.869 903.282 790.927 903.798 785.873 904.326C785.043 904.413 784.21 904.5 783.374 904.594C758.616 907.384 738.534 895.688 718.57 884.061C718.39 883.956 718.209 883.851 718.028 883.745C706.224 876.871 699.018 879.187 697.485 892.965C695.617 909.764 700.278 925.639 712.638 937.133ZM774.177 922.833C788.09 925.303 788.828 927.26 783.941 941.544L783.942 941.54C749.444 953.418 709.703 926.689 715.71 896.919C721.774 898.359 726.627 901.923 731.466 905.477C735.768 908.637 740.06 911.789 745.183 913.433C748.465 914.488 751.687 915.701 754.909 916.915C761.178 919.277 767.45 921.64 774.177 922.833Z" fill="black"/>
<path d="M732.373 822.449C737.825 813.773 755.032 810.285 764.532 815.19C771.058 818.559 777.495 822.814 784.513 816.85C791.019 811.321 789.113 804.696 785.981 798.217C784.4 794.947 785.171 792.517 788.215 790.654C791.19 788.832 793.734 789.567 796.442 791.472C804.084 796.848 805.995 805.194 804.371 812.972C802.839 820.305 800.643 828.994 791.738 832.017C787.749 833.371 782.944 835.51 779.396 834.417C764.015 829.677 745.609 837.743 732.373 822.449Z" fill="black"/>
<path d="M843.248 725.156C856.302 725.485 868.615 726.277 880.859 727.672C883.812 728.009 885.779 730.995 885.847 734.323C885.915 737.651 884.091 739.964 881.122 741.264C869.953 746.155 859.101 749.564 847.413 741.525C840.937 737.07 838.505 732.858 843.248 725.156Z" fill="black"/>
<path d="M688.747 727.87C694.886 731.222 693.86 734.943 690.81 738.703C684.318 746.703 662.604 748.781 654.362 742.169C649.674 738.409 647.085 733.562 650.011 727.769C653.035 721.784 658.211 722.859 663.09 725.306C671.072 729.317 679.41 728.389 688.747 727.87Z" fill="black"/>
<path fill-rule="evenodd" clip-rule="evenodd" d="M884.205 684.292C888.927 685.272 893.431 685.273 897.823 685.275C902.574 685.276 907.194 685.278 911.817 686.519C924.803 690.006 929.617 698.834 932.599 710.664C937.689 730.857 938.788 750.714 932.735 770.983C929.305 782.471 925.653 789.369 910.772 789.301C883.224 789.175 855.597 789.789 828.028 790.555C793.321 791.519 785.161 777.206 780.293 744.445C777.98 728.883 773.193 722.745 758.961 723.225C747.455 723.613 740.429 731.52 740.613 746.005C740.805 761.105 734.232 773.405 725.424 784.334C716.362 795.58 703.822 794.246 691.718 792.958L691.718 792.958C689.382 792.709 687.062 792.462 684.786 792.308C671.91 791.435 659.065 790.109 646.22 788.782C636.261 787.753 626.301 786.725 616.325 785.908C603.772 784.877 594.484 777.948 593.305 765.257C592.881 760.674 591.719 756.316 590.562 751.983C589.537 748.141 588.517 744.318 588.021 740.374C587.338 734.943 584.702 731.929 579.921 730.074C541.615 715.239 503.313 700.394 465.013 685.54C458.907 683.18 454.475 678.814 448.765 673.188C448.345 672.774 447.919 672.354 447.484 671.928C461.184 669.18 472.137 673.701 482.236 678.603C513.536 693.795 546.182 705.235 579.242 715.736C586.122 717.921 588.609 713.605 590.919 708.95C591.824 707.127 592.514 705.188 593.204 703.252L593.204 703.252L593.204 703.252C594.084 700.782 594.961 698.317 596.279 696.107C606.645 678.717 620.267 674.043 643.472 677.246C648.276 677.909 653.074 678.638 657.872 679.368C673.632 681.764 689.404 684.162 705.472 684.218C729.807 684.304 735.661 688.939 742.96 712.636C743.868 712.478 744.777 712.316 745.689 712.153L745.692 712.152C756.103 710.292 766.8 708.38 777.393 713.45C782.148 715.723 783.572 711.004 784.67 707.068C789.818 688.606 795.633 684.091 814.009 684.107C837.03 684.127 860.05 684.198 884.205 684.292ZM623.847 686.777C618.133 686.721 612.996 687.477 609.77 693.277C596.87 716.469 594.13 740.555 602.829 765.777C604.291 770.017 606.287 773.262 611.569 773.684C642.047 776.116 672.514 778.682 702.969 781.384C709.525 781.959 713.759 779.311 718.288 774.493C729.318 762.76 729.862 748.265 730.391 734.175L730.391 734.173C730.475 731.943 730.558 729.724 730.682 727.528C732.175 701.179 729.899 699.376 701.596 694.872C683.722 692.025 665.641 690.466 646.906 688.851C639.337 688.198 631.661 687.536 623.849 686.777H623.847ZM795.488 764.863C791.628 755.513 787.702 746.003 789.484 735.362H789.486C790.715 731.064 791.533 726.876 792.325 722.823C793.782 715.363 795.149 708.363 798.823 701.992C802.139 696.24 806.341 693.642 813.149 693.462C844.642 692.63 875.946 695.079 907.266 697.786C913.754 698.347 918.022 701.338 919.541 707.056C925.025 727.706 929.223 748.389 921.632 769.68C919.455 775.785 917.034 778.93 910.203 778.863C907.271 778.834 904.338 778.803 901.406 778.773C871.242 778.458 841.079 778.143 810.92 779.999C803.174 780.475 799.011 773.481 796.474 767.262C796.149 766.463 795.819 765.664 795.488 764.863Z" fill="black"/>
<path d="M654.766 657.385C664.317 646.83 676.602 641.172 686.421 632.38C691.043 628.242 695.891 629.619 699.843 634.019C703.638 638.246 707.124 642.319 702.543 648.496C691.694 663.146 676.243 671.36 659.827 676.756C645.427 681.489 629.966 683.027 614.951 685.851C610.535 686.682 604.776 689.059 603.501 682.175C602.274 675.549 606.664 672.175 612.96 670.964C627.15 668.237 641.438 665.779 654.766 657.385Z" fill="black"/>
<path d="M887.86 655.513C899.17 657.573 905.901 666.535 915.725 669.669C919.47 670.863 924.093 674.346 922.3 679.214C920.164 685.014 914.208 683.479 910.076 682.114C896.854 677.735 883.61 673.231 870.868 667.65C858.078 662.05 845.797 655.25 833.457 648.666C827.529 645.503 821.944 640.842 826.135 633.487C830.265 626.239 837.193 623.975 844.442 629.793C857.464 640.241 873.044 646.279 887.86 655.513Z" fill="black"/>
</g>
</svg>
