<svg width="1392" height="1392" viewBox="0 0 1392 1392" fill="none" xmlns="http://www.w3.org/2000/svg">
<mask id="mask0_205_3407" style="mask-type:luminance" maskUnits="userSpaceOnUse" x="0" y="0" width="1392" height="1392">
<circle cx="696" cy="696" r="696" fill="white"/>
</mask>
<g mask="url(#mask0_205_3407)">
<path d="M983.504 960.174C893.701 1241.68 653.795 1328.61 526.94 978.964C509.496 930.88 555.108 912.984 587.006 891.825C608.856 877.332 620.333 864.764 619.002 851.807C612.722 790.677 585.532 620.607 585.532 620.607L582.766 615.127C582.766 615.127 583.429 613.591 580.826 616.308C578.113 619.14 571.858 648.711 547.202 648.711C525.098 648.711 502.656 638.376 491.917 566.861C488.03 540.981 490.236 473.131 517.62 460.879C528.936 455.816 539.375 454.007 549.56 460.082C559.744 466.158 537.81 439.313 651.08 340.591C724.707 276.42 841.007 267.015 887.935 277.85C934.863 288.685 981.791 312.709 1002.55 363.584C1027.73 425.315 979.083 471.93 989.768 612.519C987.822 663.314 990.609 774.794 856.959 812.158C831.575 819.255 839.45 858.04 877.525 867.521C938.263 887.431 983.552 936.039 983.552 960.302" fill="white"/>
<path fill-rule="evenodd" clip-rule="evenodd" d="M983.539 522.598L983.683 521.276C987.437 486.759 991.075 453.308 1008.29 423.264C1014.14 427.455 1013.46 432.767 1011.63 437.688C993.575 486.234 995.232 536.668 996.889 587.075C997.034 591.49 997.179 595.905 997.311 600.319C999.198 663.299 984.178 720.552 944.024 768.667C930.088 785.365 911.641 796.852 892.805 806.884C873.46 817.188 869.394 825.929 875.429 848.178C875.649 848.99 875.92 849.805 876.192 850.623L876.192 850.623C877.428 854.342 878.68 858.109 875.248 861.785C871.149 866.174 866.671 864.922 861.827 863.567C861.644 863.515 861.46 863.464 861.275 863.413C815.639 850.683 774.813 827.846 737.064 798.681C731.699 794.537 727.287 788.885 723.017 783.413L722.74 783.059C720.492 780.18 720.095 775.688 723.24 773.148C726.183 770.771 728.5 772.72 731.077 774.889C731.405 775.165 731.738 775.446 732.078 775.721C752.448 792.254 774.882 803.109 801.167 805.84C813.322 807.103 825.353 806.637 837.374 806.172H837.374C844.137 805.91 850.897 805.648 857.674 805.695C866.956 805.758 874.581 801.254 881.842 796.966C882.704 796.457 883.562 795.95 884.417 795.455C909.659 780.811 933.625 764.394 949.9 737.944C964.483 714.241 973.315 688.423 978.516 661.253C985.082 626.957 984.487 592.285 983.884 557.13V557.129V557.129C983.687 545.671 983.49 534.162 983.539 522.598ZM527.316 451.134C547.163 449.465 558.217 461.761 567.524 476.002C578.971 493.516 585.068 513.368 587.77 534.328C588.223 537.844 588.693 541.582 586.666 545.027C582.663 545.59 582.284 542.268 582.223 539.775C581.719 520.175 573.407 503.077 565.05 486.528C559.087 474.723 550.32 463.285 536.617 460.38C520.994 457.069 506.624 471.747 499.561 490.971C486.479 526.578 488.648 561.623 500.819 596.133C506.145 611.234 512.779 626.618 526.064 637.155C539.517 647.825 555.713 645.943 565.589 631.772C566.154 630.962 566.751 630.16 567.35 629.357L567.35 629.356C569.16 626.927 570.983 624.479 571.958 621.722C573.868 616.318 576.788 611.179 582.136 611.932C588.321 612.803 589.493 619.807 590.071 625.278C595.328 674.986 602.626 724.379 609.926 773.777L609.927 773.787C611.737 786.04 613.548 798.293 615.327 810.552C617.684 826.774 620.415 850.074 618.584 859.983C618.455 860.687 618.38 861.379 618.309 862.042L618.309 862.043C618.029 864.637 617.799 866.772 614.545 867.284C610.129 867.98 608.131 865.302 607.589 861.149C605.486 845.026 604.906 838.838 604.001 814.175C603.124 790.268 598.828 766.703 594.532 743.143C592.974 734.596 591.416 726.048 590.021 717.485C585.27 688.324 580.62 658.749 580.202 625.541C579.571 626.519 578.953 627.483 578.345 628.432L578.345 628.432C571.503 639.117 565.917 647.839 556.141 651.235C539.914 656.876 525.715 652.7 514.341 639.289C501.378 624.003 492.958 606.608 488.221 586.404C480.684 554.253 479.288 522.758 489.063 490.982C493.748 475.737 510.55 448.653 527.316 451.134ZM558.739 572.019C562.701 574.998 566.293 577.699 569.606 566.921C568.54 526.819 556.249 501.222 537.096 500.253C547.317 514.062 557.119 527.541 557.946 546.237C553.659 544.195 550.901 540.982 548.257 537.903C546.416 535.758 544.631 533.678 542.423 532.104C541.482 531.433 540.562 530.691 539.633 529.942C535.348 526.486 530.899 522.898 523.497 525.592C526.969 531.119 531.75 535.02 536.486 538.884C541.955 543.346 547.364 547.759 550.622 554.568C540.999 561.813 536.858 571.35 541.852 582.861C546.184 592.849 552.592 601.102 565.283 601.704C564.809 595.708 561.025 591.343 557.348 587.103C552.876 581.946 548.563 576.972 550.553 569.468C553.453 568.045 556.173 570.09 558.739 572.019Z" fill="black"/>
<path d="M1354.09 1464.97L167.711 1465.78C167.711 1465.78 233.829 1203.25 251.446 1173.13C269.063 1143.02 339.877 1041.61 339.094 1024.39C338.312 1007.17 340.445 945.949 352.398 921.717C364.351 897.486 402.483 864.321 417.351 861.895C432.22 859.469 482.305 857.044 513.608 848.961C544.912 840.877 573.822 830.898 605.632 830.898C610.8 830.898 605.8 842.592 605.8 842.592C605.8 842.592 607.45 957.198 755.201 964.386C865.357 969.744 901.847 854.221 901.847 854.221C901.847 854.221 877.64 831.975 884.989 831.324C971.635 823.653 1017.12 843.705 1043.41 848.961C1067.67 853.811 1088.01 853.811 1112.27 871.596C1140.09 891.989 1154.47 938.127 1185.58 1008.85C1221.26 1089.92 1361.64 1335.97 1354.07 1465.5" fill="white"/>
<path fill-rule="evenodd" clip-rule="evenodd" d="M1071.74 1420.86L1071.74 1420.85C1071.01 1385.99 1070.27 1351.15 1065.93 1316.29C1061.94 1284.33 1057.35 1252.41 1052.32 1220.7C1044.07 1168.56 1033 1116.86 1021.86 1065.27C1018.03 1047.5 1011.45 1030.15 1004.38 1013.4C999.223 1001.17 994.898 988.629 990.573 976.086L990.572 976.084C985.619 961.717 980.666 947.351 974.464 933.466C973.376 931.031 972.009 928.815 970.6 926.53C967.969 922.265 965.192 917.762 963.805 911.148C920.77 998.734 854.617 1044.15 761.405 1044.56C669.669 1044.98 601.789 1001.29 552.396 922.447C544.578 928.953 541.023 938.265 537.782 946.753L537.782 946.754C537.377 947.816 536.976 948.864 536.573 949.893C519.708 992.916 503.885 1036.2 498.97 1083.2C496.127 1110.38 492.084 1137.53 488.047 1164.63C487.516 1168.2 486.985 1171.77 486.456 1175.33C480.181 1217.71 474.719 1260.32 471.702 1303.18C467.868 1357.62 463.792 1412.05 459.552 1467.54C455.301 1468.59 451.321 1468.59 446.348 1468.59C449.541 1445.4 450.337 1421.78 451.063 1398.41C452.509 1351.8 457.669 1305.65 462.834 1259.46L462.834 1259.46C464.252 1246.78 465.67 1234.09 467.011 1221.4C469.792 1195.08 473.45 1168.91 477.107 1142.73C480.712 1116.94 484.316 1091.15 487.08 1065.23C491.481 1023.96 506.92 985.33 523.259 947.4L524.015 945.645L524.015 945.645C533.466 923.691 542.886 901.808 558.027 883.246C569.736 868.898 582.973 856.113 598.683 846.616C611.287 838.997 615.409 840.628 619.656 855.073C628.327 884.566 643.481 909.902 667.968 927.141C706.738 954.436 748.718 966.765 796.109 952.412C829.147 942.406 856.468 925.107 876.141 895.947C883.757 884.655 890.638 872.568 892.932 858.385C891.22 857.708 889.533 857.063 887.871 856.427C883.947 854.927 880.156 853.477 876.473 851.776L876.427 851.754C873.756 850.521 870.33 848.939 871.758 844.799C872.863 841.595 875.492 839.266 878.904 839.756C908.926 844.038 937.389 850.799 957.256 878.337C975.832 904.081 989.414 931.828 1000.15 962.007C1002.42 968.373 1004.71 974.729 1007 981.085L1007 981.086C1018.39 1012.71 1029.77 1044.31 1038.15 1076.95C1041.45 1089.85 1043.95 1102.96 1046.45 1116.07L1046.45 1116.07L1046.45 1116.08C1047.51 1121.66 1048.57 1127.24 1049.7 1132.8C1051.2 1140.23 1052.79 1147.64 1054.39 1155.05C1058.05 1172.09 1061.71 1189.12 1064.27 1206.33C1066.03 1218.17 1067.97 1229.99 1069.91 1241.8L1069.91 1241.8L1069.91 1241.8C1075.44 1275.42 1080.96 1309.05 1082.41 1343.28C1083.12 1360.14 1084.31 1376.98 1085.5 1393.83L1085.5 1393.83C1086.51 1408 1087.51 1422.17 1088.23 1436.36C1088.62 1444.07 1087.87 1451.84 1087.09 1459.9C1086.84 1462.54 1086.58 1465.2 1086.36 1467.9C1081.96 1468.49 1077.52 1468.72 1073.09 1468.59C1072.41 1452.67 1072.08 1436.76 1071.74 1420.86ZM907.337 862.879C906.633 864.57 905.934 866.264 905.236 867.957C898.089 885.278 890.952 902.576 878.684 917.053C847.591 953.749 807.288 970.529 761.367 971.881C730.462 972.791 700.121 966.203 673.471 948.488C647.538 931.25 625.372 910.295 614.514 879.001C614.122 877.871 613.75 876.714 613.376 875.548C611.619 870.077 609.804 864.422 605.537 860.565C593.579 863.385 590.394 871.124 592.346 882.082C592.664 883.866 592.904 885.678 593.143 887.49C593.638 891.235 594.132 894.978 595.324 898.468C606.662 931.684 628.8 956.068 657.23 973.868C679.605 987.878 703.842 997.184 730.525 1000.62C785.254 1007.67 836.182 1000.13 881.337 965.202C908.829 943.937 925.656 915.825 929.704 880.364C931.314 866.284 923.202 859.781 907.333 862.879H907.337ZM577.713 882.763C595.853 959.672 647.485 996.557 717.084 1012.7C752.462 1021.94 785.988 1020.36 819.67 1011.33C857.148 1001.27 890.059 983.833 914.652 952.187C929.757 932.75 940.873 911.256 941.266 885.092C954.859 892.427 956.257 897.414 947.16 915.012C926.766 954.468 897.79 986.229 859.532 1006.77C817.443 1029.37 772.17 1035.29 724.809 1027.93C675.696 1020.29 635.277 996.336 599.914 961.921C587.187 949.534 577.585 934.441 568.006 919.383C565.965 916.174 563.924 912.966 561.855 909.787C559.391 906.001 561.029 902.984 563.405 900.088C566.589 896.209 569.788 892.343 573.117 888.32C574.619 886.505 576.147 884.658 577.713 882.763Z" fill="black"/>
<path fill-rule="evenodd" clip-rule="evenodd" d="M356.364 1468.59C360.453 1454.14 361.991 1439.18 363.532 1424.19L363.532 1424.19C364.306 1416.67 365.08 1409.14 366.178 1401.66C367.005 1396.03 367.807 1390.39 368.609 1384.75L368.609 1384.75C371.835 1362.08 375.059 1339.41 379.906 1316.94C381.298 1310.49 382.792 1304.06 384.287 1297.62L384.287 1297.62C387.184 1285.15 390.084 1272.66 392.254 1259.98C395.81 1238.36 402.002 1217.3 410.683 1197.3C424.193 1166.78 430.416 1134.71 430.878 1101.58C431.109 1085.03 433.115 1068.7 435.12 1052.37L435.121 1052.37C436.615 1040.2 438.109 1028.04 438.869 1015.78C440.302 992.66 439.215 969.785 437.865 944.908C434.434 947.77 431.13 950.573 427.897 953.316L427.893 953.319L427.892 953.319C421.088 959.091 414.598 964.596 407.908 969.828C369.076 1000.2 338.73 1038.47 312.82 1080.53C302.709 1096.95 294.24 1114.38 285.775 1131.8L285.775 1131.8C282.361 1138.83 278.947 1145.86 275.427 1152.81C260.947 1181.43 249.776 1211.34 238.932 1241.19C236.989 1246.54 235.027 1251.89 233.064 1257.24C216.891 1301.32 200.635 1345.63 194.271 1392.66C192.445 1406.15 188.893 1419.11 185.31 1432.18C182.132 1443.77 178.93 1455.45 176.886 1467.67C171.857 1468.58 167.118 1468.58 161.363 1468.58C162.201 1465.54 163.044 1462.5 163.888 1459.46L163.892 1459.44C171.559 1431.78 179.261 1404 183.182 1375.05C185.163 1360.43 189.244 1346.07 193.308 1331.77L193.308 1331.77C194.243 1328.48 195.177 1325.2 196.084 1321.91C200.094 1307.39 205.31 1293.31 210.53 1279.22L210.53 1279.22C215.062 1266.99 219.596 1254.75 223.346 1242.21C227.795 1227.34 233.785 1212.95 239.77 1198.56C241.975 1193.27 244.179 1187.97 246.306 1182.65C261.415 1144.86 280.224 1108.94 299.854 1073.56L300.136 1073.06C306.82 1061.01 313.702 1048.61 323.758 1038.65C331.583 1030.9 332.038 1020.84 332.488 1010.86C332.659 1007.07 332.829 1003.29 333.402 999.657C333.805 997.099 334.202 994.537 334.599 991.975L334.6 991.971C339.209 962.223 343.839 932.345 358.408 905.891C373.608 878.291 398.801 863.014 428.299 855.611C449.644 850.224 471.409 846.803 493.338 845.39C502.369 844.813 511.236 841.847 520.127 838.872C524.905 837.273 529.691 835.672 534.512 834.439C539.073 833.272 543.617 832.002 548.162 830.732C565.466 825.896 582.779 821.058 601.093 821.882C601.414 821.897 601.737 821.908 602.062 821.919C605.755 822.048 609.536 822.18 610.137 827.027C610.736 831.86 607.538 832.475 604.209 833.115C603.61 833.23 603.008 833.346 602.422 833.487C589.732 836.536 577.057 839.661 564.383 842.786C540.413 848.697 516.445 854.607 492.368 860C481.884 862.348 471.037 863.072 460.231 863.794C457.551 863.973 454.874 864.152 452.206 864.355C444.493 864.943 437.129 865.978 430.687 870.31C454.081 885.376 467.838 905.739 467.448 934.743C467.216 951.901 467.89 969.049 468.563 986.195V986.196C469.452 1008.8 470.34 1031.4 469.153 1054.02C467.612 1083.47 464.37 1112.71 460.166 1141.97C457.727 1158.95 455.84 1176.06 453.953 1193.16C452.174 1209.29 450.396 1225.41 448.155 1241.42C445.915 1257.42 444.412 1273.46 442.91 1289.5C441.519 1304.35 440.129 1319.19 438.156 1333.98C435.844 1351.31 434.162 1368.73 432.48 1386.15L432.48 1386.16C431.026 1401.22 429.572 1416.28 427.711 1431.29C427.236 1435.11 427.01 1438.97 426.783 1442.86C426.307 1450.99 425.824 1459.26 423.05 1467.66C417.982 1468.56 412.806 1468.6 407.726 1467.78C415.537 1436.27 419.206 1404.42 422.826 1372.98C422.965 1371.78 423.103 1370.58 423.241 1369.38C425.024 1353.93 426.333 1338.4 427.643 1322.87L427.643 1322.87C429.777 1297.56 431.912 1272.23 436.103 1247.16C437.793 1237.05 438.548 1226.84 439.304 1216.64V1216.64C440.282 1203.42 441.261 1190.2 444.272 1177.18C451.817 1144.55 454.246 1110.96 456.011 1077.73C458.614 1028.76 459.259 979.537 456.354 930.487C455.431 914.931 452.183 899.132 438.635 886.453C440.064 891.097 441.675 895.541 443.243 899.866C446.577 909.063 449.713 917.716 450.481 926.589C452.704 952.301 452.893 978.291 452.462 1004.14C451.958 1034.34 448.76 1064.34 445.561 1094.34C444.455 1104.71 443.349 1115.09 442.354 1125.47C439.099 1159.43 434.447 1193.2 429.796 1226.96C427.723 1242.01 425.651 1257.06 423.702 1272.12C421.94 1285.73 420.579 1299.39 419.219 1313.03C417.58 1329.48 415.942 1345.91 413.605 1362.24C412.125 1372.59 411.228 1383 410.331 1393.42C408.837 1410.76 407.343 1428.11 403.16 1445.14C402.881 1446.28 402.566 1447.43 402.247 1448.6C400.513 1454.95 398.646 1461.79 401.755 1468.59C396.695 1468.71 391.633 1468.4 386.622 1467.66C387.282 1460.32 388.39 1453.3 389.485 1446.36L389.485 1446.36L389.485 1446.36C390.458 1440.2 391.42 1434.11 392.048 1427.91C393.346 1415.14 394.736 1402.37 396.127 1389.61L396.128 1389.6L396.128 1389.6C397.665 1375.49 399.203 1361.38 400.614 1347.25C403.328 1320.09 406.854 1293.01 410.381 1265.94L410.381 1265.94C411.885 1254.39 413.389 1242.84 414.829 1231.29C413.124 1238.88 410.92 1246.37 408.719 1253.84L408.719 1253.84C405.559 1264.57 402.405 1275.27 400.744 1286.27C398.371 1301.97 395.228 1317.51 392.084 1333.05C387.994 1353.27 383.903 1373.5 381.506 1394.09C380.679 1401.19 379.678 1408.27 378.677 1415.35C376.181 1432.99 373.687 1450.63 373.9 1468.59H356.364ZM411.002 948.78C416.597 942.723 422.553 937.058 429.582 932.853C435.666 929.211 437.331 923.504 435.178 917.509C434.146 914.635 433.715 911.46 433.284 908.28C432.283 900.908 431.278 893.502 422.765 889.73C418.231 887.72 413.853 889.508 410.748 891.878C404.914 896.332 398.842 901.284 394.91 907.426C379.332 931.761 370.732 959.166 362.594 990.243C372.521 979.965 382.668 971.879 392.788 963.814L392.788 963.814C398.887 958.953 404.976 954.1 411.002 948.78ZM376.898 911.269C367.983 933.334 359.071 955.394 356.915 979.617C356.69 992.006 351.862 1000.55 346.582 1008.96C347.757 1003.36 348.863 997.747 349.969 992.13C356.145 960.756 362.321 929.386 380.618 902.011C379.39 905.101 378.144 908.185 376.898 911.269Z" fill="black"/>
<path fill-rule="evenodd" clip-rule="evenodd" d="M1322.4 1332.38C1336.78 1376.48 1344.34 1422.43 1351.14 1468.59C1356.11 1468.59 1360.09 1468.59 1364.34 1467.57C1360.78 1430.7 1352.84 1395.65 1344.9 1360.64L1344.79 1360.14C1341.05 1343.66 1335.84 1327.61 1330.62 1311.55C1329.1 1306.86 1327.58 1302.17 1326.09 1297.47C1314.02 1259.33 1301.69 1221.37 1286.5 1184.41C1278.51 1164.96 1268.71 1146.57 1258.87 1128.11C1254.65 1120.21 1250.74 1112.13 1246.83 1104.05C1238.29 1086.41 1229.76 1068.78 1218.04 1052.94C1216.83 1051.3 1215.57 1049.67 1214.3 1048.02C1209.01 1041.14 1203.59 1034.1 1201.1 1026.2C1190.87 993.702 1179.14 961.792 1167.42 929.888C1160.59 911.294 1151.2 893.722 1137.72 879.356C1119.23 859.657 1094.3 852.546 1069.63 846.508C1048.83 841.415 1027.85 837.119 1006.86 832.822C994.663 830.324 982.464 827.826 970.3 825.172C939.329 818.511 907.576 816.622 876.07 819.566C871.091 820.008 867.044 821.187 865.254 829.464C878.444 831.022 891.643 831.387 904.822 831.751C926.783 832.359 948.691 832.965 970.423 839.084C993.314 845.53 1016.65 850.628 1040.64 855.871C1051.93 858.336 1063.36 860.834 1074.96 863.518C1066.7 872.625 1066.42 881.691 1066.15 890.678C1066.11 892.101 1066.07 893.522 1065.99 894.941C1065.3 908.075 1067.26 920.924 1069.21 933.712C1070.55 942.546 1071.9 951.35 1072.36 960.2C1074.55 1002.25 1081.06 1043.58 1087.58 1084.9C1087.99 1087.52 1088.4 1090.15 1088.82 1092.78C1091.96 1112.75 1094.25 1132.81 1096.54 1152.87C1098.57 1170.71 1100.61 1188.55 1103.24 1206.32C1107.56 1235.42 1109.11 1264.79 1110.66 1294.16C1111.72 1314.13 1112.78 1334.11 1114.7 1354.01C1116.61 1373.76 1117.99 1393.57 1119.36 1413.4C1120.64 1431.79 1121.92 1450.2 1123.63 1468.59H1134.27C1133.79 1422.51 1130.47 1376.59 1127.16 1330.67C1125.46 1307.11 1123.76 1283.55 1122.44 1259.96C1121.34 1240.39 1118.68 1220.82 1116.01 1201.26C1114.64 1191.2 1113.27 1181.14 1112.11 1171.08C1108.7 1141.35 1104.18 1111.8 1099.67 1082.26C1095.78 1056.79 1091.88 1031.32 1088.7 1005.75C1087.16 993.427 1085.21 981.163 1083.26 968.899C1079.2 943.445 1075.15 917.991 1074.83 892.035C1074.7 881.772 1077.93 873.544 1086.19 866.73C1072.94 894.948 1078.74 922.178 1084.52 949.299C1086.04 956.408 1087.55 963.509 1088.72 970.619C1089.74 976.868 1091 983.1 1092.25 989.331C1094.77 1001.88 1097.29 1014.42 1097.96 1027.07C1098.52 1037.52 1100.43 1047.62 1102.34 1057.69C1103.68 1064.76 1105.01 1071.82 1105.88 1078.97C1108.11 1097.49 1111.01 1115.91 1113.91 1134.32C1118.43 1163.04 1122.96 1191.76 1124.94 1220.9C1126.64 1245.74 1131.24 1270.45 1135.82 1295C1136.05 1296.22 1136.27 1297.45 1136.5 1298.68C1138.74 1310.7 1139.17 1322.87 1139.6 1334.78C1139.62 1335.43 1139.65 1336.08 1139.67 1336.72C1140.29 1354.05 1141.87 1371.3 1143.45 1388.54C1145.5 1411.01 1147.55 1433.46 1147.5 1456.06C1147.49 1457.42 1147.4 1458.78 1147.3 1460.19C1147.15 1462.47 1146.98 1464.89 1147.17 1467.66C1150.56 1468.4 1154.02 1468.71 1157.48 1468.59C1159.98 1426.16 1157.11 1383.89 1153.48 1339.3C1166.22 1376.68 1172.49 1413.64 1178.86 1451.21C1179.79 1456.64 1180.71 1462.08 1181.65 1467.54C1186.57 1468.53 1191.61 1468.62 1196.56 1467.8C1193 1459.51 1192.41 1451.02 1191.83 1442.7C1191.46 1437.44 1191.1 1432.25 1190 1427.22C1188.99 1422.65 1188 1418.07 1187.01 1413.5C1179.91 1380.65 1172.81 1347.78 1159.8 1316.48C1158.91 1314.33 1157.93 1312.17 1156.95 1309.99C1153.55 1302.47 1150.05 1294.69 1149.44 1286.31C1148.42 1272.3 1145.72 1258.54 1143.03 1244.87C1142.28 1241.02 1141.52 1237.18 1140.81 1233.34C1137.57 1215.96 1135.65 1198.43 1133.74 1180.9C1131.77 1162.92 1129.8 1144.93 1126.41 1127.1C1123.06 1109.47 1120.14 1091.76 1117.23 1074.05C1112.67 1046.35 1108.11 1018.63 1101.87 991.21C1101.28 988.607 1100.65 985.987 1100.02 983.342C1097.41 972.445 1094.69 961.118 1093.94 948.762C1095.44 949.374 1096.77 949.831 1097.94 950.237C1100.1 950.981 1101.76 951.554 1103.07 952.597L1104 953.34C1132.33 975.916 1160.75 998.561 1183.01 1027.86C1202.4 1053.39 1219.75 1080.15 1233.71 1109.68C1239.05 1120.97 1244.59 1132.14 1250.14 1143.31C1262.04 1167.28 1273.94 1191.26 1283.78 1216.42C1294.39 1243.56 1303.09 1271.3 1311.8 1299.04C1315.29 1310.16 1318.78 1321.29 1322.4 1332.38ZM1101.6 935.926C1096.02 932.642 1092.17 928.196 1091.2 921.444C1087.13 910.024 1087.23 900.064 1088.6 890.15C1090.58 875.835 1100.15 871.77 1112.61 877.865C1130.68 886.695 1138.59 903.737 1146.29 920.327C1147.09 922.061 1147.89 923.789 1148.7 925.503C1156.19 941.319 1162.31 957.827 1168.83 975.427C1171.75 983.305 1174.74 991.403 1177.98 999.754C1174.43 996.347 1170.96 992.986 1167.55 989.681C1150.58 973.249 1135.05 958.206 1117.34 945.866C1112.25 942.319 1106.94 939.068 1101.6 935.926Z" fill="black"/>
<path d="M549.995 821.359C590.992 801.23 603.897 811.86 603.897 811.86C603.897 811.86 602.753 823.373 611.083 852.726C628.524 914.169 723.22 915.234 755.161 911.199C788.909 906.936 869.233 882.585 873.933 862.199C883.125 822.329 858.674 819.35 873.288 818.092C887.902 816.834 950.446 817.361 993.802 888.606C995.997 892.214 1038.47 1032.81 991.584 1032.81C966.936 1032.81 929.273 956.844 904.069 980.934C863.866 1019.36 804.487 1052.73 730.86 1056.58C683.53 1059.05 603.273 1015.24 603.273 1015.24L557.886 986.598C557.886 986.598 507.621 1025.74 490.245 1015.88C467.43 1002.93 492.075 860.463 492.075 860.463C492.075 860.463 514.373 838.848 549.995 821.359Z" fill="white"/>
<path fill-rule="evenodd" clip-rule="evenodd" d="M490.002 850.221C490.002 850.221 544.487 812.437 577.448 805.567C595.139 801.881 603.122 800.542 612.473 813.757C615.898 818.596 616.351 823.665 616.784 828.524L616.784 828.526C616.846 829.226 616.908 829.92 616.979 830.609C619.412 854.425 630.26 873.057 648.902 886.265C659.352 893.67 672.375 897.353 684.706 898.683C729.363 903.496 774.112 904.119 817.463 889.362C834.972 883.402 851.885 875.396 865.757 862.114C874.257 853.978 874.363 848.01 865.766 840.181C862.396 837.112 863.412 834.476 864.532 831.569C864.896 830.624 865.271 829.651 865.511 828.624C869.387 812.008 870.288 810.397 887.567 812.556C913.84 815.837 940.512 821.982 960.438 840.193C1014.51 889.615 1014.65 917.043 1014.98 986.137C1015.03 996.179 1015.09 1007.1 1015.31 1019.1C1015.52 1030.48 1009.13 1036.08 998.464 1037.75C977.326 1041.07 963.033 1032.2 952.751 1013.62C948.584 1006.09 943.706 998.791 936.699 993.37C922.274 982.216 913.537 981.569 899.994 993.318C867.926 1021.14 832 1041.24 791.615 1052.57C734.28 1068.66 678.418 1064.07 624.857 1037.44C608.426 1029.27 592.221 1019.85 579.646 1005.45C575.425 1000.62 569.899 997.888 564.101 999.315C562.654 999.671 561.202 1000.02 559.75 1000.37L559.746 1000.37L559.746 1000.37C546.279 1003.62 532.738 1006.89 521.055 1015.37C509.886 1023.48 496.901 1025.27 485.14 1019.84C474.173 1014.78 474.441 1002.16 475.515 991.273C476.724 979.004 477.543 966.692 478.364 954.358C480.238 926.219 482.118 897.969 488.65 869.877C478.041 871.079 490.002 850.221 490.002 850.221ZM609.106 958.152C646.439 984.091 687.695 993.323 732.467 993.395C777.142 993.467 818.652 985.13 858.446 960.817C830.4 944.008 834.405 920.695 843.463 895.091C840.077 896.046 836.913 896.866 833.917 897.643L833.916 897.644C827.823 899.224 822.418 900.626 817.225 902.618C795.753 910.857 772.992 913.714 750.754 916.397C720.97 919.992 690.922 914.542 661.83 907.099C647.099 903.33 632.962 897.108 622.242 883.84C619.98 881.042 618.364 877.839 616.744 874.627C614.48 870.137 612.207 865.631 608.148 862.188C605.756 866.506 606.068 870.449 608.007 873.87C610.235 877.803 612.408 881.782 614.581 885.763L614.581 885.764L614.582 885.764L614.582 885.765C620.95 897.429 627.325 909.104 635.119 919.65C640.959 927.551 641.907 934.631 641.631 945.003C628.053 941.736 615.05 938.816 603.275 947.397C603.175 951.081 605.116 953.387 607.631 956.374C608.106 956.938 608.601 957.526 609.106 958.152ZM857.437 902.378L857.44 902.374L857.441 902.372C858.069 901.366 858.698 900.359 859.318 899.346C862.076 894.05 865.74 889.851 869.316 885.753C874.455 879.863 879.414 874.181 881.243 865.748C884.326 851.536 887.106 838.188 880.781 825.78C882.686 822.249 884.645 821.549 886.515 822.068C888.792 822.701 891.074 823.324 893.355 823.947L893.358 823.948C921.523 831.64 949.602 839.308 968.416 866.028C985.534 890.34 996.913 916.797 999.652 946.874C1001.46 966.682 1003.21 986.506 1004.34 1006.36C1004.41 1007.57 1004.56 1008.83 1004.72 1010.12C1005.48 1016.21 1006.29 1022.75 997.944 1025.7C987.8 1029.28 974.62 1025.02 969.162 1016.1C967.635 1013.6 966.332 1010.96 965.027 1008.32C964.057 1006.36 963.087 1004.4 962.024 1002.49C944.966 971.897 917.472 954.991 886.717 943.416C878.912 940.477 869.256 941.642 860.491 942.699L860.068 942.75L859.642 942.801L859.205 942.853C850.293 943.916 849.01 939.511 847.968 932.2C846.264 920.266 851.823 911.365 857.437 902.378ZM490.243 996.494C491.031 1009.73 493.872 1012.99 501.962 1008.09C504.226 1006.72 506.503 1005.38 508.777 1004.04C523.657 995.265 538.403 986.573 548.427 970.174C559.33 952.336 575.089 938.587 596.076 932.665C601.589 931.109 607.152 931.141 612.731 931.172H612.731C616.992 931.196 621.261 931.221 625.526 930.538C624.805 926.129 622.605 923.335 620.484 920.641L620.484 920.641C619.935 919.943 619.39 919.251 618.879 918.54C600.105 892.444 585.548 864.765 589.31 830.663C590.036 824.102 586.18 822.534 581.952 822.742C573.605 823.151 565.44 824.219 557.247 827.301C547.521 830.961 538.517 836.006 529.52 841.048L529.519 841.048C524.052 844.112 518.587 847.175 512.963 849.925C506.841 852.917 500.37 857.591 500.404 865.84C500.441 874.925 498.635 883.657 496.831 892.383C495.98 896.502 495.129 900.62 494.472 904.772C490.547 929.563 490.445 954.509 490.337 980.748V980.749C490.316 985.943 490.294 991.189 490.243 996.494ZM704.406 1006.56C735.174 1011.19 765.093 1006.68 795.175 1001.73V1001.73C820.696 995.372 843.053 986.683 864.007 973.393C872.077 968.276 881.429 969.099 891.452 969.98C895.559 970.342 899.779 970.713 904.07 970.689C890.171 986.463 874.527 996.686 859.08 1006.78C857.839 1007.59 856.6 1008.4 855.363 1009.21C832.114 1024.47 806.749 1035.59 779.725 1040.35C752.236 1045.2 724.777 1048.58 696.114 1044.38C664.817 1039.8 636.495 1029.6 610.559 1012.21C594.335 1001.33 578.539 989.17 567.307 972.04C584.272 960.382 591.691 960.98 607.134 972.182C636.266 993.315 669.734 1001.34 704.406 1006.56Z" fill="black"/>
<path d="M527.867 293.9C537.422 282.889 546.464 272.559 556.327 261.29C545.294 250.853 536.697 236.683 540.873 218.296C545.062 199.853 557.31 189.853 574.882 186.893C576.11 158.96 583.273 151.368 610.023 151.434C618.454 151.453 619.723 146.841 619.905 140.246C620.731 109.566 640.19 94.3698 664.17 84.5512C692.363 73.008 730.943 89.4482 746.574 117.443C752.746 128.497 756.72 140.094 757.574 152.765C758.164 161.523 760.565 165.723 770.447 164.047C813.011 156.849 852.434 169.145 891.345 185.786C934.727 204.336 969.3 235.404 999.904 270.846C1018.73 292.643 1033.91 318.375 1037.27 349.246C1039.22 367.261 1035.38 382.578 1020.16 393.509C1000.18 407.863 977.246 412.227 954.02 414.914C941.795 416.329 929.271 414.622 916.93 415.305C886.194 417.012 857.94 406.228 829.059 397.805C801.132 389.66 774.688 378.526 750.15 362.368C748.05 360.985 745.096 361.016 743.066 360.52C736.874 365.675 739.293 373.035 736.865 378.978C724.899 408.294 701.963 425.129 676.55 439.338C663.678 446.533 650.139 452.524 637.292 459.595C619.894 469.171 611.154 487.549 604.954 506.183C601.473 516.65 597.248 527.147 596.297 538.659C595.92 543.234 593.118 549.667 586.543 548.388C581.024 547.315 580.207 541.803 580.226 536.799C580.331 509.196 567.328 486.504 553.787 464.722C542.769 446.992 519.513 445.911 505.76 467.065C501.394 473.782 499.441 481.819 495.773 488.742C492.298 495.302 489.156 502.08 485.838 509.639C477.316 505.657 475.071 498.206 473.154 490.524C468.746 472.856 471.837 455.18 474.075 437.749C478.856 400.488 487.987 364.509 504.792 330.835C511.248 317.893 519.757 306.607 527.867 293.9Z" fill="black"/>
<path d="M881.568 617.254C886.164 602.396 876.148 592.318 872.155 580.729C864.399 558.218 857.464 535.782 858.569 511.481C858.766 507.15 857.934 501.336 863.997 501.489C868.654 501.609 871.159 506.395 871.34 510.982C872.69 544.64 884.417 575.096 897.564 605.12C900.042 610.776 899.476 615.629 896.548 621.098C888.869 635.44 876.304 640.103 861.928 640.565C854.025 640.819 848.39 636.273 845.453 626.127C858.147 624.387 872.055 630.669 881.568 617.254Z" fill="black"/>
<path d="M922.328 569.346C934.162 569.658 945.324 570.409 956.424 571.732C959.101 572.051 960.883 574.882 960.945 578.037C961.006 581.193 959.354 583.386 956.662 584.618C946.537 589.255 936.699 592.488 926.104 584.866C920.23 580.642 918.024 576.648 922.328 569.346Z" fill="black"/>
<path d="M777.402 564.142C783.743 564.142 784.544 567.704 783.748 572.218C782.061 581.829 765.686 593.421 756.255 591.666C750.892 590.667 746.726 587.811 746.537 581.663C746.343 575.311 750.928 573.852 755.875 573.67C763.966 573.375 770.197 568.816 777.402 564.142Z" fill="black"/>
<path d="M748.009 525.855C752.529 514.442 756.068 497.981 769.843 504.509C788.589 513.395 782.405 533.64 778.614 549.412C777.184 555.363 765.451 564.498 762.066 563.023C747.301 556.585 744.602 542.409 748.009 525.855Z" fill="black"/>
<path d="M953.639 560.737C945.866 567.806 938.256 567.943 933.568 559.315C925.307 544.108 925.76 528.193 936.581 514.526C938.842 511.672 949.048 511.085 951.335 513.633C963.975 527.723 964.519 543.704 953.639 560.737Z" fill="black"/>
<path fill-rule="evenodd" clip-rule="evenodd" d="M825.364 466.575C833.132 466.629 840.877 466.683 848.603 466.736C895.765 467.063 942.193 467.385 988.621 467.778C992.86 467.925 997.088 468.315 1001.29 468.948C1007.74 469.752 1010.71 472.918 1012.14 480.356C1017.79 509.604 1014.68 538.204 1006.45 566.054C1001.51 582.811 988.332 592.668 972.416 597.855C951.629 604.628 930.31 609.589 909.14 601.552C890.339 594.413 875.438 582.595 870.29 559.896C869.646 557.057 868.841 554.272 868.039 551.499C865.759 543.619 863.508 535.836 865.071 527.158C865.741 523.437 862.296 521.6 859.587 520.157L859.56 520.142C845.971 512.893 832.636 519.961 830.181 535.765C827.489 553.104 822.022 569.716 812.63 583.919C797.632 606.593 774.872 611.779 750.07 608.71C730.537 606.292 713.66 597.723 699.123 583.501C686.114 570.776 679.526 555.492 680.923 537.238C681.739 526.614 676.009 521.784 668.504 520.447C655.526 518.133 643.497 513.008 631.532 507.909C627.226 506.074 622.929 504.243 618.598 502.548C612.079 499.996 605.455 497.822 598.836 495.649C591.55 493.258 584.269 490.868 577.142 487.979C576.82 487.849 576.501 487.724 576.186 487.6L576.186 487.6C572.725 486.244 569.82 485.105 570.387 479.574C575.556 477.051 580.304 478.67 585.222 480.347C588.476 481.457 591.804 482.591 595.378 482.568C592.944 474.053 587.874 470.837 579.73 470.46C569.963 470.007 561.237 466.5 554.773 457.969C559.101 453.558 562.957 453.873 566.722 454.941C586.093 460.439 605.883 463.556 625.678 466.674C641.99 469.244 658.306 471.814 674.395 475.716C683.719 477.978 693.739 478.018 702.533 469.628C708.169 464.25 716.57 464.428 724.262 464.591L724.263 464.591C725.214 464.611 726.155 464.631 727.078 464.641C749.971 464.864 772.86 465.39 796.158 465.925C805.813 466.147 815.539 466.371 825.364 466.575ZM689.293 529.018C692.341 568.565 713.54 588.735 746.205 596.328C767.575 601.296 793.592 596.459 806.771 570.938C814.189 556.571 818.394 541.414 822.194 525.823C825.703 511.418 835.098 506.817 854.503 508.51C867.462 509.64 873.428 515.947 875.173 529.809C876.481 540.199 877.961 550.573 879.724 560.892C881.951 573.926 897.341 589.642 909.923 592.283C929.268 596.467 949.345 594.921 967.896 587.819C978.756 583.705 988.66 577.986 993.893 566.018C1003.03 545.113 1005.76 523.082 1005.48 500.394C1005.21 479.61 1004.01 478.208 983.448 478.123C970.674 478.069 957.9 478.085 945.126 478.101C927.414 478.123 909.703 478.144 891.993 477.982C869.354 477.776 846.715 477.472 824.077 477.168L824.076 477.168C797.735 476.814 771.394 476.46 745.052 476.26C741.895 476.236 738.638 475.916 735.364 475.594C725.626 474.638 715.744 473.667 707.95 480.431C699.844 487.464 691.782 487.442 683.108 487.419C682.067 487.416 681.017 487.413 679.957 487.423C677.691 487.443 675.457 486.955 673.199 486.463C669.388 485.631 665.507 484.784 661.282 486.336C662.48 500.383 665.536 512.661 681.173 515.941C686.927 517.145 689.988 520.521 689.289 529.018H689.293ZM620.569 478.379C628.586 477.289 635.992 476.283 638.603 488.385H638.599C639.976 492.881 641.01 495.713 642.28 499.194L642.297 499.239C630.506 496.614 621.29 491.919 616.798 478.844C618.059 478.72 619.321 478.548 620.569 478.379Z" fill="black"/>
<path d="M813.079 495.629C812.468 489.94 815.914 488.675 819.439 488.664C836.729 488.609 854.026 488.679 871.308 489.151C875.251 489.171 878.961 491.104 881.349 494.385C875.092 502.025 832.782 503.282 813.079 495.629Z" fill="black"/>
<path d="M729.117 461.867C754.229 440.867 783.068 443.744 811.431 444.672C816.632 444.843 822.539 445.948 824.367 452.675C826.35 459.969 820.233 461.972 816.39 465.683C802.256 479.33 786.576 481.884 769.069 473.899C759.26 469.425 749.647 471.01 740.218 475.416C738.46 476.238 736.739 477.156 734.947 477.886C729.195 480.23 721.997 483.613 718.11 477.458C714.102 471.111 723.17 469.003 725.635 464.459C726.147 463.502 727.417 462.983 729.117 461.867Z" fill="black"/>
<path d="M968.582 453.976C975.518 458.07 981.647 463.505 986.643 469.992C988.928 472.911 991.235 476.059 989.327 479.77C987.264 483.785 983.288 482.311 979.957 481.868C968.647 480.365 958.442 473.146 946.416 475.042C941.904 475.755 937.457 475.659 932.908 477.37C921.053 481.826 904.702 471.283 902.825 458.59C902.069 453.485 903.737 450.532 909.08 449.096C929.211 443.685 949.028 440.561 968.582 453.976Z" fill="black"/>
<path d="M778.683 714.396C777.595 709.811 775.907 705.56 780.731 703.596C784.751 701.961 788.045 704.067 790.975 706.957C800.811 716.657 812.17 724.77 825.423 728.025C852.468 734.669 876.447 727.541 896.616 708.133C899.967 704.908 903.294 701.648 906.81 698.61C909.181 696.56 911.943 695.36 914.81 697.904C917.823 700.578 916.284 703.294 914.656 705.874C901.119 727.324 883.033 741.674 856.59 742.839C848.55 743.195 840.496 743.862 832.466 743.667C810.051 743.123 794.496 729.379 778.683 714.396Z" fill="black"/>
</g>
</svg>
