<svg width="1392" height="1392" viewBox="0 0 1392 1392" fill="none" xmlns="http://www.w3.org/2000/svg">
<mask id="mask0_206_3507" style="mask-type:luminance" maskUnits="userSpaceOnUse" x="0" y="0" width="1392" height="1392">
<circle cx="696" cy="696" r="696" fill="white"/>
</mask>
<g mask="url(#mask0_206_3507)">
<path d="M922.906 1012.72C823.844 1309.63 559.203 1401.32 419.271 1032.54C400.028 981.826 450.342 962.951 485.529 940.635C509.631 925.348 522.292 912.092 520.824 898.426C513.896 833.951 483.903 654.572 483.903 654.572L480.852 648.793C480.852 648.793 481.583 647.173 478.712 650.038C475.72 653.025 468.819 684.214 441.622 684.214C417.238 684.214 392.483 673.314 380.636 597.886C376.349 570.589 378.782 499.025 408.989 486.102C421.472 480.763 432.988 478.854 444.222 485.263C455.456 491.671 431.26 463.357 556.209 359.232C637.427 291.549 765.717 281.629 817.484 293.057C869.25 304.484 921.016 329.824 943.912 383.483C971.694 448.593 918.029 497.759 929.816 646.042C927.668 699.617 930.743 817.198 783.314 856.607C755.313 864.093 764 905 806 915C873 936 922.959 987.268 922.959 1012.86" fill="white"/>
<path fill-rule="evenodd" clip-rule="evenodd" d="M922.943 551.2L923.102 549.806C927.243 513.399 931.256 478.118 950.243 446.429C956.702 450.85 955.948 456.452 953.929 461.643C934.013 512.845 935.842 566.04 937.669 619.206C937.83 623.863 937.99 628.519 938.135 633.174C940.216 699.601 923.648 759.988 879.354 810.736C863.981 828.348 843.632 840.464 822.854 851.045C801.515 861.912 797.03 871.132 803.687 894.599C803.93 895.455 804.229 896.315 804.529 897.178C805.892 901.1 807.273 905.073 803.487 908.95C798.965 913.58 794.026 912.259 788.683 910.829C788.48 910.775 788.277 910.721 788.074 910.667C737.733 897.241 692.697 873.154 651.056 842.393C645.139 838.022 640.272 832.06 635.561 826.29L635.561 826.289L635.256 825.916C632.776 822.879 632.338 818.141 635.807 815.462C639.054 812.955 641.609 815.011 644.452 817.298C644.815 817.59 645.182 817.886 645.556 818.176C668.027 835.614 692.773 847.063 721.768 849.943C735.176 851.275 748.448 850.784 761.708 850.293H761.708H761.709C769.17 850.017 776.626 849.741 784.101 849.79C794.34 849.857 802.752 845.107 810.761 840.584C811.712 840.047 812.658 839.513 813.601 838.99C841.446 823.545 867.883 806.229 885.836 778.331C901.922 753.331 911.665 726.1 917.402 697.443C924.645 661.27 923.989 624.7 923.324 587.621C923.107 575.536 922.889 563.397 922.943 551.2ZM419.684 475.824C441.577 474.064 453.771 487.033 464.037 502.053C476.664 520.526 483.39 541.465 486.37 563.572C486.87 567.28 487.389 571.223 485.152 574.856C480.737 575.45 480.319 571.946 480.252 569.317C479.696 548.644 470.526 530.61 461.308 513.156C454.73 500.704 445.059 488.64 429.943 485.577C412.71 482.084 396.858 497.566 389.067 517.842C374.636 555.398 377.029 592.36 390.455 628.759C396.33 644.687 403.648 660.913 418.303 672.026C433.142 683.28 451.008 681.295 461.903 666.349C462.526 665.494 463.184 664.649 463.845 663.801L463.845 663.801L463.845 663.801C465.841 661.238 467.853 658.656 468.928 655.749C471.035 650.049 474.256 644.629 480.155 645.423C486.978 646.342 488.271 653.729 488.909 659.499C494.707 711.928 502.758 764.024 510.81 816.126L510.81 816.126C512.808 829.053 514.806 841.98 516.769 854.913C519.369 872.023 522.381 896.598 520.361 907.05C520.219 907.792 520.136 908.523 520.058 909.222C519.749 911.958 519.496 914.21 515.906 914.75C511.034 915.484 508.831 912.66 508.233 908.28C505.913 891.274 505.273 884.747 504.275 858.735C503.308 833.519 498.569 808.665 493.83 783.816L493.83 783.815C492.111 774.799 490.392 765.784 488.853 756.753C483.613 725.996 478.483 694.802 478.022 659.777C477.326 660.808 476.644 661.825 475.974 662.826C468.426 674.095 462.264 683.295 451.48 686.877C433.58 692.827 417.917 688.422 405.371 674.277C391.071 658.155 381.783 639.808 376.558 618.498C368.244 584.587 366.704 551.368 377.487 517.853C382.655 501.774 401.189 473.208 419.684 475.824ZM454.346 603.326C458.717 606.467 462.679 609.316 466.334 597.948C465.158 555.652 451.6 528.654 430.472 527.632C441.747 542.197 452.559 556.413 453.472 576.132C448.742 573.978 445.7 570.59 442.784 567.342C440.753 565.08 438.784 562.886 436.348 561.226C435.31 560.518 434.295 559.735 433.271 558.946C428.544 555.301 423.636 551.516 415.471 554.357C419.301 560.187 424.575 564.301 429.799 568.377C435.832 573.083 441.798 577.737 445.392 584.919C434.777 592.561 430.209 602.62 435.718 614.761C440.497 625.296 447.565 634 461.565 634.635C461.043 628.31 456.868 623.708 452.812 619.235C447.879 613.796 443.121 608.55 445.316 600.635C448.515 599.133 451.516 601.291 454.346 603.326Z" fill="black"/>
<path d="M1310.6 1572H99.4107L108.043 1508.76C108.043 1508.76 30.2554 1482.34 22.4665 1467.04C14.6776 1451.73 106.83 1253.02 119.468 1221.57C132.106 1190.12 196.107 1073.51 255.227 1047.65C294.948 1030.28 392.959 972.366 430.165 956.096C434.975 953.997 446.961 936.074 454.589 923.012C462.216 909.95 470.323 936.534 496.644 894.578C503.3 883.967 531.317 901.586 547.257 911.941C560.911 920.812 584.044 956.407 689.872 949.706C833.469 940.61 853.047 874.27 869.569 883.965C893.61 898.071 923.422 940.489 923.422 940.489C923.422 940.489 1033.16 1009.53 1062.11 1032.12C1121.57 1078.52 1185.21 1113.98 1242.74 1283.73C1262.57 1342.27 1320.64 1443.89 1328.78 1456.95C1336.91 1470 1301.74 1492.98 1301.74 1492.98L1310.6 1572Z" fill="white"/>
<path d="M1079.47 1053.73C1049.34 1028.4 1019.41 1006.74 985.706 987.484C983.39 986.161 980.955 984.096 978.35 986.302C974.572 989.5 975.75 993.876 976.774 997.994C982.925 1022.72 977.406 1044.45 961.431 1061.8C951.476 1072.62 938.835 1079.96 925.349 1084.47C916.087 1087.57 912.806 1092.6 915.648 1104.17C921.011 1126.02 927.34 1147.31 926.798 1171.1C926.137 1200.14 913.957 1220.7 897.3 1239.9C874.24 1266.47 843.553 1275.77 813.621 1286.72C782.125 1298.24 751.434 1312.24 723.407 1331.97C708.201 1342.68 700.466 1362.02 692.846 1379.98C682.522 1404.31 677.627 1430.52 674.175 1457.1C671.744 1475.82 680.172 1491.94 683.868 1509.12C688.883 1532.45 698.34 1553.49 714.221 1571.1C710.347 1571.98 706.455 1571.98 701.589 1571.98C671.648 1531.82 658.958 1485.64 665.679 1434.72C670.929 1394.95 684.327 1357.86 711.171 1329.49C727.245 1312.5 747.608 1302.69 767.467 1292.55C796.229 1277.86 827.558 1270.26 855.988 1255.42C884.915 1240.32 907.209 1216.23 911.61 1176.52C913.989 1155.04 910.171 1135.27 904.958 1115.47C899.991 1096.59 904.525 1084.18 921.471 1073.47C930.877 1067.53 941.18 1064.13 949.768 1055.52C959.077 1046.19 965.726 1036.13 967.09 1022.65C969.903 994.822 965.123 970.894 944.863 956.323C933.164 947.908 928.977 948.31 919.291 959.558C915.455 964.014 912.082 968.516 905.862 965.323C904.207 963.163 905.555 961.304 906.411 959.548C909.18 953.857 917.071 950.714 914.638 942.586C911.407 931.793 908.198 920.578 899.163 913.625C892.841 908.76 886.188 907.243 879.126 911.926C875.89 914.073 872.676 916.44 869.18 917.858C867.756 918.538 866.15 918.548 864.72 917.885C863.289 917.222 862.154 915.941 861.567 914.329C860.038 910.731 862.155 909.026 864.429 907.133C867.987 904.167 871.32 900.861 875.323 897.168C868.991 889.088 863.254 891.526 857.428 896.245C847.126 904.587 837.494 914.343 826.399 921.009C795.228 939.742 761.743 951.1 726.372 952.651C692.537 954.134 658.601 955.911 624.76 953.47C603.113 951.908 583.237 941.991 563.304 932.975C546.93 925.569 532.209 914.6 516.456 905.893C502.994 898.453 496 901.25 488.47 915.918C478.969 934.427 481.591 949.052 497.073 965.268C500.684 969.05 508.439 972.906 504.296 978.788C499.395 985.745 494.084 977.337 490.185 973.924C479.409 964.493 470.145 953.497 469.07 936.831C468.818 932.925 468.58 928.931 463.911 928.416C460.265 928.017 457.829 929.265 455.403 932.942C447.234 945.326 447.382 951.546 458.316 969.618C460.915 973.915 464.243 977.576 460.622 983.829C449.681 978.984 445.76 966.657 439.887 956.571C433.303 962.142 435.452 967.517 437.034 972.636C448.326 1009.09 470.302 1035.11 499.445 1054.39C513.112 1063.44 526.907 1072.38 542.106 1077.25C578.533 1088.93 614.444 1103.6 653.478 1100.59C679.388 1098.59 705.699 1103.64 731.212 1094.3C737.893 1091.85 740.375 1096.77 739.733 1103.45C737.204 1129.73 732.336 1155.09 718.499 1177.42C695.801 1214.04 663.277 1236.82 629.705 1257.98C603.895 1274.25 574.855 1283.34 550.703 1303.5C532.437 1318.75 516.139 1336.08 504.174 1357.83C481.527 1399.01 478.099 1443.6 487.901 1489.94C493.134 1514.68 507.73 1533.09 522.305 1551.3C527.602 1557.92 533.457 1563.97 539.234 1571.13C535.518 1571.98 531.625 1571.98 526.76 1571.98C501.927 1547.37 480.463 1520.92 473.42 1483.68C468.553 1457.95 469.34 1432.29 473.695 1406.51C481.475 1360.44 504.193 1324.82 535.823 1296.36C550.555 1283.21 566.821 1272.4 584.165 1264.23C627.358 1243.7 667.392 1217.59 699.707 1178.4C714.213 1161.13 722.678 1138.53 723.537 1114.78C698.102 1114.78 673.037 1114.78 647.972 1114.78C620.23 1114.78 593.723 1107.78 567.206 1098.96C542.562 1090.77 518.906 1080.63 496.774 1066.07C466.916 1046.43 443.152 1020.2 430.006 983.556C426.804 974.632 423.604 973.411 416.68 977.866C389.146 995.582 358.853 1006.28 330.057 1020.77C280.791 1045.56 228.577 1065.09 192.983 1115.3C176.761 1138.15 161.689 1162.02 147.839 1186.77C119.421 1237.62 98.0713 1292.59 73.9587 1345.96C61.0256 1374.59 47.7139 1402.97 36.3631 1432.47C27.3476 1455.91 28.9343 1459.67 51.0718 1466.46C64.5103 1470.59 77.4434 1477.62 91.0655 1480.01C127.297 1486.38 159.568 1504.75 192.768 1520.26C219.129 1532.58 245.494 1545.14 269.942 1561.94C274.768 1565.25 281.346 1564.08 284.954 1571.05C275.346 1571.93 265.696 1572.05 256.074 1571.4C210.774 1545.35 163.176 1531.68 117.329 1509.35C112.291 1532.31 106.603 1551.54 105.745 1571.98H93.0957C90.3462 1562.81 93.5977 1554.38 95.219 1545.72C97.3316 1534.44 96.434 1526.06 83.823 1523.61C63.3352 1519.63 46.395 1506.39 29.1773 1494.33C17.0833 1485.86 13.2873 1468.11 17.9002 1447.28C23.4106 1422.39 33.517 1399.69 43.3973 1376.82C63.9188 1329.3 85.3839 1282.29 106.646 1235.23C132.407 1178.2 162.097 1123.26 204.287 1079.02C225.256 1057.03 249.502 1040.6 275.887 1027.11C298.744 1015.43 321.526 1003.29 344.899 993.257C364.959 984.65 383.964 973.747 403.629 964.368C418.202 957.417 431.864 949.614 439.617 932.119C445.741 918.301 455.059 907.527 471.11 911.992C475.319 913.162 477.071 910.405 479.242 907.096C495.206 882.736 507.239 880.166 531.045 895.775C537.583 900.062 573.528 920.011 583.987 925.265C607.811 937.257 633.645 943.341 659.738 943.104C686.114 942.915 712.493 940.54 738.844 938.632C769.871 936.386 798.001 922.994 824.931 906.998C834.657 901.221 843.339 892.446 852.741 885.405C863.999 876.973 876.174 878.518 886.208 889.264C890.106 893.277 894.547 896.564 899.364 899.001C912.529 905.916 916.91 923.274 927.203 930.973C937.58 938.731 952.41 938.852 961.751 951.601C968.083 960.244 978.188 963.24 986.706 968.628C1235.5 1126.01 1185.26 1161.8 1283.37 1344.45C1300.52 1376.37 1312.91 1410.88 1329.54 1442.96C1329.73 1443.33 1329.85 1443.74 1330.07 1444.09C1346.36 1470.96 1343.22 1483.21 1316.1 1496.17C1308.99 1499.56 1305.31 1502.84 1307.1 1513.06C1310.37 1531.77 1311.8 1550.89 1313.83 1570.91C1309.76 1571.97 1305.87 1571.97 1300.67 1570.97C1296.5 1560.03 1297.05 1549.77 1296.96 1539.56C1296.8 1521.91 1291.21 1505.77 1286.63 1488.21C1276.38 1492.12 1266.64 1494.38 1258.15 1499.34C1231.22 1515.08 1203.18 1526.46 1173.22 1532.35C1158.09 1535.32 1151.54 1545.84 1151.54 1563.18C1151.69 1566.12 1151.99 1569.06 1152.45 1571.97C1147.38 1572.12 1142.3 1571.73 1137.3 1570.8C1134.7 1494.82 1309.35 1457.51 1309.35 1457.51C1309.35 1457.51 1277.2 1389.34 1254.14 1331.35C1227.42 1264.14 1211.7 1235.89 1196.61 1197.96C1173.38 1139.54 1082.93 1056.63 1079.47 1053.73Z" fill="black"/>
<path d="M539.33 1468.72C528.966 1438.69 531.71 1410.68 544.774 1383.6C546.567 1379.88 548.378 1376.17 550.07 1372.4C552.158 1367.74 555.272 1364.41 559.869 1366.78C564.258 1369.05 562.887 1373.36 561.623 1377.76C558.156 1389.82 552.219 1400.58 548.906 1412.87C541.072 1441.94 549.401 1465.72 564.959 1487.81C571.282 1496.79 579.772 1504.11 581 1517C562.179 1506.78 548.041 1491.5 539.33 1468.72Z" fill="black"/>
<path d="M845.802 1017.94C862.17 995.816 879.816 984.331 891 989.048C888.181 993.964 884.349 998.067 879.821 1001.02C864.466 1010.86 852.211 1024.69 841.756 1040.31C826.549 1063.03 825.982 1086.6 839.352 1110.94C846.093 1123.3 850.068 1137.27 850.943 1151.68C852.061 1168.26 845.484 1180.22 831.054 1187C830.649 1186.34 829.787 1185.26 829.933 1185.06C845.294 1163.11 838.824 1140.63 831.522 1117.99C819.966 1082.17 823.196 1048.74 845.802 1017.94Z" fill="black"/>
<path d="M492.963 239.775C524.677 211.046 559.434 190.369 599.116 175.261C634.147 161.923 668.945 158.696 705.245 158.836C745.77 158.992 779.745 177.446 817.585 190.72C874.996 210.859 993.736 316.778 959.085 453.001C954.505 471.01 951.534 488.822 946.29 505.833C939.365 528.295 943.074 549.109 944.748 571.033C948.542 620.726 990.835 684.944 996.317 734.233C1000.16 768.751 1002.48 802.843 997.017 837.025C992.572 864.852 975.358 907.943 967.142 934.45C961.622 952.259 927.657 938.504 912.768 951.793C907.484 949.729 906.261 947.162 905.611 942.721C903.011 924.987 908.757 909.464 915.955 893.821C921.902 880.896 923.461 866.412 927.762 852.666C918.47 869.671 909.177 886.674 899.881 903.676C898.859 905.542 897.781 907.384 896.615 909.16C886.696 924.249 882.578 925.648 866.465 918.341C851.475 911.541 837.582 902.541 822.088 896.625C817.732 894.961 813.761 893.135 808.999 892.651C795.734 891.302 790.369 880.308 784.219 870.812C782.079 867.506 785.573 865.124 788.362 862.712C805.22 848.145 825.088 837.897 844.435 827.953C874.455 812.522 889.152 786.384 902.241 758.17C915.363 729.886 921.428 699.482 926.224 668.981C931.248 637.024 926.887 604.873 925.115 572.881C923.915 551.251 920.251 529.752 928.5 508.651C929.511 506.067 929.28 502.62 928.611 499.815C921.32 469.256 915.353 438.388 912.533 407.155C909.78 376.655 868.695 256.555 796.203 304.473C774.749 318.654 766.127 335.799 749.62 366.74C731.681 400.362 705.534 425.452 672.932 444.465C655.36 454.713 637.332 464.95 617.704 469.303C594.19 474.519 570.878 481.455 546.574 483.133C529.796 484.291 515.718 492.502 503.383 503.247C478.919 524.557 483.477 547.932 503.924 575.68C527.903 608.22 548.994 642.834 555.099 682.299C560.263 715.676 561.47 750.462 549.413 784.473C542.426 804.182 532.501 822.034 524.131 840.832C513.19 865.402 515.883 890.339 526.304 915.585C494.649 935.396 461.388 930.048 427.142 924.985C428.787 934.475 421.494 934.369 414.35 934.016C386.411 932.635 358.233 932.729 331.871 921.124C330.011 920.305 327.06 919.262 325.871 920.101C320.546 923.859 298.163 937.464 262.996 883.501C248.875 861.829 245.442 837.414 246.296 812.817C247.12 789.168 250.445 765.432 254.724 742.111C265.441 683.711 293.164 633.284 330.824 588.105C356.388 557.435 374.374 522.886 379.859 483.547C383.141 460.01 384.992 436.462 391.059 413.255C403.209 366.775 421.904 323.97 451.959 285.917C464.613 269.88 476.998 253.938 492.963 239.775Z" fill="black"/>
<path d="M808.732 761.326C817.256 768.453 825.632 768.875 835.264 762.604C845.384 756.019 848.164 746.946 848.595 734.549C797.731 736.377 748.07 733.966 696.48 724.386C701.462 731.217 708.854 728.002 710.329 736.186C713.779 755.343 722.707 759.832 740.929 753.329C746.502 751.341 750.129 751.258 753.608 757.093C764.64 775.58 778.425 778.31 795.728 765.943C799.183 763.479 802.139 760.172 808.732 761.326Z" fill="white"/>
<path d="M810.459 651.036C815.529 635.365 804.48 624.736 800.076 612.512C791.52 588.769 783.87 565.105 785.089 539.474C785.306 534.906 784.389 528.774 791.077 528.936C796.214 529.062 798.977 534.11 799.177 538.948C800.666 574.448 813.602 606.571 828.105 638.238C830.838 644.204 830.214 649.323 826.984 655.091C818.513 670.218 804.653 675.136 788.794 675.623C780.077 675.891 773.861 671.096 770.621 660.395C784.624 658.56 799.965 665.186 810.459 651.036Z" fill="black"/>
<path fill-rule="evenodd" clip-rule="evenodd" d="M898.205 512.801C902.927 513.782 907.431 513.783 911.823 513.784C916.574 513.786 921.194 513.787 925.817 515.028C938.803 518.515 943.617 527.343 946.599 539.173C951.689 559.366 952.788 579.223 946.735 599.492C943.305 610.98 939.653 617.878 924.772 617.81C897.224 617.684 869.597 618.298 842.028 619.064C807.321 620.028 799.161 605.715 794.293 572.954C791.98 557.392 787.193 551.254 772.961 551.734C761.455 552.122 754.429 560.029 754.613 574.514C754.805 589.614 748.232 601.914 739.424 612.843C730.362 624.09 717.822 622.755 705.718 621.467L705.718 621.467C703.382 621.219 701.062 620.972 698.786 620.817C685.91 619.945 673.065 618.618 660.22 617.292C650.261 616.263 640.301 615.234 630.325 614.417C617.772 613.386 608.484 606.457 607.305 593.766C606.881 589.183 605.719 584.826 604.562 580.493C603.537 576.651 602.517 572.827 602.021 568.883C601.338 563.452 598.702 560.438 593.921 558.583C555.615 543.749 517.313 528.904 479.013 514.049C472.907 511.69 468.475 507.324 462.765 501.697C462.345 501.284 461.919 500.864 461.484 500.437C475.184 497.689 486.137 502.21 496.236 507.112C527.536 522.304 560.182 533.744 593.242 544.245C600.122 546.43 602.609 542.114 604.919 537.459C605.824 535.636 606.514 533.697 607.204 531.762L607.204 531.762L607.204 531.761C608.084 529.291 608.961 526.827 610.279 524.616C620.645 507.226 634.267 502.552 657.472 505.755C662.276 506.418 667.074 507.148 671.872 507.877C687.632 510.274 703.404 512.672 719.472 512.727C743.807 512.813 749.661 517.448 756.96 541.145C757.868 540.988 758.777 540.825 759.689 540.662L759.692 540.662C770.103 538.801 780.8 536.89 791.393 541.959C796.148 544.232 797.572 539.513 798.67 535.577C803.818 517.115 809.633 512.6 828.009 512.616C851.03 512.636 874.05 512.707 898.205 512.801ZM637.847 515.286C632.133 515.23 626.996 515.986 623.77 521.786C610.87 544.978 608.13 569.064 616.829 594.286C618.291 598.526 620.287 601.771 625.569 602.193C656.047 604.625 686.514 607.192 716.969 609.893C723.525 610.468 727.759 607.82 732.288 603.002C743.318 591.269 743.862 576.775 744.391 562.685L744.391 562.682C744.475 560.453 744.558 558.234 744.682 556.037C746.175 529.688 743.899 527.885 715.596 523.381C697.722 520.535 679.641 518.976 660.906 517.36C653.337 516.708 645.661 516.046 637.849 515.286H637.847ZM809.488 593.373C805.628 584.023 801.702 574.512 803.484 563.871H803.486C804.715 559.574 805.533 555.385 806.325 551.333C807.782 543.873 809.149 536.873 812.823 530.501C816.139 524.749 820.341 522.151 827.149 521.971C858.642 521.139 889.946 523.588 921.266 526.295C927.754 526.856 932.022 529.847 933.541 535.565C939.025 556.215 943.223 576.898 935.632 598.189C933.455 604.294 931.034 607.439 924.203 607.372C921.271 607.344 918.338 607.313 915.406 607.282C885.242 606.968 855.079 606.653 824.92 608.508C817.174 608.984 813.011 601.99 810.474 595.771C810.149 594.973 809.819 594.173 809.488 593.373Z" fill="black"/>
<path d="M665.482 492.562C675.911 488.017 685.238 481.279 692.83 472.807C695.549 469.76 698.906 467.069 702.661 467.723C709.427 468.902 718.888 466.897 721.461 475.264C723.63 482.308 716.284 485.764 711.179 489.664C697.365 500.208 683 508.671 664.597 506.435C659.963 505.871 654.911 506.649 653.506 500.209C655.182 494.698 660.896 495.345 665.482 492.562Z" fill="black"/>
<path d="M863.419 470.056C871.888 468.349 876 474.131 880.532 478.228C888.647 485.565 895.245 494.618 906.507 497.972C909.807 498.955 912.218 501.972 910.463 506.057C908.981 509.503 906.419 511.699 902.416 510.622C888.195 506.793 873.329 504.746 861.911 493.816C851.813 484.15 851.683 479.796 863.419 470.056Z" fill="black"/>
<path d="M802.942 782.05C807.829 767.766 807.091 765.809 793.178 763.339C782.992 761.532 773.85 757.044 764.184 753.939C753.298 750.444 746.166 740.145 734.711 737.425C728.703 767.199 768.444 793.928 802.942 782.05Z" fill="white"/>
<path fill-rule="evenodd" clip-rule="evenodd" d="M731.638 777.643C750.09 794.8 772.299 803.148 799.059 798.828C801.275 797.912 803.424 797.083 805.507 796.279C810.252 794.449 814.653 792.751 818.716 790.457C823.859 787.557 828.021 781.328 823.516 776.682C813.585 766.44 818.565 760.533 827.51 754.549C831.406 751.942 833.918 748.304 831.84 743.772C829.109 737.808 823.836 739.975 819.709 741.732C814.869 743.792 809.927 744.308 804.873 744.836C804.043 744.923 803.21 745.01 802.374 745.104C777.616 747.894 757.534 736.198 737.57 724.571C737.39 724.466 737.209 724.36 737.028 724.255C725.224 717.381 718.018 719.697 716.485 733.475C714.617 750.274 719.278 766.149 731.638 777.643ZM793.177 763.343C807.09 765.813 807.828 767.77 802.941 782.054L802.942 782.05C768.444 793.928 728.703 767.199 734.71 737.429C740.774 738.869 745.627 742.433 750.466 745.987C754.768 749.146 759.06 752.298 764.183 753.943C767.465 754.997 770.687 756.211 773.909 757.425C780.178 759.787 786.45 762.15 793.177 763.343Z" fill="black"/>
</g>
</svg>
