<svg width="1392" height="1392" viewBox="0 0 1392 1392" fill="none" xmlns="http://www.w3.org/2000/svg">
<mask id="mask0_204_3329" style="mask-type:alpha" maskUnits="userSpaceOnUse" x="0" y="0" width="1392" height="1392">
<circle cx="696" cy="696" r="696" fill="#FAFAFA"/>
</mask>
<g mask="url(#mask0_204_3329)">
<path d="M922.432 1029.43C821.404 1339.15 551.513 1434.8 408.804 1050.1C389.179 997.196 440.492 977.506 476.377 954.227C500.958 938.281 513.87 924.453 512.372 910.197C505.307 842.94 474.718 655.82 474.718 655.82L471.608 649.791C471.608 649.791 472.353 648.101 469.425 651.09C466.373 654.206 459.335 686.741 431.599 686.741C406.731 686.741 381.485 675.371 369.403 596.687C365.03 568.212 367.512 493.561 398.318 480.08C411.049 474.51 422.793 472.519 434.25 479.204C445.707 485.889 421.032 456.352 548.459 347.734C631.289 277.131 762.125 266.783 814.918 278.703C867.711 290.624 920.505 317.057 943.855 373.032C972.189 440.952 917.459 492.239 929.479 646.922C927.289 702.808 930.425 825.464 780.07 866.574C751.514 874.382 760.373 917.055 803.207 927.486C871.536 949.392 922.486 1002.87 922.486 1029.57" fill="white"/>
<path fill-rule="evenodd" clip-rule="evenodd" d="M922.47 547.987L922.632 546.532C926.855 508.554 930.948 471.75 950.312 438.694C956.899 443.306 956.13 449.15 954.071 454.565C933.76 507.977 935.625 563.467 937.489 618.927C937.652 623.785 937.815 628.642 937.963 633.498C940.086 702.792 923.189 765.785 878.016 818.723C862.338 837.095 841.585 849.734 820.395 860.771C798.633 872.107 794.059 881.725 800.848 906.205C801.095 907.098 801.4 907.995 801.706 908.895C803.097 912.986 804.505 917.13 800.644 921.175C796.032 926.005 790.994 924.626 785.545 923.136C785.339 923.079 785.132 923.023 784.925 922.966C733.585 908.961 687.655 883.834 645.188 851.746C639.154 847.187 634.19 840.967 629.386 834.948L629.386 834.947L629.075 834.558C626.546 831.39 626.099 826.447 629.637 823.653C632.948 821.037 635.554 823.182 638.453 825.568C638.823 825.873 639.198 826.181 639.579 826.484C662.496 844.674 687.733 856.617 717.303 859.622C730.977 861.012 744.513 860.499 758.036 859.987L758.037 859.987C765.645 859.699 773.25 859.411 780.873 859.462C791.315 859.532 799.894 854.577 808.062 849.859C809.032 849.298 809.997 848.741 810.958 848.196C839.356 832.085 866.317 814.021 884.627 784.919C901.032 758.84 910.968 730.434 916.819 700.541C924.206 662.807 923.537 624.659 922.858 585.979C922.637 573.373 922.414 560.71 922.47 547.987ZM409.225 469.358C431.553 467.522 443.989 481.051 454.458 496.719C467.336 515.989 474.195 537.832 477.235 560.893C477.744 564.761 478.274 568.874 475.992 572.664C471.49 573.283 471.064 569.628 470.995 566.885C470.428 545.32 461.076 526.508 451.675 508.301C444.967 495.312 435.104 482.727 419.688 479.532C402.113 475.888 385.947 492.038 378.001 513.189C363.284 552.366 365.724 590.923 379.416 628.893C385.408 645.508 392.871 662.434 407.817 674.027C422.95 685.766 441.171 683.696 452.282 668.105C452.917 667.213 453.589 666.331 454.263 665.447L454.263 665.447C456.299 662.773 458.35 660.08 459.446 657.047C461.595 651.101 464.88 645.447 470.896 646.276C477.855 647.234 479.173 654.94 479.824 660.959C485.737 715.651 493.948 769.995 502.16 824.345L502.16 824.346C504.197 837.831 506.234 851.316 508.237 864.806C510.888 882.654 513.96 908.29 511.9 919.193C511.755 919.967 511.671 920.729 511.59 921.459C511.276 924.313 511.017 926.662 507.357 927.225C502.388 927.991 500.141 925.045 499.531 920.476C497.165 902.736 496.513 895.928 495.495 868.793C494.509 842.489 489.675 816.562 484.843 790.64C483.089 781.236 481.336 771.831 479.767 762.41C474.423 730.326 469.191 697.786 468.721 661.249C468.011 662.325 467.316 663.386 466.632 664.43C458.934 676.186 452.65 685.782 441.652 689.519C423.397 695.725 407.423 691.13 394.628 676.375C380.045 659.557 370.572 640.418 365.244 618.189C356.765 582.814 355.194 548.162 366.191 513.201C371.462 496.428 390.363 466.629 409.225 469.358ZM444.576 602.362C449.032 605.639 453.074 608.611 456.801 596.752C455.602 552.631 441.775 524.468 420.227 523.402C431.726 538.595 442.753 553.425 443.684 573.995C438.86 571.748 435.757 568.213 432.784 564.825C430.712 562.466 428.704 560.177 426.22 558.445C425.161 557.707 424.126 556.89 423.082 556.067C418.261 552.265 413.256 548.317 404.929 551.28C408.834 557.361 414.214 561.653 419.541 565.905C425.694 570.815 431.778 575.669 435.443 583.161C424.618 591.133 419.959 601.626 425.578 614.291C430.451 625.28 437.66 634.36 451.937 635.022C451.404 628.425 447.147 623.623 443.01 618.957C437.98 613.284 433.128 607.811 435.366 599.555C438.629 597.989 441.689 600.239 444.576 602.362Z" fill="black"/>
<path d="M810.248 774.985C820.038 775.62 829.175 773.793 837.602 768.266C846.57 762.386 847.638 750.807 839.153 744.17C829.526 736.64 818.775 736.972 808.552 742.251C787.97 752.886 767.758 761.913 746.072 744.766C741.002 740.755 734.771 738.314 729.254 734.856C720.431 729.319 711.115 729.075 701.675 732.194C690.754 735.802 681.881 749.554 685.088 759.091C689.145 771.157 699.869 770.117 709.207 768.771C719.492 767.142 730.011 768.123 739.839 771.627C762.22 779.716 784.948 779.322 810.248 774.985Z" fill="white"/>
<path d="M1314.63 1555H105.292L113.911 1491.71C113.911 1491.71 36.2428 1465.27 28.4658 1449.95C20.6888 1434.63 112.7 1235.76 125.319 1204.28C137.937 1172.81 222.142 1050.12 260.871 1030.22C299.6 1010.33 370.716 976.883 407.865 960.6C412.668 958.499 415.13 957.567 422.746 944.494C430.362 931.422 456.314 925.688 465.622 918.038C469.964 914.47 480.286 886.512 501.046 889.938C521.806 893.365 527.163 909.628 527.163 909.628C527.163 909.628 539.02 1008.75 715.315 994.351C767.857 990.059 871.298 955.39 875.97 916.948C878.207 898.541 864.536 884.837 864.536 884.837C864.536 884.837 917.531 876.033 941.633 889.938C965.734 903.843 956.372 941.977 956.372 941.977C956.372 941.977 1039.73 988.955 1066.52 1014.68C1112.04 1058.39 1206.05 1165.88 1246.87 1266.49C1270 1323.5 1324.66 1426.79 1332.78 1439.85C1340.9 1452.92 1305.78 1475.91 1305.78 1475.91L1314.63 1555Z" fill="white"/>
<path fill-rule="evenodd" clip-rule="evenodd" d="M974.871 960.668C1013.51 982.883 1049.15 1010.2 1083.38 1040.05C1084.61 1041.13 1141.44 1093.2 1194.61 1183.29C1248.12 1273.99 1297.95 1402.7 1297.95 1402.7C1308.12 1429.41 1263.59 1459.77 1235.06 1476.18C1184.36 1505.33 1156.53 1527.96 1159.74 1527.33C1189.65 1521.44 1235.35 1498.08 1262.24 1482.33C1267.99 1478.96 1274.32 1476.84 1281 1474.6C1284.16 1473.54 1287.4 1472.45 1290.69 1471.2C1291.52 1474.37 1292.39 1477.5 1293.25 1480.6C1297.13 1494.65 1300.85 1508.11 1300.99 1522.57C1301 1523.79 1301.01 1525.02 1301.01 1526.25C1301.03 1535.26 1301.06 1544.36 1304.7 1553.99C1309.89 1555 1313.78 1555 1317.83 1553.93L1317.63 1552.02C1315.54 1531.85 1313.54 1512.6 1310.82 1493.49C1309.94 1487.31 1310.79 1483.18 1316.03 1481.43C1321.74 1479.51 1326.12 1475.46 1330.5 1471.41C1332.78 1469.31 1335.05 1467.21 1337.5 1465.41C1347.27 1458.26 1348.38 1448.6 1342.05 1439.38C1333.95 1427.6 1328.26 1414.51 1322.55 1401.4C1320.36 1396.37 1318.18 1391.34 1315.85 1386.38C1312.98 1380.26 1310.03 1373.96 1307.04 1367.54C1283.67 1317.57 1257.02 1260.56 1237.49 1226.65C1208.83 1176.89 1149.97 1077.48 1086 1023.09L1084.21 1021.57C1055.01 996.74 1007.47 956.307 962.651 936.403C962.651 933.531 962.585 930.719 962.521 927.953C962.38 921.881 962.245 916.034 962.816 910.276C963.895 899.388 959.066 891.582 952.363 886.318C943.204 879.123 933.218 873.629 921.159 873.129C906.465 872.52 887.846 873.571 868.783 874.647C844.884 875.996 820.288 877.384 801.852 875.589C790.521 874.485 789.042 877.843 792.218 890.7C781.74 899.121 781.888 903.262 793.225 909.594C796.259 911.24 799.509 912.323 802.848 912.803C812.727 914.329 838.284 913.496 851.899 913.051C853.702 912.993 855.295 912.941 856.615 912.902C857.161 912.884 857.718 912.847 858.281 912.81C862.084 912.558 866.172 912.287 868.69 917.661C863.467 925.51 858.148 932.934 851.033 938.815C814.896 968.683 773.277 980.422 729.792 985.958C698.207 989.981 666.875 989.772 635.199 983.959C602.483 977.953 572.985 965.863 547.522 941.628C546.182 940.352 543.344 938.292 539.894 935.786C530.8 929.183 517.445 919.486 515.997 912.902C542.648 888.7 492.712 869.178 473.684 896.134C466.1 906.875 457.383 917.528 443.682 921.606C432.939 924.804 421.622 930.329 416.393 943.925C415.649 945.856 413.002 947.177 410.992 948.124C404.502 951.18 398.027 954.287 391.553 957.393C374.261 965.689 356.969 973.985 339.368 981.337C316.997 990.682 295.516 1002.22 274.084 1013.73C273.251 1014.18 272.418 1014.62 271.585 1015.07C238.345 1032.92 210.278 1058.39 186.443 1090.7C152.035 1137.34 125.365 1189.02 101.968 1243.26C88.9755 1273.39 75.4741 1303.23 61.9749 1333.07L60.0434 1337.34C57.6826 1342.56 55.2643 1347.75 52.8453 1352.95C41.0934 1378.19 29.3266 1403.47 24.0718 1431.66C20.2799 1452 19.6495 1466.31 40.4321 1480.59L40.4946 1480.63C56.9522 1491.94 73.2317 1503.12 92.331 1507.35C101.152 1509.3 103.294 1515.24 101.893 1523.86C101.388 1526.96 100.839 1530.06 100.291 1533.15C98.9974 1540.44 97.7088 1547.71 97.0154 1555H111.894C112.549 1539.36 116.041 1524.43 119.889 1507.97C121.069 1502.93 122.281 1497.74 123.456 1492.35C142.551 1501.75 161.967 1509.56 181.394 1517.38C208.499 1528.29 235.626 1539.2 261.935 1554.45C271.556 1555.07 281.203 1554.95 290.809 1554.08C290.707 1553.86 290.61 1553.64 290.515 1553.43C289.814 1551.87 289.29 1550.7 288.482 1550.34C274.967 1544.29 262.029 1536.9 249.08 1529.5C236.288 1522.19 223.485 1514.87 210.108 1508.85C200.335 1504.45 190.677 1499.7 181.018 1494.95C164.534 1486.85 148.047 1478.74 130.98 1472.36C122.028 1469.01 112.77 1466.74 103.505 1464.46C97.0082 1462.86 90.508 1461.26 84.1079 1459.3C71.4254 1455.4 58.9128 1450.68 46.5365 1445.66C38.4091 1442.37 35.3608 1436.98 39.0899 1426.09C45.1988 1408.26 52.0974 1390.86 59.4192 1373.71C68.1009 1353.38 77.2647 1333.31 86.4284 1313.24C89.9589 1305.51 93.4894 1297.78 96.9923 1290.03C101.278 1280.56 105.587 1271.1 109.896 1261.63C118.041 1243.75 126.187 1225.86 134.172 1207.88C146.917 1179.19 163.159 1153.03 179.404 1126.86C179.976 1125.94 180.548 1125.02 181.12 1124.09C207.838 1081.04 241.915 1048.32 285.395 1028.41C298.685 1022.33 311.829 1015.85 324.975 1009.36C334.193 1004.82 343.411 1000.27 352.681 995.861C356.041 994.262 359.384 992.577 362.73 990.89C375.876 984.263 389.074 977.611 403.523 976.047C426.184 973.598 451.065 976.467 460.576 1008.19C461.129 1010.03 462.239 1011.66 463.35 1013.29C463.871 1014.05 464.392 1014.82 464.856 1015.6C477.456 1036.99 496.046 1049.24 515.997 1060.18C550.708 1079.2 586.532 1088.34 624.996 1080.11C635.427 1077.89 638.916 1080.97 639.234 1092.87C639.291 1094.98 639.195 1097.1 639.1 1099.22C638.87 1104.32 638.641 1109.41 640.516 1114.35C649.308 1137.47 651.291 1160.19 637.785 1182.21C636.823 1183.78 636.227 1185.63 635.629 1187.48C635.311 1188.47 634.993 1189.45 634.619 1190.4C634.498 1190.7 634.372 1191.01 634.245 1191.32C632.916 1194.59 631.503 1198.06 634.643 1200.85C638.315 1204.11 641.663 1201.75 644.673 1198.69C658.375 1184.75 665.978 1145.95 658.396 1126.8C655.791 1120.19 654.328 1113.08 654.086 1105.85C653.757 1098.09 654.671 1093.6 663.11 1092.02C674.599 1089.87 684.282 1080.92 685.285 1068.02C686.525 1052.1 693.318 1052.52 703.523 1055.08C705.817 1069.75 708.895 1085.81 723.669 1088.31C735.195 1090.27 741.834 1097.56 748.963 1105.38C749.471 1105.93 749.98 1106.49 750.495 1107.05C752.603 1109.45 755.133 1111.32 757.921 1112.54C770.554 1117.52 777.189 1126.54 775.274 1142.35C774.995 1144.63 775.094 1146.97 775.193 1149.31C775.293 1151.69 775.394 1154.08 775.096 1156.4C772.209 1178.89 783.88 1190.95 796.04 1203.53C799.209 1206.8 802.412 1210.12 805.398 1213.65C811.08 1203.3 806.263 1196.97 801.429 1192.27C789.092 1180.27 785.404 1166.16 787.725 1147.98C790.023 1130 786.924 1112.97 770.628 1103.18C768.713 1102.02 766.838 1100.78 764.963 1099.54C762.314 1097.78 759.665 1096.02 756.905 1094.53C756.55 1094.34 756.186 1094.14 755.819 1093.95C752.223 1092.06 748.347 1090.03 749.579 1085.02C751.015 1079.18 755.305 1078.07 761.26 1078.69C780.449 1080.66 799.976 1080.2 818.342 1073.69C836.082 1067.4 853.74 1060.94 870.489 1050.46C893.75 1035.9 915.081 1020.22 931.465 995.951C933.378 993.118 935.193 990.168 937.016 987.208C942.454 978.372 947.946 969.448 956.219 963.301C962.163 958.884 967.523 956.444 974.871 960.668ZM447.943 940.11C448.581 939.947 449.22 939.784 449.854 939.613C460.989 938.03 464.804 931.82 469.327 924.455C471.04 921.666 472.855 918.71 475.208 915.779C476.74 913.872 478.232 911.371 479.821 908.709C483.623 902.339 487.975 895.047 494.726 892.764C507.841 888.329 513.979 901.922 508.824 905.371C494.837 914.729 534.157 960.574 563.102 975.13C622.522 1005.01 674.914 1007.15 732.835 1001.94C776.419 998.023 818.385 983.575 854.861 955.074C869.848 943.361 885.177 929.28 881.519 903.573C880.399 895.691 886.124 893.52 891.18 896.85C902.493 904.296 912.352 904.419 923.564 895.722C930.575 890.283 935.422 895.305 940.165 900.218C942.055 902.176 943.929 904.116 945.916 905.371C951.985 909.203 950.486 916.481 949.186 922.79C949.103 923.192 949.021 923.59 948.942 923.983C937.007 983.236 900.271 1018.88 854.982 1043.89C831.942 1056.61 805.849 1061.86 780.011 1065.46C768.531 1067.06 762.647 1062.78 764.783 1048.05C771.84 1042.85 780.011 1040.69 788.266 1038.52C793.771 1037.07 799.313 1035.61 804.586 1033.23C818.409 1026.99 830.679 1018.02 842.947 1009.06C847.292 1005.88 851.638 1002.7 856.052 999.65C859.242 997.444 862.535 995.419 865.83 993.394C873.042 988.961 880.26 984.524 886.402 978.169C887.359 977.178 888.362 976.237 889.363 975.296C890.972 973.784 892.579 972.274 893.998 970.561C896.893 967.07 899.758 962.735 896.399 958.188C893.204 953.864 890.749 956.235 888.27 958.629C887.543 959.332 886.814 960.036 886.063 960.574C880.407 964.628 874.778 968.748 869.147 972.87C847.675 988.586 826.174 1004.32 803.057 1016.51C777.413 1030.03 749.043 1035.09 720.869 1036.76C693.88 1038.36 667.018 1037.12 639.989 1030.72C621.755 1026.4 603.194 1022.31 584.768 1018.43C569.924 1015.3 557.858 1004.74 545.989 994.351C544.081 992.681 542.178 991.016 540.27 989.387C539.416 988.658 538.547 987.803 537.665 986.936C533.721 983.06 529.523 978.933 525.301 984.661C520.788 990.781 525.098 994.992 529.23 999.029C530.243 1000.02 531.245 1001 532.104 1001.99C555.73 1029.34 586.557 1035.55 617.399 1041.75C620.859 1042.45 624.319 1043.14 627.769 1043.87C628.767 1044.08 629.754 1044.34 630.747 1044.61C631.189 1044.73 631.632 1044.85 632.078 1044.97C627.493 1064.3 626.924 1064.34 610.956 1065.44L610.312 1065.48C580.037 1067.56 551.001 1062.5 523.939 1046.94C502.682 1034.72 482.351 1020.65 475.208 992.243C469.985 971.473 455.861 962.13 439.44 955.532C438.982 955.348 438.506 955.213 438.028 955.076C436.314 954.587 434.556 954.086 433.35 951.333C435.518 943.287 441.726 941.7 447.943 940.11Z" fill="black"/>
<path d="M810.534 655.297C816.193 651.22 820.426 645.395 822.609 638.677C825.419 630.47 823.686 621.352 818.076 614.819C812.736 608.527 805.477 611.025 798.65 613.113C794.461 614.392 789.055 618.593 786.241 611.849C783.793 605.973 788.121 601.43 792.423 598.538C800.85 592.873 810.039 591.831 819.741 595.697C831.863 600.528 836.472 610.798 838.209 622.61C844.994 668.748 806.648 679.327 776.269 677.376C774.094 677.13 772.015 676.33 770.22 675.05C766.783 672.721 761.374 671.037 762.877 665.535C764.588 659.276 769.758 660.329 774.745 661.341C787.007 663.828 798.674 661.545 810.534 655.297Z" fill="black"/>
<path d="M657.499 551.571C662.585 539.013 666.566 520.902 682.062 528.084C703.152 537.861 696.195 560.136 691.93 577.489C690.321 584.037 677.122 594.087 673.314 592.464C656.703 585.38 653.667 569.784 657.499 551.571Z" fill="black"/>
<path d="M888.83 589.949C880.085 597.727 871.524 597.877 866.25 588.385C856.957 571.653 857.466 554.143 869.64 539.106C872.183 535.965 883.666 535.319 886.238 538.123C900.457 553.626 901.07 571.208 888.83 589.949Z" fill="black"/>
<path d="M906.161 478.482C908.879 486.104 911.83 492.614 913.441 499.456C914.622 504.475 915.067 510.201 908.165 512.57C900.487 515.203 899.476 508.995 897.433 504.379C895.244 499.561 893.357 494.605 891.782 489.542C890.273 484.51 887.417 482.323 882.287 482.468C877.137 482.614 874.136 485.505 872.73 490.024C871.024 495.507 869.789 501.159 868.608 506.795C867.621 511.501 864.352 511.754 860.702 511.608C857.085 511.463 855.297 509.417 854.738 505.871C851.4 484.854 860.944 465.965 881.075 462.827C893.582 460.878 900.473 467.514 906.161 478.482Z" fill="black"/>
<path d="M656.957 482.056C672.398 460.624 687.004 456.55 701.768 470.246C711.151 478.946 710.694 492.374 712.757 504.232C713.306 507.379 710.615 510.263 707.345 510.804C703.776 511.541 700.188 509.628 698.735 506.214C697.044 502.187 696.57 497.643 695.109 493.493C693.364 488.538 691.811 483.145 685.253 482.586C678.726 482.03 674.395 485.672 671.737 491.019C668.048 498.439 666.886 511.8 655.693 506.31C645.125 501.127 653.807 490.878 656.957 482.056Z" fill="black"/>
<path d="M412.981 458.856C407.727 425.375 420.318 357.296 433.266 329.965C446.214 302.634 481.973 240.365 506.416 224.436C530.858 208.507 585.822 184.47 604.37 174.145C622.917 163.82 665.968 154.358 695.176 155.595C724.384 156.832 761.382 163.423 792.29 175.382C823.197 187.341 867.12 207.947 889.402 232.682C911.683 257.417 915.279 255.434 934.039 285.536C952.799 315.638 955.632 334.3 963.033 345.32C970.434 356.34 995.436 370.82 1015.48 395.906C1035.52 420.992 1044.47 424.753 1050.86 447.747C1057.26 470.741 1058.27 476.699 1053.42 484.955C1048.57 493.211 1038.2 506.277 1025.71 506.277C1013.21 506.277 997.186 508.377 978.808 494.571C960.431 480.765 943.676 477.43 930.203 460.707C916.73 443.984 902.913 446.073 887.139 430.607C871.365 415.141 858.871 418.632 829.58 409.282C800.289 399.932 792.913 418.898 765.199 405.938C737.484 392.978 731.943 404.266 712.33 416.39C692.717 428.514 673.53 441.056 652.639 448.163C631.747 455.27 583.993 469.063 563.954 466.558C543.915 464.053 518.76 453.598 497.015 467.812C475.27 482.026 467.596 486.625 459.069 489.552C450.542 492.479 451.373 491.77 443.314 484.662C435.255 477.554 437.056 477.052 429.382 474.544C421.708 472.036 412.981 458.856 412.981 458.856Z" fill="white"/>
<path fill-rule="evenodd" clip-rule="evenodd" d="M447.562 517.346C446.538 514.813 445.67 512.316 444.826 509.89C443.139 505.036 441.551 500.469 439.013 496.482C432.02 485.5 436.606 479.464 446.285 473.966C452.19 470.612 457.785 466.723 463.371 462.84L463.372 462.84L463.374 462.839C464.489 462.063 465.604 461.289 466.721 460.518C486.732 446.718 507.244 443.459 530.161 454.537C551.915 465.053 574.728 461.664 597.658 456.866C646.305 446.689 689.679 425.545 731.491 399.79C758.66 382.949 788.392 370.459 819.569 362.79C852.953 354.743 887.376 356.332 921.043 366.881C944.748 374.311 968.132 382.304 987.409 397.853C1011.09 416.953 1033.64 437.481 1043.35 467.553C1043.51 468.069 1043.7 468.611 1043.9 469.168L1043.9 469.169C1045.44 473.584 1047.33 478.987 1041.03 480.653C1036.41 481.879 1035.18 477.975 1034.01 474.26C1033.65 473.127 1033.3 472.011 1032.86 471.063C1016.34 435.578 989.249 410.099 954.437 392.175C914.552 371.639 871.938 366.728 827.994 373.437C815.252 375.382 803.47 380.401 791.136 385.655C783.566 388.879 775.788 392.192 767.453 394.937C773.86 398.265 779.123 398.769 784.224 399.258L784.23 399.258C784.887 399.321 785.542 399.384 786.196 399.452C834.985 404.559 881.965 415.316 922.39 444.416C928.791 449.024 934.673 454.316 940.558 459.61C945.821 464.345 951.086 469.082 956.725 473.332C957.187 473.68 957.649 474.029 958.111 474.377L958.219 474.459C973.454 485.954 988.747 497.492 1008.62 501.168C1037.56 506.522 1056.74 487.35 1049.18 459.644C1040.74 428.703 1018.94 406.453 996.199 385.544C969.818 361.293 939.236 343.469 904.882 331.196C862.157 315.933 818.245 313.673 774.001 317.616C729.933 321.543 686.381 330.007 644.945 345.787C624.025 353.755 603.768 363.472 583.557 373.168L583.557 373.168L583.548 373.173C580.805 374.488 578.063 375.804 575.321 377.114C534.75 396.498 499.598 423.654 464.454 450.802C458.907 455.088 453.359 459.374 447.791 463.628C445.601 465.302 444.013 467.638 442.407 470.001C439.464 474.333 436.459 478.755 429.572 479.354C427.779 468.305 435.449 461.71 441.86 456.197C442.354 455.773 442.84 455.355 443.314 454.942C466.891 434.383 490.772 413.989 517.583 397.411C524.694 393.011 526.802 387.478 527.366 379.488C530.682 330.68 543.807 282.997 565.987 239.182C568.409 234.384 570.729 229.536 573.052 224.684C580.081 209.997 587.128 195.275 597.043 181.814C537.689 203.514 493.093 241.899 460.313 295.041C427.412 348.382 419.373 406.792 422.068 469.782C413.071 464.79 412.686 459.057 412.311 453.215C409.446 408.427 414.53 364.634 432.338 323.107C449.981 281.956 475.411 245.922 510.885 217.253C537.791 195.509 566.954 177.724 600.604 167.791C606.97 165.912 609.093 161.065 611.39 155.817C611.538 155.48 611.686 155.141 611.836 154.801C618.048 140.753 621.599 139.973 632.83 149.931C638.416 154.885 643.742 156.318 651.622 154.853C684.394 148.763 717.042 150.163 749.886 156.543C822.375 170.625 880.189 207.618 925.239 263.884C943.115 286.211 957.03 311.412 965.286 339.084C968.02 348.151 973.856 356.018 981.813 361.358C1012.25 382.722 1036.8 409.019 1053.3 442.272C1060.74 457.272 1063.4 473.831 1055.16 487.537C1045.23 504.07 1029.62 513.364 1007.03 509.47C988.625 506.299 973.588 498.77 959.55 487.87C954.501 483.949 949.516 479.94 944.532 475.931L944.528 475.928L944.528 475.928C923.811 459.264 903.107 442.61 877.804 432.347C837.287 415.733 793.594 407.878 749.702 409.318C735.812 409.769 724.063 417.166 712.503 424.444C709.729 426.192 706.965 427.932 704.185 429.567C662.898 453.845 617.09 464.422 570.461 472.431C560.551 474.131 550.364 472.592 540.768 469.772C533.133 467.528 529.447 470.544 526.539 476.727C516.114 498.865 508.109 521.527 507.854 546.367C507.777 553.917 507.041 561.46 506.304 569.004C505.923 572.916 505.541 576.828 505.251 580.741C504.799 586.832 501.598 590.302 495.4 590.427C493.89 590.458 492.376 590.52 490.856 590.583H490.855C484.572 590.842 478.176 591.106 471.479 589.127C468.146 574.108 462.778 559.678 457.319 545.001C453.949 535.942 450.545 526.789 447.562 517.346ZM776.671 185.946C741.787 170.382 704.643 164.575 666.853 163.586C631.387 162.658 606.84 181.435 592.575 211.739C589.945 217.323 587.272 222.888 584.598 228.453C572.235 254.189 559.866 279.937 551.81 307.67C545.144 330.619 541.713 353.704 537.875 379.531L537.875 379.531C537.652 381.032 537.428 382.542 537.201 384.062C650.103 320.506 767.754 290.694 895.88 314.443C884.499 282.961 863.111 260.356 842.055 238.101L842.019 238.062C841.445 237.456 840.871 236.849 840.298 236.243C822.237 217.14 802.598 198.995 776.671 185.942V185.946ZM808.173 189.624C825.241 195.323 841.017 203.096 854.929 214.339V214.335C901.882 246.782 932.846 288.897 953.101 339.238C942.403 336.03 932.776 331.224 923.265 326.475C920.291 324.99 917.328 323.511 914.347 322.088C909.702 319.871 906.838 313.518 904.172 307.602C903.502 306.116 902.845 304.658 902.175 303.299C880.642 259.648 848.866 224.339 810.648 194.179C809.204 193.072 808.305 191.417 808.173 189.624Z" fill="black"/>
<path d="M697.683 764.396C696.595 759.811 694.907 755.56 699.731 753.596C703.751 751.961 707.045 754.067 709.975 756.957C719.811 766.657 731.17 774.77 744.423 778.025C771.468 784.669 795.447 777.541 815.616 758.133C818.967 754.908 822.294 751.648 825.81 748.61C828.181 746.56 830.943 745.36 833.81 747.904C836.823 750.578 835.284 753.294 833.656 755.874C820.119 777.324 802.033 791.674 775.59 792.839C767.55 793.195 759.496 793.862 751.466 793.667C729.051 793.123 713.496 779.379 697.683 764.396Z" fill="black"/>
<path d="M666.328 753.463C666.728 737.957 674.345 728.092 686.01 720.453C690.669 717.403 695.353 716.405 700.491 717.835C703.802 718.756 707.037 720.5 707.573 724.375C708.173 728.675 705.073 729.995 701.573 731.209C690.482 735.061 682.72 742.325 680.094 754.083C679.119 758.449 678.177 763.119 673.171 763.544C667.235 764.05 667.883 758.103 666.328 753.463Z" fill="black"/>
<path d="M847.407 733.911C847.337 725.182 852.847 726.597 857.129 727.965C864.345 730.265 873.006 746.607 871.79 754.495C871.41 756.956 871.412 759.773 868.513 760.895C865.12 762.207 862.67 760.54 861.027 757.795C856.477 750.183 852.091 742.474 847.407 733.911Z" fill="black"/>
</g>
</svg>
