<svg width="88" height="25" viewBox="0 0 88 25" fill="none" xmlns="http://www.w3.org/2000/svg">
<path d="M14.8888 1.98882L24.2304 24.0509H20.4837L12.5409 5.31801C12.4909 5.21863 12.391 5.16894 12.2411 5.16894C12.1412 5.16894 12.0413 5.21863 11.9914 5.31801L4.04851 24.0509H0.301876L9.64348 1.98882C10.0931 0.895653 11.1421 0.24969 12.2911 0.24969C13.4401 0.24969 14.4392 0.895653 14.8888 1.98882Z" fill="#010101"/>
<path d="M45.631 8.39876C45.631 10.436 43.9325 12.1255 41.8843 12.1255V5.56646C41.8843 4.67205 41.135 3.9764 40.2858 3.9764H25.4491V5.66584C25.4491 6.3118 25.8488 6.90807 26.4482 7.10683L42.3839 13.7155C44.3821 14.5106 45.631 16.4484 45.631 18.5851V24.2H41.8843V18.6348C41.8843 17.9888 41.4847 17.3925 40.8852 17.1938L24.9496 10.5851C22.9514 9.79006 21.7025 7.85217 21.7025 5.76522V1.88944C21.7025 0.995032 22.4518 0.200001 23.351 0.200001H40.3857C43.2831 0.200001 45.631 2.58509 45.631 5.46708V8.39876Z" fill="#010101"/>
<path d="M85.4489 10.287C86.448 11.2807 86.9975 12.6224 86.9975 14.0137V24.0509H83.2009V14.0634C83.2009 13.6161 83.0511 13.2186 82.7513 12.9205L74.259 4.47329C73.9593 4.17516 73.5596 3.9764 73.11 3.9764H65.1172V0.200001H73.16C74.5587 0.200001 75.9075 0.796274 76.9066 1.74037L85.4489 10.287ZM62.8692 1.79006L71.4615 10.287C72.4606 11.2807 73.0101 12.6224 73.0101 14.0137V24.0509H69.2135V14.0634C69.2135 13.6161 69.0137 13.2186 68.7639 12.9205L60.2216 4.47329C59.9219 4.17516 59.5222 3.9764 59.0726 3.9764H56.475C55.6257 3.9764 54.8764 4.72174 54.8764 5.56646V24.0509H51.1298V5.46708C51.1298 2.58509 53.4777 0.200001 56.3751 0.200001H59.1226C60.5213 0.200001 61.8701 0.796274 62.8692 1.79006Z" fill="#010101"/>
<path fill-rule="evenodd" clip-rule="evenodd" d="M9.64348 1.98882C10.0931 0.895653 11.1421 0.24969 12.2911 0.24969C13.4401 0.24969 14.4392 0.895653 14.8888 1.98882L24.2304 24.0509H20.4837L12.5409 5.31801C12.4909 5.21863 12.391 5.16894 12.2411 5.16894C12.1412 5.16894 12.0413 5.21863 11.9914 5.31801L4.04851 24.0509H0.301876L9.64348 1.98882ZM12.1721 5.40406L4.18094 24.2509H0L9.45851 1.91275C9.45865 1.91241 9.45879 1.91208 9.45892 1.91174C9.94167 0.739132 11.067 0.0496888 12.2911 0.0496888C13.5193 0.0496888 14.5921 0.742793 15.0733 1.91174C15.0735 1.91208 15.0736 1.91241 15.0737 1.91275L24.5322 24.2509H20.3513L12.3601 5.40392C12.3551 5.39542 12.3493 5.39021 12.3394 5.38529C12.3249 5.37809 12.2953 5.36894 12.2411 5.36894C12.2074 5.36894 12.184 5.38382 12.1721 5.40406ZM41.6843 12.3255V5.56646C41.6843 4.78753 41.0296 4.1764 40.2858 4.1764H25.6491V5.66584C25.6491 6.23351 26.0008 6.74777 26.5112 6.91699L26.5181 6.91929L42.4578 13.5297C42.4583 13.5299 42.4588 13.5301 42.4592 13.5303C44.5364 14.3574 45.831 16.3711 45.831 18.5851V24.4H41.6843V18.6348C41.6843 18.0671 41.3327 17.5528 40.8223 17.3836L40.8154 17.3813L24.8756 10.7709C24.8752 10.7707 24.8747 10.7706 24.8742 10.7704C22.798 9.94364 21.5025 7.93068 21.5025 5.76522V1.88944C21.5025 0.891324 22.3347 0 23.351 0H40.3857C43.395 0 45.831 2.4761 45.831 5.46708V8.39876C45.831 10.5475 44.0419 12.3255 41.8843 12.3255H41.6843ZM24.9496 10.5851L40.8852 17.1938C41.4847 17.3925 41.8843 17.9888 41.8843 18.6348V24.2H45.631V18.5851C45.631 16.4484 44.3821 14.5106 42.3839 13.7155L26.4482 7.10683C25.8488 6.90807 25.4491 6.3118 25.4491 5.66584V3.9764H40.2858C41.135 3.9764 41.8843 4.67205 41.8843 5.56646V12.1255C41.9514 12.1255 42.0181 12.1237 42.0843 12.1201C44.0419 12.0145 45.631 10.3693 45.631 8.39876V5.46708C45.631 2.58509 43.2831 0.200001 40.3857 0.200001H23.351C22.4518 0.200001 21.7025 0.995032 21.7025 1.88944V5.76522C21.7025 7.85217 22.9514 9.79006 24.9496 10.5851ZM76.9066 1.74037L85.4489 10.287C86.448 11.2807 86.9975 12.6224 86.9975 14.0137V24.0509H83.2009V14.0634C83.2009 13.6161 83.0511 13.2186 82.7513 12.9205L74.259 4.47329C73.9593 4.17516 73.5596 3.9764 73.11 3.9764H65.1172V0.200001H73.16C74.5587 0.200001 75.9075 0.796274 76.9066 1.74037ZM64.9172 3.53403V0H73.16C74.615 0 76.0117 0.619553 77.044 1.59501L77.0481 1.59893L85.59 10.1452C86.6271 11.1768 87.1975 12.5696 87.1975 14.0137V24.2509H83.0009V14.0634C83.0009 13.6626 82.8677 13.3184 82.6103 13.0623L74.1179 4.61509C73.8491 4.34772 73.4982 4.1764 73.11 4.1764H65.5668L71.6021 10.1447C72.6393 11.1764 73.2101 12.5696 73.2101 14.0137V24.2509H69.0135V14.0634C69.0135 13.6797 68.843 13.3288 68.6165 13.056L60.081 4.6155C59.8122 4.34814 59.4608 4.1764 59.0726 4.1764H56.475C55.7352 4.1764 55.0764 4.8332 55.0764 5.56646V24.2509H50.9298V5.46708C50.9298 2.4761 53.3657 0 56.3751 0H59.1226C60.5782 0 61.9766 0.620085 63.0103 1.64826L64.9172 3.53403ZM62.8692 1.79006C61.8701 0.796274 60.5213 0.200001 59.1226 0.200001H56.3751C53.4777 0.200001 51.1298 2.58509 51.1298 5.46708V24.0509H54.8764V5.56646C54.8764 4.72174 55.6257 3.9764 56.475 3.9764H59.0726C59.5222 3.9764 59.9219 4.17516 60.2216 4.47329L68.7639 12.9205C69.0137 13.2186 69.2135 13.6161 69.2135 14.0634V24.0509H73.0101V14.0137C73.0101 12.6224 72.4606 11.2807 71.4615 10.287L62.8692 1.79006Z" fill="#010101"/>
</svg>
