<svg width="1440" height="118" viewBox="0 0 1440 118" fill="none" xmlns="http://www.w3.org/2000/svg">
<path d="M-1024.22 0.102539V102.792H-1039.41V0.102539H-1024.22ZM-1024.22 117.981V102.792H-963.461V117.981H-1024.22Z" fill="black"/>
<path d="M-488.461 0.102539V15.2914H-549.217V0.102539H-488.461ZM-564.406 102.792V15.2914H-549.217V102.792H-564.406ZM-549.217 117.981V102.792H-488.461V117.981H-549.217ZM-488.461 102.792V87.6035H-473.273V102.792H-488.461ZM-488.461 30.4802V15.2914H-473.273V30.4802H-488.461Z" fill="black"/>
<path d="M-431.082 15.2914V30.4802H-446.27V15.2914H-431.082ZM-461.459 87.6035V30.4802H-446.27V87.6035H-461.459ZM-446.27 102.792V87.6035H-431.082V102.792H-446.27ZM-431.082 117.981V102.792H-385.515V117.981H-431.082ZM-431.082 15.2914V0.102539H-385.515V15.2914H-431.082ZM-385.515 102.792V87.6035H-370.326V102.792H-385.515ZM-385.515 30.4802V15.2914H-370.326V30.4802H-385.515ZM-370.326 87.6035V30.4802H-355.137V87.6035H-370.326Z" fill="black"/>
<path d="M-31.2168 64.6551V102.792H29.5386V117.981H-46.4056V64.6551H-31.2168ZM-46.4056 49.4663V0.102539H29.5386V15.2914H-31.2168V49.4663H-46.4056ZM-31.2168 64.6551V49.4663H29.5386V64.6551H-31.2168ZM29.5386 102.792V64.6551H44.7274V102.792H29.5386ZM29.5386 49.4663V15.2914H44.7274V49.4663H29.5386Z" fill="black"/>
<path d="M86.9185 15.2914V30.4802H71.7296V15.2914H86.9185ZM56.5408 87.6035V30.4802H71.7296V87.6035H56.5408ZM71.7296 102.792V87.6035H86.9185V102.792H71.7296ZM86.9185 117.981V102.792H132.485V117.981H86.9185ZM86.9185 15.2914V0.102539H132.485V15.2914H86.9185ZM132.485 102.792V87.6035H147.674V102.792H132.485ZM132.485 30.4802V15.2914H147.674V30.4802H132.485ZM147.674 87.6035V30.4802H162.863V87.6035H147.674Z" fill="black"/>
<path d="M413.566 0.102539V15.2914H375.594V0.102539H413.566ZM413.566 117.981V15.2914H428.755V117.981H413.566ZM428.755 15.2914V0.102539H466.727V15.2914H428.755Z" fill="black"/>
<path d="M478.541 102.792V64.6551H493.73V102.792H478.541ZM478.541 49.4663V15.2914H493.73V49.4663H478.541ZM493.73 117.981V102.792H558.282V117.981H493.73ZM493.73 64.6551V49.4663H550.688V64.6551H493.73ZM493.73 15.2914V0.102539H558.282V15.2914H493.73Z" fill="black"/>
<path d="M-816.434 0.102539V15.2914H-854.406V0.102539H-816.434ZM-816.434 117.981V15.2914H-801.245V117.981H-816.434ZM-801.245 15.2914V0.102539H-763.273V15.2914H-801.245Z" fill="black"/>
<path d="M-720.586 0.102539V15.2914H-735.775V0.102539H-720.586ZM-751.459 30.6453V15.2914H-735.775V30.6453H-751.459Z" fill="black"/>
<path d="M-632.706 49.4663V64.6551H-693.461V49.4663H-632.706ZM-708.65 102.792V87.6035H-693.461V102.792H-708.65ZM-708.65 49.4663V15.2914H-693.461V49.4663H-708.65ZM-693.461 117.981V102.792H-632.706V117.981H-693.461ZM-693.461 15.2914V0.102539H-632.706V15.2914H-693.461ZM-632.706 102.792V64.6551H-617.517V102.792H-632.706ZM-632.706 30.4802V15.2914H-617.517V30.4802H-632.706Z" fill="black"/>
<path d="M-950.123 0.102539H-868.73V13.3102H-934.438V50.787H-873.188V63.9947H-934.438V104.773H-868.235V117.981H-950.123V0.102539Z" fill="black"/>
<path d="M-339.123 0.102539H-323.438V104.773H-261.032V117.981H-339.123V0.102539Z" fill="black"/>
<path d="M-250.687 0.102539H-235.002V104.773H-172.596V117.981H-250.687V0.102539Z" fill="black"/>
<path d="M-141.944 69.2778H-101.99L-121.637 14.3008H-121.967L-141.944 69.2778ZM-130.222 0.102539H-112.887L-66.825 117.981H-84.16L-97.0375 82.4855H-146.897L-160.104 117.981H-176.119L-130.222 0.102539Z" fill="black"/>
<path d="M177.877 0.102539H233.35C244.576 0.102539 253.326 2.85414 259.6 8.35735C265.984 13.8605 269.176 21.3999 269.176 30.9755C269.176 38.1297 267.525 44.4033 264.223 49.7965C261.031 55.1896 255.858 58.8767 248.704 60.8579V61.1881C252.116 61.8485 254.867 62.9491 256.958 64.49C259.16 66.0309 260.866 67.902 262.076 70.1033C263.397 72.1945 264.333 74.5609 264.883 77.2024C265.543 79.844 266.039 82.5956 266.369 85.4572C266.589 88.3189 266.754 91.2356 266.864 94.2073C266.974 97.179 267.249 100.096 267.69 102.957C268.13 105.819 268.735 108.571 269.506 111.212C270.386 113.744 271.652 116 273.303 117.981H255.803C254.702 116.77 253.932 115.119 253.491 113.028C253.161 110.937 252.941 108.626 252.831 106.094C252.721 103.453 252.611 100.646 252.501 97.6743C252.391 94.7026 252.061 91.7859 251.51 88.9242C251.07 86.0626 250.52 83.366 249.859 80.8345C249.199 78.193 248.153 75.9367 246.723 74.0656C245.292 72.0844 243.421 70.5435 241.109 69.4429C238.798 68.2322 235.716 67.6268 231.864 67.6268H193.562V117.981H177.877V0.102539ZM226.251 54.4192C229.883 54.4192 233.35 54.144 236.652 53.5937C239.953 53.0434 242.815 51.9977 245.237 50.4569C247.768 48.8059 249.749 46.6596 251.18 44.0181C252.721 41.2665 253.491 37.7444 253.491 33.452C253.491 27.5085 251.84 22.6657 248.539 18.9235C245.237 15.1813 239.899 13.3102 232.524 13.3102H193.562V54.4192H226.251Z" fill="black"/>
<path d="M307.902 69.2778H347.855L328.209 14.3008H327.879L307.902 69.2778ZM319.624 0.102539H336.959L383.021 117.981H365.686L352.808 82.4855H302.949L289.742 117.981H273.727L319.624 0.102539Z" fill="black"/>
<path d="M896.783 0.102539V102.792H881.594V0.102539H896.783ZM896.783 117.981V102.792H957.539V117.981H896.783Z" fill="black"/>
<path d="M1432.54 0.102539V15.2914H1371.78V0.102539H1432.54ZM1356.59 102.792V15.2914H1371.78V102.792H1356.59ZM1371.78 117.981V102.792H1432.54V117.981H1371.78ZM1432.54 102.792V87.6035H1447.73V102.792H1432.54ZM1432.54 30.4802V15.2914H1447.73V30.4802H1432.54Z" fill="black"/>
<path d="M1489.92 15.2914V30.4802H1474.73V15.2914H1489.92ZM1459.54 87.6035V30.4802H1474.73V87.6035H1459.54ZM1474.73 102.792V87.6035H1489.92V102.792H1474.73ZM1489.92 117.981V102.792H1535.48V117.981H1489.92ZM1489.92 15.2914V0.102539H1535.48V15.2914H1489.92ZM1535.48 102.792V87.6035H1550.67V102.792H1535.48ZM1535.48 30.4802V15.2914H1550.67V30.4802H1535.48ZM1550.67 87.6035V30.4802H1565.86V87.6035H1550.67Z" fill="black"/>
<path d="M1889.78 64.6551V102.792H1950.54V117.981H1874.59V64.6551H1889.78ZM1874.59 49.4663V0.102539H1950.54V15.2914H1889.78V49.4663H1874.59ZM1889.78 64.6551V49.4663H1950.54V64.6551H1889.78ZM1950.54 102.792V64.6551H1965.73V102.792H1950.54ZM1950.54 49.4663V15.2914H1965.73V49.4663H1950.54Z" fill="black"/>
<path d="M2007.92 15.2914V30.4802H1992.73V15.2914H2007.92ZM1977.54 87.6035V30.4802H1992.73V87.6035H1977.54ZM1992.73 102.792V87.6035H2007.92V102.792H1992.73ZM2007.92 117.981V102.792H2053.48V117.981H2007.92ZM2007.92 15.2914V0.102539H2053.48V15.2914H2007.92ZM2053.48 102.792V87.6035H2068.67V102.792H2053.48ZM2053.48 30.4802V15.2914H2068.67V30.4802H2053.48ZM2068.67 87.6035V30.4802H2083.86V87.6035H2068.67Z" fill="black"/>
<path d="M2334.57 0.102539V15.2914H2296.59V0.102539H2334.57ZM2334.57 117.981V15.2914H2349.76V117.981H2334.57ZM2349.76 15.2914V0.102539H2387.73V15.2914H2349.76Z" fill="black"/>
<path d="M2399.54 102.792V64.6551H2414.73V102.792H2399.54ZM2399.54 49.4663V15.2914H2414.73V49.4663H2399.54ZM2414.73 117.981V102.792H2479.28V117.981H2414.73ZM2414.73 64.6551V49.4663H2471.69V64.6551H2414.73ZM2414.73 15.2914V0.102539H2479.28V15.2914H2414.73Z" fill="black"/>
<path d="M1104.57 0.102539V15.2914H1066.59V0.102539H1104.57ZM1104.57 117.981V15.2914H1119.76V117.981H1104.57ZM1119.76 15.2914V0.102539H1157.73V15.2914H1119.76Z" fill="black"/>
<path d="M1200.41 0.102539V15.2914H1185.22V0.102539H1200.41ZM1169.54 30.6453V15.2914H1185.22V30.6453H1169.54Z" fill="black"/>
<path d="M1288.29 49.4663V64.6551H1227.54V49.4663H1288.29ZM1212.35 102.792V87.6035H1227.54V102.792H1212.35ZM1212.35 49.4663V15.2914H1227.54V49.4663H1212.35ZM1227.54 117.981V102.792H1288.29V117.981H1227.54ZM1227.54 15.2914V0.102539H1288.29V15.2914H1227.54ZM1288.29 102.792V64.6551H1303.48V102.792H1288.29ZM1288.29 30.4802V15.2914H1303.48V30.4802H1288.29Z" fill="black"/>
<path d="M970.877 0.102539H1052.27V13.3102H986.562V50.787H1047.81V63.9947H986.562V104.773H1052.77V117.981H970.877V0.102539Z" fill="black"/>
<path d="M1581.88 0.102539H1597.56V104.773H1659.97V117.981H1581.88V0.102539Z" fill="black"/>
<path d="M1670.31 0.102539H1686V104.773H1748.4V117.981H1670.31V0.102539Z" fill="black"/>
<path d="M1779.06 69.2778H1819.01L1799.36 14.3008H1799.03L1779.06 69.2778ZM1790.78 0.102539H1808.11L1854.18 117.981H1836.84L1823.96 82.4855H1774.1L1760.9 117.981H1744.88L1790.78 0.102539Z" fill="black"/>
<path d="M2098.88 0.102539H2154.35C2165.58 0.102539 2174.33 2.85414 2180.6 8.35735C2186.98 13.8605 2190.18 21.3999 2190.18 30.9755C2190.18 38.1297 2188.52 44.4033 2185.22 49.7965C2182.03 55.1896 2176.86 58.8767 2169.7 60.8579V61.1881C2173.12 61.8485 2175.87 62.9491 2177.96 64.49C2180.16 66.0309 2181.87 67.902 2183.08 70.1033C2184.4 72.1945 2185.33 74.5609 2185.88 77.2024C2186.54 79.844 2187.04 82.5956 2187.37 85.4572C2187.59 88.3189 2187.75 91.2356 2187.86 94.2073C2187.97 97.179 2188.25 100.096 2188.69 102.957C2189.13 105.819 2189.74 108.571 2190.51 111.212C2191.39 113.744 2192.65 116 2194.3 117.981H2176.8C2175.7 116.77 2174.93 115.119 2174.49 113.028C2174.16 110.937 2173.94 108.626 2173.83 106.094C2173.72 103.453 2173.61 100.646 2173.5 97.6743C2173.39 94.7026 2173.06 91.7859 2172.51 88.9242C2172.07 86.0626 2171.52 83.366 2170.86 80.8345C2170.2 78.193 2169.15 75.9367 2167.72 74.0656C2166.29 72.0844 2164.42 70.5435 2162.11 69.4429C2159.8 68.2322 2156.72 67.6268 2152.86 67.6268H2114.56V117.981H2098.88V0.102539ZM2147.25 54.4192C2150.88 54.4192 2154.35 54.144 2157.65 53.5937C2160.95 53.0434 2163.82 51.9977 2166.24 50.4569C2168.77 48.8059 2170.75 46.6596 2172.18 44.0181C2173.72 41.2665 2174.49 37.7444 2174.49 33.452C2174.49 27.5085 2172.84 22.6657 2169.54 18.9235C2166.24 15.1813 2160.9 13.3102 2153.52 13.3102H2114.56V54.4192H2147.25Z" fill="black"/>
<path d="M2228.9 69.2778H2268.86L2249.21 14.3008H2248.88L2228.9 69.2778ZM2240.62 0.102539H2257.96L2304.02 117.981H2286.69L2273.81 82.4855H2223.95L2210.74 117.981H2194.73L2240.62 0.102539Z" fill="black"/>
<path d="M691.161 0.102539V15.2914H675.972V0.102539H691.161ZM645.594 91.4007V60.8579H660.783V45.6691H675.972V30.4802H691.161V15.2914H706.35V30.4802H732.93V15.2914H748.119V30.4802H763.308V45.6691H778.497V60.8579H793.686V91.4007H778.497V76.2118H763.308V102.792H748.119V87.6035H691.161V102.792H675.972V76.2118H660.783V91.4007H645.594ZM691.161 117.981V102.792H706.35V117.981H691.161ZM691.161 60.8579H706.35V45.6691H691.161V60.8579ZM732.93 117.981V102.792H748.119V117.981H732.93ZM732.93 60.8579H748.119V45.6691H732.93V60.8579ZM748.119 15.2914V0.102539H763.308V15.2914H748.119Z" fill="black"/>
</svg>
