<svg width="15" height="12" viewBox="0 0 15 12" fill="none" xmlns="http://www.w3.org/2000/svg">
<path d="M0.21215 5.41659C0.0707155 5.55802 0 5.75249 0 6C0 6.24751 0.0795558 6.45082 0.238668 6.60993C0.397782 6.76904 0.601089 6.8486 0.848598 6.8486H11.2664L7.65985 10.5082C7.23555 10.8971 7.22671 11.2949 7.63333 11.7015C8.03995 12.1081 8.43773 12.0993 8.82667 11.675L13.9183 6.58341C14.0243 6.51269 14.0951 6.4243 14.1304 6.31822C14.1658 6.21215 14.1835 6.10608 14.1835 6C14.1835 5.89392 14.1658 5.78785 14.1304 5.68178C14.0951 5.5757 14.0243 5.48731 13.9183 5.41659L8.82667 0.324997C8.43773 -0.0993048 8.03995 -0.108144 7.63333 0.298478C7.22671 0.7051 7.23555 1.10288 7.65985 1.49182L11.2664 5.1514H0.848598C0.601089 5.1514 0.388941 5.2398 0.21215 5.41659Z" fill="#010101"/>
</svg>
