<svg width="588" height="610" viewBox="0 0 588 610" fill="none" xmlns="http://www.w3.org/2000/svg">
<path d="M0 14C0 6.26801 6.26803 0 14 0H574C581.732 0 588 6.26801 588 14V375.5C588 383.232 581.732 389.5 574 389.5H500C492.268 389.5 486 395.768 486 403.5V485.5C486 493.232 479.732 499.5 472 499.5H397C389.268 499.5 383 505.768 383 513.5V595.5C383 603.232 376.732 609.5 369 609.5H218C210.268 609.5 204 603.232 204 595.5V513.5C204 505.768 197.732 499.5 190 499.5H117C109.268 499.5 103 493.232 103 485.5V403.5C103 395.768 96.732 389.5 89 389.5H14C6.26801 389.5 0 383.232 0 375.5L0 14Z" fill="#F8F4F1"/>
</svg>
