<svg width="684" height="124" viewBox="0 0 684 124" fill="none" xmlns="http://www.w3.org/2000/svg">
<path d="M414.802 37.6313C413.921 29.1564 410.84 23.0478 405.557 19.3056C400.384 15.4534 393.725 13.5273 385.58 13.5273C382.278 13.5273 379.031 13.8575 375.839 14.5178C372.647 15.1782 369.786 16.2789 367.254 17.8198C364.833 19.3607 362.852 21.4519 361.311 24.0934C359.88 26.6249 359.165 29.8167 359.165 33.669C359.165 37.3011 360.21 40.2728 362.301 42.5842C364.503 44.7855 367.364 46.6015 370.886 48.0323C374.518 49.4632 378.591 50.6739 383.103 51.6645C387.616 52.545 392.184 53.5355 396.806 54.6362C401.539 55.7368 406.162 57.0576 410.675 58.5985C415.187 60.0293 419.204 62.0105 422.727 64.542C426.359 67.0734 429.22 70.2653 431.312 74.1175C433.513 77.9698 434.613 82.8126 434.613 88.646C434.613 94.9196 433.183 100.313 430.321 104.825C427.569 109.228 423.992 112.86 419.59 115.722C415.187 118.473 410.234 120.455 404.731 121.665C399.338 122.986 393.945 123.646 388.552 123.646C381.948 123.646 375.674 122.821 369.731 121.17C363.897 119.519 358.724 117.043 354.212 113.741C349.809 110.329 346.287 106.036 343.646 100.863C341.114 95.58 339.848 89.3614 339.848 82.2072H354.707C354.707 87.1601 355.642 91.4526 357.514 95.0847C359.495 98.6068 362.026 101.523 365.108 103.835C368.3 106.146 371.987 107.852 376.169 108.953C380.352 110.053 384.644 110.604 389.047 110.604C392.569 110.604 396.091 110.274 399.613 109.613C403.245 108.953 406.492 107.852 409.354 106.311C412.215 104.66 414.527 102.459 416.288 99.7074C418.049 96.9558 418.929 93.4338 418.929 89.1413C418.929 85.0689 417.829 81.767 415.627 79.2355C413.536 76.704 410.675 74.6678 407.042 73.127C403.52 71.476 399.503 70.1552 394.99 69.1646C390.478 68.1741 385.855 67.1835 381.122 66.1929C376.5 65.0923 371.932 63.8816 367.419 62.5608C362.907 61.13 358.834 59.3139 355.202 57.1126C351.68 54.8013 348.819 51.8846 346.617 48.3625C344.526 44.7304 343.48 40.2178 343.48 34.8247C343.48 28.8812 344.691 23.7632 347.113 19.4707C349.534 15.0682 352.726 11.4911 356.688 8.73948C360.76 5.87781 365.328 3.78659 370.391 2.46582C375.564 1.03499 380.847 0.31958 386.24 0.31958C392.294 0.31958 397.907 1.03499 403.08 2.46582C408.253 3.89666 412.766 6.15297 416.618 9.23476C420.58 12.3166 423.662 16.2238 425.863 20.9566C428.175 25.5793 429.44 31.1375 429.661 37.6313H414.802Z" fill="black"/>
<path d="M451.03 3.12621H466.714V121.005H451.03V3.12621Z" fill="black"/>
<path d="M565.161 2.89183V18.0807H500.609V2.89183H565.161ZM485.42 105.582V18.0807H500.609V105.582H485.42ZM500.609 120.77V105.582H565.161V120.77H500.609ZM530.987 67.4444V52.2556H565.161V67.4444H530.987ZM565.161 105.582V67.4444H580.35V105.582H565.161ZM565.161 33.2695V18.0807H580.35V33.2695H565.161Z" fill="black"/>
<path d="M607.425 2.89183V18.0807H622.614V33.2695H607.425V120.77H592.236V2.89183H607.425ZM622.614 48.4584V33.2695H637.802V48.4584H622.614ZM637.802 90.3928V48.4584H652.991V90.3928H637.802ZM652.991 105.582V90.3928H668.18V2.89183H683.369V120.77H668.18V105.582H652.991Z" fill="black"/>
<path d="M31.0742 18.0807V33.2695H15.8853V18.0807H31.0742ZM0.696472 90.3928V33.2695H15.8853V90.3928H0.696472ZM15.8853 105.582V90.3928H31.0742V105.582H15.8853ZM31.0742 120.77V105.582H76.6407V120.77H31.0742ZM31.0742 90.3928V33.2695H61.4518V48.4584H46.263V60.0151H61.4518V48.4584H76.6407V90.3928H61.4518V75.2039H46.263V90.3928H31.0742ZM31.0742 18.0807V2.89183H76.6407V18.0807H31.0742ZM76.6407 105.582V90.3928H91.8295V105.582H76.6407ZM76.6407 33.2695V18.0807H91.8295V33.2695H76.6407ZM91.8295 90.3928V33.2695H107.018V90.3928H91.8295Z" fill="black"/>
<path d="M224.653 2.89183V18.0807H163.898V105.582H224.653V120.77H148.709V2.89183H224.653ZM224.653 105.582V18.0807H239.842V105.582H224.653Z" fill="black"/>
<path d="M251.655 105.582V67.4444H266.844V105.582H251.655ZM251.655 52.2556V18.0807H266.844V52.2556H251.655ZM266.844 120.77V105.582H331.397V120.77H266.844ZM266.844 67.4444V52.2556H323.802V67.4444H266.844ZM266.844 18.0807V2.89183H331.397V18.0807H266.844Z" fill="black"/>
</svg>
