<svg width="902" height="119" viewBox="0 0 902 119" fill="none" xmlns="http://www.w3.org/2000/svg">
<path d="M435.261 0.121338V15.3102H374.506V49.4851H435.261V64.6739H374.506V118H359.317V0.121338H435.261ZM435.261 49.4851V15.3102H450.45V49.4851H435.261Z" fill="black"/>
<path d="M492.641 15.3102V30.499H477.452V15.3102H492.641ZM462.264 87.6223V30.499H477.452V87.6223H462.264ZM477.452 102.811V87.6223H492.641V102.811H477.452ZM492.641 118V102.811H538.208V118H492.641ZM492.641 15.3102V0.121338H538.208V15.3102H492.641ZM538.208 102.811V87.6223H553.397V102.811H538.208ZM538.208 30.499V15.3102H553.397V30.499H538.208ZM553.397 87.6223V30.499H568.585V87.6223H553.397Z" fill="black"/>
<path d="M671.66 118V87.6223H656.471V72.4334H671.66V0.121338H686.848V118H671.66ZM580.526 118V0.121338H595.715V72.4334H610.904V87.6223H595.715V118H580.526ZM610.904 72.4334V30.6641H626.093V72.4334H610.904ZM626.093 30.6641V15.4753H641.282V30.6641H626.093ZM641.282 72.4334V30.6641H656.471V72.4334H641.282Z" fill="black"/>
<path d="M38.5665 0.121338V15.3102H0.594421V0.121338H38.5665ZM38.5665 118V15.3102H53.7554V118H38.5665ZM53.7554 15.3102V0.121338H91.7275V15.3102H53.7554Z" fill="black"/>
<path d="M705.022 0.44458H786.414V13.6523H720.706V51.1291H781.957V64.3368H720.706V105.116H786.91V118.323H705.022V0.44458Z" fill="black"/>
<path d="M103.762 0.355713H119.446V51.0402H181.522V0.355713H197.206V118.234H181.522V64.2479H119.446V118.234H103.762V0.355713Z" fill="black"/>
<path d="M219.072 102.811V64.6739H234.261V102.811H219.072ZM219.072 49.4851V15.3102H234.261V49.4851H219.072ZM234.261 118V102.811H298.814V118H234.261ZM234.261 64.6739V49.4851H291.219V64.6739H234.261ZM234.261 15.3102V0.121338H298.814V15.3102H234.261Z" fill="black"/>
<path d="M825.945 118H810.757V64.6739H825.945V118ZM810.757 49.4851V0.121338H886.701V15.3102H825.945V49.4851H810.757ZM825.945 64.6739V49.4851H886.701V64.6739H825.945ZM886.701 118V64.6739H901.89V118H886.701ZM886.701 49.4851V15.3102H901.89V49.4851H886.701Z" fill="black"/>
</svg>
