<svg width="771" height="125" viewBox="0 0 771 125" fill="none" xmlns="http://www.w3.org/2000/svg">
<path d="M30.8305 17.8014V32.9902H15.6417V17.8014H30.8305ZM0.45282 90.1134V32.9902H15.6417V90.1134H0.45282ZM15.6417 105.302V90.1134H30.8305V105.302H15.6417ZM30.8305 120.491V105.302H76.397V120.491H30.8305ZM30.8305 17.8014V2.61251H76.397V17.8014H30.8305ZM76.397 105.302V90.1134H91.5859V105.302H76.397ZM76.397 32.9902V17.8014H91.5859V32.9902H76.397ZM91.5859 90.1134V32.9902H106.775V90.1134H91.5859Z" fill="black"/>
<path d="M198.457 2.61251V17.8014H133.905V2.61251H198.457ZM118.716 120.491V67.1651H133.905V120.491H118.716ZM118.716 51.9762V17.8014H133.905V51.9762H118.716ZM133.905 67.1651V51.9762H190.863V67.1651H133.905Z" fill="black"/>
<path d="M446.171 38.229C445.291 29.754 442.209 23.6455 436.926 19.9033C431.753 16.051 425.094 14.1249 416.949 14.1249C413.647 14.1249 410.4 14.4551 407.208 15.1155C404.016 15.7759 401.155 16.8765 398.623 18.4174C396.202 19.9583 394.221 22.0495 392.68 24.6911C391.249 27.2225 390.534 30.4144 390.534 34.2666C390.534 37.8988 391.579 40.8705 393.67 43.1818C395.872 45.3831 398.733 47.1992 402.255 48.63C405.888 50.0608 409.96 51.2715 414.473 52.2621C418.985 53.1426 423.553 54.1332 428.176 55.2338C432.908 56.3345 437.531 57.6553 442.044 59.1962C446.556 60.627 450.574 62.6081 454.096 65.1396C457.728 67.6711 460.589 70.8629 462.681 74.7152C464.882 78.5674 465.983 83.4102 465.983 89.2436C465.983 95.5173 464.552 100.91 461.69 105.423C458.938 109.826 455.361 113.458 450.959 116.319C446.556 119.071 441.603 121.052 436.1 122.263C430.707 123.584 425.314 124.244 419.921 124.244C413.317 124.244 407.043 123.419 401.1 121.768C395.266 120.117 390.093 117.64 385.581 114.338C381.178 110.926 377.656 106.634 375.015 101.461C372.483 96.1777 371.217 89.9591 371.217 82.8049H386.076C386.076 87.7578 387.012 92.0503 388.883 95.6824C390.864 99.2044 393.395 102.121 396.477 104.432C399.669 106.744 403.356 108.45 407.539 109.55C411.721 110.651 416.013 111.201 420.416 111.201C423.938 111.201 427.46 110.871 430.982 110.211C434.614 109.55 437.861 108.45 440.723 106.909C443.585 105.258 445.896 103.057 447.657 100.305C449.418 97.5535 450.298 94.0314 450.298 89.7389C450.298 85.6666 449.198 82.3646 446.996 79.8332C444.905 77.3017 442.044 75.2655 438.411 73.7246C434.889 72.0737 430.872 70.7529 426.359 69.7623C421.847 68.7717 417.224 67.7811 412.491 66.7906C407.869 65.6899 403.301 64.4792 398.788 63.1585C394.276 61.7276 390.203 59.9116 386.571 57.7103C383.049 55.3989 380.188 52.4822 377.986 48.9602C375.895 45.3281 374.85 40.8155 374.85 35.4223C374.85 29.4789 376.06 24.3609 378.482 20.0684C380.903 15.6658 384.095 12.0887 388.057 9.33714C392.13 6.47547 396.697 4.38425 401.76 3.06348C406.933 1.63265 412.216 0.917236 417.609 0.917236C423.663 0.917236 429.276 1.63265 434.449 3.06348C439.622 4.49431 444.135 6.75063 447.987 9.83242C451.949 12.9142 455.031 16.8215 457.232 21.5542C459.544 26.1769 460.81 31.7352 461.03 38.229H446.171Z" fill="black"/>
<path d="M575.844 79.0077C575.844 94.0865 571.826 105.423 563.792 113.017C555.757 120.502 544.31 124.244 529.452 124.244C514.263 124.244 502.376 120.667 493.791 113.513C485.316 106.249 481.079 94.7468 481.079 79.0077V3.72386H496.763V79.0077C496.763 89.5738 499.569 97.6085 505.183 103.112C510.796 108.505 518.886 111.201 529.452 111.201C539.467 111.201 547.062 108.505 552.235 103.112C557.518 97.6085 560.16 89.5738 560.16 79.0077V3.72386H575.844V79.0077Z" fill="black"/>
<path d="M606.456 83.1419V121.279H591.267V83.1419H606.456ZM591.267 67.9531V33.7782H606.456V67.9531H591.267ZM606.456 83.1419V67.9531H667.211V83.1419H606.456ZM606.456 33.7782V18.5894H621.644V33.7782H606.456ZM621.644 18.5894V3.40053H652.022V18.5894H621.644ZM652.022 33.7782V18.5894H667.211V33.7782H652.022ZM667.211 121.279V83.1419H682.4V121.279H667.211ZM667.211 67.9531V33.7782H682.4V67.9531H667.211Z" fill="black"/>
<path d="M709.402 3.40053V106.09H694.213V3.40053H709.402ZM709.402 121.279V106.09H770.157V121.279H709.402Z" fill="black"/>
<path d="M249.007 90.9015V3.4006H264.195V90.9015H249.007ZM264.195 106.09V90.9015H279.384V106.09H264.195ZM279.384 121.279V106.09H302.167V121.279H279.384ZM302.167 106.09V90.9015H317.356V106.09H302.167ZM317.356 90.9015V3.4006H332.545V90.9015H317.356Z" fill="black"/>
<path d="M359.564 3.4006V121.279H344.375V3.4006H359.564Z" fill="black"/>
</svg>
