<svg width="127" height="42" viewBox="0 0 127 42" fill="none" xmlns="http://www.w3.org/2000/svg">
<path d="M9.292 15H12.732L16.476 3.8H13.836L11.068 12.6H10.892L8.22 3.8H5.66L9.292 15ZM24.48 15H26.992L23.232 3.8H19.872L16.08 15H18.64L19.36 12.76H23.76L24.48 15ZM20.048 10.584L21.456 6.2H21.632L23.056 10.584H20.048ZM28.1981 15H30.5821V10.952H31.7181L33.7821 15H36.5021L34.0541 10.584C35.3501 9.976 36.0541 8.808 36.0541 7.304C36.0541 5.208 34.4061 3.8 32.0541 3.8H28.1981V15ZM30.5821 8.792V6.024H32.0061C33.0781 6.024 33.5741 6.632 33.5741 7.352C33.5741 8.28 32.9501 8.792 32.0861 8.792H30.5821ZM43.1824 15.224C45.7424 15.224 48.7824 13.56 48.8624 9.192H43.2624V11.208H46.2224C45.6624 12.424 44.5584 12.952 43.1984 12.952C41.1824 12.952 39.8384 11.416 39.8384 9.4C39.8384 7.4 41.1664 5.896 43.1824 5.896C44.4624 5.896 45.6144 6.568 46.1104 7.752H48.6544C47.9024 5.08 45.7424 3.592 43.1824 3.592C39.7584 3.592 37.3744 6.12 37.3744 9.4C37.3744 12.696 39.7584 15.208 43.1824 15.224ZM57.6675 15H60.1795L56.4195 3.8H53.0595L49.2675 15H51.8275L52.5475 12.76H56.9475L57.6675 15ZM53.2355 10.584L54.6435 6.2H54.8195L56.2435 10.584H53.2355ZM65.3056 15H70.7296V12.824H69.1936V5.976H70.7296V3.8H65.3056V5.976H66.8096V12.824H65.3056V15ZM72.8856 15H79.7016V12.776H75.2696V3.8H72.8856V15ZM81.0675 15H85.4675C89.0995 15 91.1635 12.872 91.1635 9.4C91.1635 6.136 89.0995 3.8 85.4675 3.8H81.0675V5.848H82.0275V12.952H81.0675V15ZM84.3795 12.856V5.96H85.4675C87.5315 5.96 88.6995 7.352 88.6995 9.4C88.6995 11.544 87.5155 12.856 85.4675 12.856H84.3795ZM92.5244 15H97.9484V12.824H96.4124V5.976H97.9484V3.8H92.5244V5.976H94.0284V12.824H92.5244V15ZM100.104 15H102.488V10.344H103.592L106.232 15H109.16L105.656 9.192L109.016 3.8H106.12L103.608 8.104H102.488V3.8H100.104V15ZM113.987 2.52H115.539L117.171 0.136H114.643L113.987 2.52ZM115.011 15.208C118.371 15.208 120.851 12.664 120.851 9.384C120.851 6.136 118.387 3.592 115.011 3.592C111.667 3.592 109.171 6.104 109.171 9.384C109.171 12.696 111.635 15.208 115.011 15.208ZM115.011 12.904C113.059 12.904 111.635 11.416 111.635 9.384C111.635 7.384 113.059 5.896 115.011 5.896C116.931 5.896 118.387 7.384 118.387 9.384C118.387 11.416 116.931 12.904 115.011 12.904Z" fill="white"/>
<line x1="1" y1="20.25" x2="126" y2="20.25" stroke="white" stroke-width="1.5"/>
<path d="M1.12 36H3.44V27.2H3.632L5.216 36H8.656L10.256 27.2H10.432V36H12.752V24.8H8.576L7.024 33.6H6.848L5.296 24.8H1.12V36ZM22.355 36H24.867L21.107 24.8H17.747L13.955 36H16.515L17.235 33.76H21.635L22.355 36ZM17.923 31.584L19.331 27.2H19.507L20.931 31.584H17.923ZM27.5483 36H29.9163V27.04H32.9083V24.8H24.5563V27.04H27.5483V36ZM34.4325 36H41.6325V33.776H36.8165V31.424H40.8325V29.2H36.8165V27.04H41.4725V24.8H34.4325V36ZM43.3856 36H45.7696V31.344H46.8736L49.5136 36H52.4416L48.9376 30.192L52.2976 24.8H49.4016L46.8896 29.104H45.7696V24.8H43.3856V36ZM59.6616 35.008H61.8216V32.048H64.6376V29.984H61.8216V27.04H59.6616V29.984H56.8456V32.048H59.6616V35.008ZM77.1988 36H79.7108L75.9508 24.8H72.5908L68.7988 36H71.3588L72.0788 33.76H76.4788L77.1988 36ZM72.7668 31.584L74.1748 27.2H74.3508L75.7748 31.584H72.7668ZM80.9169 36H83.3009V27.2H83.4769L86.0049 36H90.1009V24.8H87.7329V33.6H87.5729L84.9809 24.8H80.9169V36ZM97.6668 36.224C100.227 36.224 103.267 34.56 103.347 30.192H97.7468V32.208H100.707C100.147 33.424 99.0428 33.952 97.6828 33.952C95.6668 33.952 94.3228 32.416 94.3228 30.4C94.3228 28.4 95.6508 26.896 97.6668 26.896C98.9468 26.896 100.099 27.568 100.595 28.752H103.139C102.387 26.08 100.227 24.592 97.6668 24.592C94.2428 24.592 91.8588 27.12 91.8588 30.4C91.8588 33.696 94.2428 36.208 97.6668 36.224ZM110.464 36.208C113.824 36.208 116.304 33.664 116.304 30.384C116.304 27.136 113.84 24.592 110.464 24.592C107.12 24.592 104.624 27.104 104.624 30.384C104.624 33.696 107.088 36.208 110.464 36.208ZM110.464 33.904C108.512 33.904 107.088 32.416 107.088 30.384C107.088 28.384 108.512 26.896 110.464 26.896C112.384 26.896 113.84 28.384 113.84 30.384C113.84 32.416 112.384 33.904 110.464 33.904ZM118.058 36H124.874V33.776H120.442V24.8H118.058V36Z" fill="white"/>
</svg>
