<svg width="333" height="90" viewBox="0 0 333 90" fill="none" xmlns="http://www.w3.org/2000/svg">
<path d="M54.2638 8.31769L88.3103 88.7287H74.6552L45.7066 20.4518C45.5245 20.0896 45.1604 19.9085 44.6142 19.9085C44.2501 19.9085 43.8859 20.0896 43.7039 20.4518L14.7552 88.7287H1.10022L35.1467 8.31769C36.7853 4.33336 40.6087 1.97898 44.7963 1.97898C48.9838 1.97898 52.6252 4.33336 54.2638 8.31769Z" fill="white"/>
<path d="M166.307 31.6804C166.307 39.1057 160.117 45.2633 152.652 45.2633V21.3573C152.652 18.0974 149.921 15.5619 146.826 15.5619H92.7521V21.7195C92.7521 24.0739 94.2086 26.2472 96.3934 26.9716L154.473 51.0587C161.755 53.9564 166.307 61.0195 166.307 68.8071V89.2721H152.652V68.9882C152.652 66.6338 151.196 64.4605 149.011 63.7361L90.9315 39.649C83.6488 36.7513 79.0971 29.6882 79.0971 22.0817V7.95548C79.0971 4.69558 81.8281 1.79788 85.1053 1.79788H147.19C157.75 1.79788 166.307 10.491 166.307 20.9951V31.6804Z" fill="white"/>
<path d="M311.428 38.5624C315.069 42.1845 317.072 47.0744 317.072 52.1453V88.7287H303.235V52.3264C303.235 50.6965 302.689 49.2476 301.596 48.161L270.645 17.373C269.553 16.2864 268.096 15.5619 266.458 15.5619H237.327V1.79788H266.64C271.738 1.79788 276.653 3.97115 280.295 7.41216L311.428 38.5624ZM229.134 7.59327L260.449 38.5624C264.091 42.1845 266.093 47.0744 266.093 52.1453V88.7287H252.256V52.3264C252.256 50.6965 251.528 49.2476 250.618 48.161L219.484 17.373C218.392 16.2864 216.935 15.5619 215.297 15.5619H205.829C202.734 15.5619 200.003 18.2785 200.003 21.3573V88.7287H186.348V20.9951C186.348 10.491 194.905 1.79788 205.465 1.79788H215.479C220.577 1.79788 225.493 3.97115 229.134 7.59327Z" fill="white"/>
<path fill-rule="evenodd" clip-rule="evenodd" d="M35.1467 8.31769C36.7853 4.33336 40.6087 1.97898 44.7963 1.97898C48.9838 1.97898 52.6252 4.33336 54.2638 8.31769L88.3103 88.7287H74.6552L45.7066 20.4518C45.5245 20.0896 45.1604 19.9085 44.6142 19.9085C44.2501 19.9085 43.8859 20.0896 43.7039 20.4518L14.7552 88.7287H1.10022L35.1467 8.31769ZM44.3626 20.7654L15.2379 89.4577H0L34.4726 8.04042C34.4731 8.0392 34.4736 8.03798 34.4741 8.03676C36.2335 3.76288 40.335 1.25003 44.7963 1.25003C49.2724 1.25003 53.1825 3.77623 54.9364 8.03676C54.9369 8.03798 54.9374 8.0392 54.9379 8.04042L89.4105 89.4577H74.1726L45.0476 20.7649C45.0296 20.7339 45.0085 20.7149 44.9724 20.697C44.9196 20.6708 44.8115 20.6374 44.6142 20.6374C44.4913 20.6374 44.406 20.6916 44.3626 20.7654ZM151.923 45.9923V21.3573C151.923 18.5183 149.537 16.2909 146.826 16.2909H93.481V21.7195C93.481 23.7885 94.7627 25.6629 96.6228 26.2797L96.6481 26.2881L154.742 50.3814C154.744 50.3821 154.746 50.3827 154.747 50.3834C162.318 53.3981 167.036 60.7375 167.036 68.8071V90.001H151.923V68.9882C151.923 66.9192 150.641 65.0448 148.781 64.428L148.756 64.4197L90.662 40.3263C90.6603 40.3257 90.6586 40.325 90.6569 40.3243C83.09 37.3111 78.3682 29.9743 78.3682 22.0817V7.95548C78.3682 4.31758 81.4014 1.06892 85.1053 1.06892H147.19C158.158 1.06892 167.036 10.0937 167.036 20.9951V31.6804C167.036 39.5119 160.516 45.9923 152.652 45.9923H151.923ZM90.9315 39.649L149.011 63.7361C151.196 64.4605 152.652 66.6338 152.652 68.9882V89.2721H166.307V68.8071C166.307 61.0195 161.755 53.9564 154.473 51.0587L96.3934 26.9716C94.2086 26.2472 92.7521 24.0739 92.7521 21.7195V15.5619H146.826C149.921 15.5619 152.652 18.0974 152.652 21.3573V45.2633C152.897 45.2633 153.14 45.2567 153.381 45.2437C160.516 44.8587 166.307 38.8626 166.307 31.6804V20.9951C166.307 10.491 157.75 1.79788 147.19 1.79788H85.1053C81.8281 1.79788 79.0971 4.69558 79.0971 7.95548V22.0817C79.0971 29.6882 83.6488 36.7513 90.9315 39.649ZM280.295 7.41216L311.428 38.5624C315.069 42.1845 317.072 47.0744 317.072 52.1453V88.7287H303.235V52.3264C303.235 50.6965 302.689 49.2476 301.596 48.161L270.645 17.373C269.553 16.2864 268.096 15.5619 266.458 15.5619H237.327V1.79788H266.64C271.738 1.79788 276.653 3.97115 280.295 7.41216ZM236.598 13.9496V1.06892H266.64C271.943 1.06892 277.033 3.32705 280.795 6.88233L280.81 6.89663L311.942 38.0456C315.722 41.8056 317.801 46.882 317.801 52.1453V89.4577H302.506V52.3264C302.506 50.8657 302.021 49.6111 301.082 48.6778L270.131 17.8898C269.151 16.9153 267.872 16.2909 266.458 16.2909H238.965L260.962 38.0441C264.742 41.8042 266.822 46.882 266.822 52.1453V89.4577H251.527V52.3264C251.527 50.9281 250.906 49.6492 250.08 48.6547L218.972 17.8913C217.992 16.9168 216.712 16.2909 215.297 16.2909H205.829C203.133 16.2909 200.732 18.6848 200.732 21.3573V89.4577H185.619V20.9951C185.619 10.0937 194.497 1.06892 205.465 1.06892H215.479C220.784 1.06892 225.881 3.32899 229.648 7.07645L236.598 13.9496ZM229.134 7.59327C225.493 3.97115 220.577 1.79788 215.479 1.79788H205.465C194.905 1.79788 186.348 10.491 186.348 20.9951V88.7287H200.003V21.3573C200.003 18.2785 202.734 15.5619 205.829 15.5619H215.297C216.935 15.5619 218.392 16.2864 219.484 17.373L250.618 48.161C251.528 49.2476 252.256 50.6965 252.256 52.3264V88.7287H266.093V52.1453C266.093 47.0744 264.091 42.1845 260.449 38.5624L229.134 7.59327Z" fill="white"/>
<path d="M324.127 7.4396H325.518C325.818 7.4396 326.099 7.43307 326.36 7.42001C326.634 7.3939 326.876 7.33514 327.085 7.24374C327.294 7.15233 327.457 7.01523 327.575 6.83243C327.705 6.63656 327.77 6.36888 327.77 6.02939C327.77 5.74213 327.712 5.51362 327.594 5.34387C327.49 5.17412 327.346 5.04355 327.163 4.95215C326.994 4.86074 326.791 4.80199 326.556 4.77587C326.334 4.7367 326.112 4.71711 325.89 4.71711H324.127V7.4396ZM322.796 3.63987H326.106C327.124 3.63987 327.875 3.84226 328.358 4.24704C328.854 4.65183 329.102 5.26553 329.102 6.08815C329.102 6.85854 328.887 7.42654 328.456 7.79215C328.025 8.1447 327.49 8.35362 326.85 8.41891L329.298 12.1991H327.868L325.538 8.51684H324.127V12.1991H322.796V3.63987ZM319.603 7.89008C319.603 8.79105 319.753 9.62673 320.054 10.3971C320.367 11.1545 320.791 11.8139 321.327 12.3753C321.875 12.9368 322.515 13.3808 323.246 13.7072C323.99 14.0206 324.793 14.1773 325.655 14.1773C326.504 14.1773 327.294 14.0206 328.025 13.7072C328.756 13.3808 329.39 12.9368 329.925 12.3753C330.473 11.8139 330.898 11.1545 331.198 10.3971C331.511 9.62673 331.668 8.79105 331.668 7.89008C331.668 7.01523 331.511 6.19914 331.198 5.4418C330.898 4.68447 330.473 4.03159 329.925 3.48318C329.39 2.92171 328.756 2.48428 328.025 2.1709C327.294 1.84446 326.504 1.68125 325.655 1.68125C324.793 1.68125 323.99 1.84446 323.246 2.1709C322.515 2.48428 321.875 2.92171 321.327 3.48318C320.791 4.03159 320.367 4.68447 320.054 5.4418C319.753 6.19914 319.603 7.01523 319.603 7.89008ZM318.271 7.89008C318.271 6.85854 318.467 5.89881 318.859 5.01091C319.25 4.123 319.779 3.35261 320.445 2.69973C321.124 2.04686 321.908 1.53761 322.796 1.172C323.697 0.793337 324.65 0.604004 325.655 0.604004C326.661 0.604004 327.607 0.793337 328.495 1.172C329.383 1.53761 330.16 2.04686 330.826 2.69973C331.492 3.35261 332.021 4.123 332.412 5.01091C332.804 5.89881 333 6.85854 333 7.89008C333 8.94774 332.804 9.92705 332.412 10.828C332.021 11.7159 331.492 12.4928 330.826 13.1588C330.16 13.8117 329.383 14.3209 328.495 14.6865C327.607 15.0521 326.661 15.2349 325.655 15.2349C324.65 15.2349 323.697 15.0521 322.796 14.6865C321.908 14.3209 321.124 13.8117 320.445 13.1588C319.779 12.4928 319.25 11.7159 318.859 10.828C318.467 9.92705 318.271 8.94774 318.271 7.89008Z" fill="white"/>
</svg>
