<svg width="110" height="42" viewBox="0 0 110 42" fill="none" xmlns="http://www.w3.org/2000/svg">
<path d="M8.53094 14.888L6.19494 5.8H4.53094L7.52294 17H9.53894L12.5309 5.8H10.8669L8.53094 14.888ZM17.5088 5.8H15.4448L12.4528 17H14.0688L14.5488 15.192H18.2928L18.7408 17H20.5008L17.5088 5.8ZM16.4528 7.928L17.9088 13.672H14.9488L16.4528 7.928ZM25.9281 12.344C27.6721 12.2 29.0801 10.984 29.0801 8.952C29.0801 7.048 27.4961 5.608 25.5921 5.592C23.6881 5.608 22.1201 7.032 22.1041 8.936V17H23.7361V11.816L27.8321 17H29.7361L25.9281 12.344ZM25.5921 7.144C26.7281 7.16 27.4001 8.04 27.4001 8.952C27.4001 10.024 26.7281 10.792 25.5921 10.792C24.4561 10.776 23.7841 10.024 23.7841 8.952C23.7841 8.04 24.4561 7.16 25.5921 7.144ZM39.7452 12.264C39.5372 14.2 38.1612 15.592 35.9372 15.592C33.6332 15.592 32.0012 13.752 32.0012 11.352C32.0012 8.936 33.6652 7.192 35.9372 7.192C37.1852 7.176 38.3372 7.704 39.0412 8.6L40.1772 7.464C39.1692 6.328 37.7132 5.592 35.9372 5.592C32.5132 5.592 30.2572 8.328 30.2572 11.352C30.2572 14.584 32.5132 17.192 35.9372 17.192C39.2652 17.192 41.2012 15.016 41.4252 12.264H42.2412V10.712H35.6172V12.264H39.7452ZM47.6182 5.8H45.5542L42.5622 17H44.1782L44.6582 15.192H48.4022L48.8502 17H50.6102L47.6182 5.8ZM46.5622 7.928L48.0182 13.672H45.0582L46.5622 7.928ZM60.3556 17V15.56H59.1236V7.24H60.2756V5.8H56.2916V7.24H57.4436V15.56H56.2116V17H60.3556ZM69.1509 15.4H64.8309V5.8H63.1509V17H69.1509V15.4ZM72.3249 17C76.1649 17 78.4209 14.584 78.4209 11.352C78.4209 8.328 76.1649 5.8 72.3249 5.8H70.9009V17H72.3249ZM72.5809 7.384C75.0129 7.384 76.6769 8.936 76.6769 11.352C76.6769 13.768 75.0129 15.432 72.5809 15.432V7.384ZM84.2462 17V15.56H83.0142V7.24H84.1662V5.8H80.1822V7.24H81.3342V15.56H80.1022V17H84.2462ZM90.0816 11.096L93.0736 5.8H91.2656L88.6736 10.408V5.8H87.0416V17H88.6736V11.864L91.9056 17H93.9056L90.0816 11.096ZM99.8204 4.68L101.052 2.648H99.3244L98.5884 4.68H99.8204ZM99.4684 17.192C102.892 17.192 105.148 14.584 105.148 11.352C105.148 8.328 102.892 5.592 99.4684 5.592C96.0444 5.592 93.7884 8.328 93.7884 11.352C93.7884 14.584 96.0444 17.192 99.4684 17.192ZM99.4684 15.592C97.1644 15.592 95.5324 13.752 95.5324 11.352C95.5324 8.936 97.1964 7.192 99.4684 7.192C101.74 7.192 103.404 8.936 103.404 11.352C103.404 13.752 101.772 15.592 99.4684 15.592Z" fill="white"/>
<line x1="0.5" y1="20.5" x2="109.5" y2="20.5" stroke="white"/>
<path d="M8.04706 36V28.528L10.2711 36H11.9671L14.1911 28.528V36H15.7591V24.8H13.7751L11.1191 33.728L8.44706 24.8H6.47906V36H8.04706ZM22.4151 24.8H20.3511L17.3591 36H18.9751L19.4551 34.192H23.1991L23.6471 36H25.4071L22.4151 24.8ZM21.3591 26.928L22.8151 32.672H19.8551L21.3591 26.928ZM29.7204 26.368H32.3924V24.8H25.3684V26.368H28.0404V36H29.7204V26.368ZM35.9247 31.088H39.9887V36H41.6687V24.8H39.9887V29.488H35.9247V24.8H34.2447V36H35.9247V31.088ZM50.4936 26.352V24.8H44.5416V36H50.6536V34.448H46.1736V31.056H49.9656V29.52H46.1736V26.352H50.4936ZM54.6252 36V28.528L56.8492 36H58.5452L60.7692 28.528V36H62.3372V24.8H60.3532L57.6972 33.728L55.0252 24.8H53.0572V36H54.6252ZM68.9932 24.8H66.9292L63.9372 36H65.5532L66.0332 34.192H69.7772L70.2252 36H71.9852L68.9932 24.8ZM67.9372 26.928L69.3932 32.672H66.4332L67.9372 26.928ZM76.2986 26.368H78.9706V24.8H71.9466V26.368H74.6186V36H76.2986V26.368ZM85.0431 36V34.56H83.8111V26.24H84.9631V24.8H80.9791V26.24H82.1311V34.56H80.8991V36H85.0431ZM92.4059 34.592C90.1019 34.592 88.4699 32.752 88.4699 30.352C88.4699 27.936 90.1339 26.192 92.4059 26.192C93.6539 26.176 94.8059 26.768 95.5099 27.6L96.6779 26.416C95.6699 25.328 94.1819 24.592 92.4059 24.592C88.9819 24.592 86.7259 27.328 86.7259 30.352C86.7259 33.584 88.9819 36.192 92.4059 36.192C94.1819 36.192 95.6699 35.456 96.6779 34.368L95.5099 33.184C94.8059 34.032 93.6539 34.608 92.4059 34.592ZM101.227 36C103.387 36 104.715 34.624 104.715 32.848C104.715 31.248 103.771 30.4 102.635 29.904L100.955 29.168C100.139 28.816 99.7549 28.432 99.7549 27.648C99.7549 26.896 100.347 26.368 101.211 26.368H103.787V24.8H101.227C99.3709 24.8 98.0749 26 98.0749 27.648C98.0749 29.296 99.0349 30.112 100.187 30.592L101.835 31.28C102.603 31.6 103.035 32.112 103.035 32.848C103.035 33.904 102.155 34.4 101.227 34.4H98.4909V36H101.227Z" fill="white"/>
</svg>
