<svg width="846" height="137" viewBox="0 0 846 137" fill="none" xmlns="http://www.w3.org/2000/svg">
<g style="mix-blend-mode:difference">
<path d="M33.9761 20.3436V37.0066H17.3131V20.3436H33.9761ZM0.650116 99.674V37.0066H17.3131V99.674H0.650116ZM17.3131 116.337V99.674H33.9761V116.337H17.3131ZM33.9761 133V116.337H83.9651V133H33.9761ZM33.9761 20.3436V3.68061H83.9651V20.3436H33.9761ZM83.9651 116.337V99.674H100.628V116.337H83.9651ZM83.9651 37.0066V20.3436H100.628V37.0066H83.9651ZM100.628 99.674V37.0066H117.291V99.674H100.628Z" fill="#F1F0F5"/>
<path d="M217.872 3.68061V20.3436H147.054V3.68061H217.872ZM130.391 133V74.4983H147.054V133H130.391ZM130.391 57.8354V20.3436H147.054V57.8354H130.391ZM147.054 74.4983V57.8354H209.54V74.4983H147.054Z" fill="#F1F0F5"/>
<path d="M489.627 41.7628C488.661 32.4654 485.28 25.7639 479.484 21.6586C473.809 17.4324 466.504 15.3194 457.569 15.3194C453.946 15.3194 450.384 15.6816 446.883 16.4061C443.381 17.1306 440.242 18.338 437.465 20.0285C434.808 21.719 432.635 24.0131 430.944 26.911C429.375 29.6882 428.59 33.1898 428.59 37.416C428.59 41.4006 429.737 44.6608 432.031 47.1964C434.446 49.6114 437.585 51.6037 441.449 53.1734C445.434 54.7431 449.901 56.0713 454.852 57.158C459.803 58.124 464.814 59.2107 469.885 60.4182C475.077 61.6256 480.148 63.0746 485.099 64.765C490.05 66.3347 494.457 68.5082 498.321 71.2853C502.305 74.0625 505.445 77.5641 507.739 81.7903C510.154 86.0164 511.361 91.3292 511.361 97.7288C511.361 104.611 509.792 110.528 506.652 115.478C503.634 120.308 499.709 124.293 494.879 127.432C490.05 130.451 484.616 132.624 478.579 133.953C472.662 135.402 466.746 136.126 460.829 136.126C453.584 136.126 446.702 135.221 440.181 133.409C433.782 131.598 428.107 128.881 423.156 125.259C418.326 121.516 414.462 116.807 411.564 111.132C408.787 105.336 407.399 98.5136 407.399 90.6651H423.699C423.699 96.0987 424.726 100.808 426.779 104.792C428.952 108.656 431.729 111.856 435.11 114.392C438.612 116.927 442.657 118.799 447.245 120.006C451.833 121.214 456.543 121.818 461.372 121.818C465.236 121.818 469.1 121.455 472.964 120.731C476.949 120.006 480.511 118.799 483.65 117.109C486.789 115.297 489.325 112.882 491.257 109.864C493.189 106.845 494.155 102.981 494.155 98.2721C494.155 93.8045 492.948 90.1821 490.533 87.405C488.238 84.6278 485.099 82.394 481.114 80.7035C477.25 78.8923 472.843 77.4434 467.893 76.3567C462.942 75.27 457.871 74.1832 452.679 73.0965C447.607 71.8891 442.596 70.5608 437.646 69.1119C432.695 67.5422 428.227 65.5499 424.243 63.1349C420.379 60.5993 417.24 57.3995 414.825 53.5356C412.53 49.551 411.383 44.6004 411.383 38.6838C411.383 32.1635 412.712 26.5488 415.368 21.8397C418.024 17.0098 421.526 13.0856 425.873 10.0669C430.341 6.92752 435.352 4.63334 440.906 3.18438C446.581 1.61468 452.377 0.829834 458.293 0.829834C464.934 0.829834 471.092 1.61468 476.768 3.18438C482.443 4.75408 487.393 7.22938 491.619 10.6103C495.966 13.9912 499.347 18.2777 501.762 23.4698C504.298 28.5411 505.686 34.6388 505.928 41.7628H489.627Z" fill="#F1F0F5"/>
<path d="M631.885 86.4994C631.885 103.042 627.478 115.478 618.663 123.81C609.849 132.021 597.291 136.126 580.99 136.126C564.327 136.126 551.287 132.202 541.869 124.353C532.571 116.384 527.922 103.766 527.922 86.4994V3.90886H545.129V86.4994C545.129 98.091 548.208 106.905 554.366 112.943C560.524 118.859 569.399 121.818 580.99 121.818C591.978 121.818 600.31 118.859 605.985 112.943C611.781 106.905 614.679 98.091 614.679 86.4994V3.90886H631.885V86.4994Z" fill="#F1F0F5"/>
<path d="M665.469 92.0262V133.865H648.806V92.0262H665.469ZM648.806 75.3632V37.8714H665.469V75.3632H648.806ZM665.469 92.0262V75.3632H732.121V92.0262H665.469ZM665.469 37.8714V21.2085H682.132V37.8714H665.469ZM682.132 21.2085V4.54546H715.458V21.2085H682.132ZM715.458 37.8714V21.2085H732.121V37.8714H715.458ZM732.121 133.865V92.0262H748.784V133.865H732.121ZM732.121 75.3632V37.8714H748.784V75.3632H732.121Z" fill="#F1F0F5"/>
<path d="M778.407 4.54546V117.202H761.744V4.54546H778.407ZM778.407 133.865V117.202H845.059V133.865H778.407Z" fill="#F1F0F5"/>
<path d="M273.327 100.539V4.54547H289.99V100.539H273.327ZM289.99 117.202V100.539H306.653V117.202H289.99ZM306.653 133.865V117.202H331.647V133.865H306.653ZM331.647 117.202V100.539H348.31V117.202H331.647ZM348.31 100.539V4.54547H364.973V100.539H348.31Z" fill="#F1F0F5"/>
<path d="M394.615 4.54547V133.865H377.952V4.54547H394.615Z" fill="#F1F0F5"/>
</g>
</svg>
