<svg width="990" height="131" viewBox="0 0 990 131" fill="none" xmlns="http://www.w3.org/2000/svg">
<path d="M477.186 1.68066V18.3437H410.534V55.8354H477.186V72.4984H410.534V131H393.871V1.68066H477.186ZM477.186 55.8354V18.3437H493.849V55.8354H477.186Z" fill="#010101"/>
<path d="M540.135 18.3437V35.0066H523.472V18.3437H540.135ZM506.809 97.674V35.0066H523.472V97.674H506.809ZM523.472 114.337V97.674H540.135V114.337H523.472ZM540.135 131V114.337H590.124V131H540.135ZM540.135 18.3437V1.68066H590.124V18.3437H540.135ZM590.124 114.337V97.674H606.787V114.337H590.124ZM590.124 35.0066V18.3437H606.787V35.0066H590.124ZM606.787 97.674V35.0066H623.45V97.674H606.787Z" fill="#010101"/>
<path d="M736.528 131V97.674H719.865V81.011H736.528V1.68066H753.191V131H736.528ZM636.55 131V1.68066H653.213V81.011H669.876V97.674H653.213V131H636.55ZM669.876 81.011V35.1878H686.539V81.011H669.876ZM686.539 35.1878V18.5248H703.202V35.1878H686.539ZM703.202 81.011V35.1878H719.865V81.011H703.202Z" fill="#010101"/>
<path d="M41.989 1.68066V18.3437H0.331482V1.68066H41.989ZM41.989 131V18.3437H58.652V131H41.989ZM58.652 18.3437V1.68066H100.309V18.3437H58.652Z" fill="#010101"/>
<path d="M773.127 1.04394H862.419V15.5335H790.334V56.6476H857.529V71.1372H790.334V115.874H862.963V130.363H773.127V1.04394Z" fill="#010101"/>
<path d="M113.512 0.946289H130.718V56.55H198.819V0.946289H216.025V130.266H198.819V71.0395H130.718V130.266H113.512V0.946289Z" fill="#010101"/>
<path d="M240.014 114.337V72.4984H256.677V114.337H240.014ZM240.014 55.8354V18.3437H256.677V55.8354H240.014ZM256.677 131V114.337H327.495V131H256.677ZM256.677 72.4984V55.8354H319.163V72.4984H256.677ZM256.677 18.3437V1.68066H327.495V18.3437H256.677Z" fill="#010101"/>
<path d="M905.787 131H889.124V72.4984H905.787V131ZM889.124 55.8354V1.68066H972.439V18.3437H905.787V55.8354H889.124ZM905.787 72.4984V55.8354H972.439V72.4984H905.787ZM972.439 131V72.4984H989.102V131H972.439ZM972.439 55.8354V18.3437H989.102V55.8354H972.439Z" fill="#010101"/>
</svg>
