<svg width="750" height="137" viewBox="0 0 750 137" fill="none" xmlns="http://www.w3.org/2000/svg">
<path d="M454.64 41.6652C453.674 32.3677 450.294 25.6663 444.498 21.5609C438.823 17.3348 431.518 15.2217 422.582 15.2217C418.96 15.2217 415.398 15.584 411.896 16.3084C408.395 17.0329 405.255 18.2404 402.478 19.9308C399.822 21.6213 397.648 23.9155 395.958 26.8134C394.388 29.5906 393.603 33.0922 393.603 37.3183C393.603 41.3029 394.75 44.5631 397.044 47.0988C399.459 49.5137 402.599 51.506 406.463 53.0757C410.447 54.6454 414.915 55.9736 419.866 57.0603C424.816 58.0263 429.827 59.113 434.898 60.3205C440.091 61.528 445.162 62.9769 450.112 64.6674C455.063 66.2371 459.47 68.4105 463.334 71.1877C467.319 73.9648 470.458 77.4665 472.752 81.6926C475.167 85.9187 476.375 91.2316 476.375 97.6311C476.375 104.514 474.805 110.43 471.666 115.381C468.647 120.211 464.723 124.195 459.893 127.335C455.063 130.353 449.63 132.527 443.592 133.855C437.676 135.304 431.759 136.028 425.842 136.028C418.598 136.028 411.715 135.123 405.195 133.312C398.795 131.5 393.12 128.784 388.17 125.161C383.34 121.418 379.476 116.709 376.578 111.034C373.801 105.238 372.412 98.416 372.412 90.5675H388.713C388.713 96.001 389.739 100.71 391.792 104.695C393.965 108.559 396.743 111.758 400.124 114.294C403.625 116.83 407.67 118.701 412.259 119.909C416.847 121.116 421.556 121.72 426.386 121.72C430.25 121.72 434.114 121.358 437.977 120.633C441.962 119.909 445.524 118.701 448.664 117.011C451.803 115.2 454.339 112.785 456.271 109.766C458.202 106.747 459.168 102.884 459.168 98.1745C459.168 93.7069 457.961 90.0845 455.546 87.3073C453.252 84.5301 450.112 82.2963 446.128 80.6059C442.264 78.7947 437.857 77.3457 432.906 76.259C427.956 75.1723 422.884 74.0856 417.692 72.9989C412.621 71.7914 407.61 70.4632 402.659 69.0142C397.709 67.4445 393.241 65.4522 389.256 63.0373C385.392 60.5016 382.253 57.3018 379.838 53.438C377.544 49.4533 376.397 44.5027 376.397 38.5862C376.397 32.0658 377.725 26.4511 380.381 21.742C383.038 16.9122 386.54 12.9879 390.886 9.96927C395.354 6.82986 400.365 4.53568 405.919 3.08672C411.594 1.51703 417.39 0.732178 423.307 0.732178C429.948 0.732178 436.106 1.51703 441.781 3.08672C447.456 4.65643 452.407 7.13173 456.633 10.5126C460.98 13.8935 464.361 18.18 466.775 23.3721C469.311 28.4435 470.7 34.5412 470.941 41.6652H454.64Z" fill="#010101"/>
<path d="M494.385 3.8112H511.591V133.131H494.385V3.8112Z" fill="#010101"/>
<path d="M619.593 4.54532V21.2083H548.776V4.54532H619.593ZM532.113 117.202V21.2083H548.776V117.202H532.113ZM548.776 133.865V117.202H619.593V133.865H548.776ZM582.102 75.3631V58.7001H619.593V75.3631H582.102ZM619.593 117.202V75.3631H636.256V117.202H619.593ZM619.593 37.8713V21.2083H636.256V37.8713H619.593Z" fill="#010101"/>
<path d="M665.959 4.54532V21.2083H682.622V37.8713H665.959V133.865H649.296V4.54532H665.959ZM682.622 54.5343V37.8713H699.285V54.5343H682.622ZM699.285 100.539V54.5343H715.948V100.539H699.285ZM715.948 117.202V100.539H732.611V4.54532H749.274V133.865H732.611V117.202H715.948Z" fill="#010101"/>
<path d="M33.6695 21.2084V37.8714H17.0065V21.2084H33.6695ZM0.343475 100.539V37.8714H17.0065V100.539H0.343475ZM17.0065 117.202V100.539H33.6695V117.202H17.0065ZM33.6695 133.865V117.202H83.6585V133.865H33.6695ZM33.6695 100.539V37.8714H66.9955V54.5344H50.3325V67.2127H66.9955V54.5344H83.6585V100.539H66.9955V83.8757H50.3325V100.539H33.6695ZM33.6695 21.2084V4.54537H83.6585V21.2084H33.6695ZM83.6585 117.202V100.539H100.321V117.202H83.6585ZM83.6585 37.8714V21.2084H100.321V37.8714H83.6585ZM100.321 100.539V37.8714H116.984V100.539H100.321Z" fill="#010101"/>
<path d="M246.036 4.54537V21.2084H179.384V117.202H246.036V133.865H162.721V4.54537H246.036ZM246.036 117.202V21.2084H262.699V117.202H246.036Z" fill="#010101"/>
<path d="M275.659 117.202V75.3631H292.322V117.202H275.659ZM275.659 58.7001V21.2084H292.322V58.7001H275.659ZM292.322 133.865V117.202H363.14V133.865H292.322ZM292.322 75.3631V58.7001H354.809V75.3631H292.322ZM292.322 21.2084V4.54537H363.14V21.2084H292.322Z" fill="#010101"/>
</svg>
