<svg width="42" height="42" viewBox="0 0 42 42" fill="none" xmlns="http://www.w3.org/2000/svg">
<circle cx="21" cy="21" r="21" fill="#201A01"/>
<path d="M20.6667 16H22V26H20.6667V16Z" fill="white"/>
<path d="M19.3333 17.3333H20.6667V24.6667H19.3333V17.3333Z" fill="white"/>
<path d="M18 19H19.3333V23H18V19Z" fill="white"/>
<path d="M15.3333 19H16.6667V23H15.3333V19Z" fill="white"/>
<path d="M14 20.3333H15.3333V21.6667H14V20.3333Z" fill="white"/>
<path d="M23.6667 19H25V20.3333H23.6667V19Z" fill="white"/>
<path d="M26.3333 19H27.6667V20.3333H26.3333V19Z" fill="white"/>
<path d="M25 17.6667H26.3333V19H25V17.6667Z" fill="white"/>
<path d="M23.6667 23H25V24.3333H23.6667V23Z" fill="white"/>
<path d="M26.3333 23H27.6667V24.3333H26.3333V23Z" fill="white"/>
<path d="M25 21.6667H26.3333V23H25V21.6667Z" fill="white"/>
</svg>
