<svg width="38" height="10" viewBox="0 0 38 10" fill="none" xmlns="http://www.w3.org/2000/svg">
<path d="M3.55297 9.216C1.94497 9.216 0.50497 8.148 0.50497 5.652V3.864C0.50497 1.368 1.94497 0.3 3.55297 0.3C5.16097 0.3 6.60097 1.368 6.60097 3.864V5.652C6.60097 8.148 5.16097 9.216 3.55297 9.216ZM3.55297 8.592C4.80097 8.592 5.91697 7.752 5.91697 5.652V3.864C5.91697 1.752 4.80097 0.924 3.55297 0.924C2.30497 0.924 1.17697 1.752 1.17697 3.864V5.652C1.17697 7.752 2.30497 8.592 3.55297 8.592ZM3.58897 7.296C2.52097 7.296 1.86097 6.684 1.86097 5.208V4.248C1.86097 2.784 2.53297 2.184 3.58897 2.184C4.59697 2.184 5.16097 2.832 5.19697 3.924L4.18897 4.02C4.17697 3.456 4.03297 3 3.56497 3C3.15697 3 2.88097 3.264 2.88097 4.212V5.196C2.88097 6.18 3.14497 6.48 3.57697 6.48C4.00897 6.48 4.18897 6.036 4.21297 5.484L5.20897 5.628C5.16097 6.552 4.68097 7.296 3.58897 7.296ZM8.30638 9V7.872C9.07438 7.308 10.1544 6.432 11.1384 5.472C12.0624 4.572 12.3984 3.924 12.3984 3.048C12.3984 2.184 11.9304 1.692 11.1264 1.692C10.3104 1.692 9.83038 2.196 9.83038 3.012C9.83038 3.216 9.85438 3.444 9.90238 3.696L8.43838 3.552C8.39038 3.336 8.37838 3.156 8.37838 2.964C8.37838 1.464 9.44638 0.48 11.1744 0.48C12.9024 0.48 13.8984 1.392 13.8984 3.012C13.8984 4.092 13.3944 5.016 12.2784 6.084C11.6424 6.684 11.0184 7.2 10.1904 7.764H14.0184V9H8.30638ZM18.9158 0.48C20.8838 0.48 22.0718 1.752 22.0718 4.836C22.0718 7.908 20.8838 9.18 18.9158 9.18C16.9478 9.18 15.7598 7.908 15.7598 4.836C15.7598 1.752 16.9478 0.48 18.9158 0.48ZM18.9158 1.62C17.8598 1.62 17.2238 2.376 17.2118 4.836C17.2118 5.4 17.2478 5.88 17.3198 6.276L20.2118 2.388C19.9118 1.836 19.4678 1.62 18.9158 1.62ZM18.9158 8.04C19.9718 8.04 20.6078 7.272 20.6198 4.836C20.6198 4.188 20.5718 3.672 20.4878 3.24L17.5598 7.14C17.8598 7.8 18.3158 8.04 18.9158 8.04ZM23.6692 9V7.872C24.4372 7.308 25.5172 6.432 26.5012 5.472C27.4252 4.572 27.7612 3.924 27.7612 3.048C27.7612 2.184 27.2932 1.692 26.4892 1.692C25.6732 1.692 25.1932 2.196 25.1932 3.012C25.1932 3.216 25.2172 3.444 25.2652 3.696L23.8012 3.552C23.7532 3.336 23.7412 3.156 23.7412 2.964C23.7412 1.464 24.8092 0.48 26.5372 0.48C28.2652 0.48 29.2612 1.392 29.2612 3.012C29.2612 4.092 28.7572 5.016 27.6412 6.084C27.0052 6.684 26.3812 7.2 25.5532 7.764H29.3812V9H23.6692ZM34.3026 9.18C32.4066 9.18 31.2906 8.112 31.2546 6.552L32.7306 6.396C32.7666 7.356 33.3066 8.004 34.3146 8.004C35.2506 8.004 35.7786 7.476 35.7786 6.588C35.7786 5.796 35.2386 5.256 34.1946 5.256H33.7266V4.176H34.1706C35.0946 4.176 35.5386 3.612 35.5386 2.868C35.5386 2.1 35.1066 1.644 34.2666 1.644C33.3306 1.644 32.8026 2.256 32.8026 3.324L31.3746 3.096C31.3746 1.488 32.5146 0.48 34.3386 0.48C36.0306 0.48 37.0266 1.368 37.0266 2.748C37.0266 3.612 36.4386 4.368 35.5506 4.596C36.6306 4.8 37.2786 5.544 37.2786 6.684C37.2786 8.172 36.1146 9.18 34.3026 9.18Z" fill="white"/>
</svg>
